<?xml version="1.0" encoding="utf-8"?><svg xml:space="preserve" viewBox="0 0 100 100" y="0" x="0" xmlns="http://www.w3.org/2000/svg" id="圖層_1" version="1.1" width="200px" height="200px" xmlns:xlink="http://www.w3.org/1999/xlink" style="width:100%;height:100%;background-color:rgb(255, 255, 255);animation-play-state:paused" ><g class="ldl-scale" style="transform-origin:50% 50% 0px;transform:rotate(0deg) scale(0.8);animation-play-state:paused" ><path d="M90 46h-2.5C85.6 28.4 71.6 14.4 54 12.5V10c0-2.2-1.8-4-4-4s-4 1.8-4 4v2.5C28.4 14.4 14.4 28.4 12.5 46H10c-2.2 0-4 1.8-4 4s1.8 4 4 4h2.5C14.4 71.6 28.4 85.6 46 87.5V90c0 2.2 1.8 4 4 4s4-1.8 4-4v-2.5C71.6 85.6 85.6 71.6 87.5 54H90c2.2 0 4-1.8 4-4s-1.8-4-4-4zM54 81.4v-2.5c0-2.2-1.8-4-4-4s-4 1.8-4 4v2.5C31.7 79.6 20.4 68.3 18.6 54h2.5c2.2 0 4-1.8 4-4s-1.8-4-4-4h-2.5C20.4 31.7 31.7 20.4 46 18.6v2.5c0 2.2 1.8 4 4 4s4-1.8 4-4v-2.5C68.3 20.4 79.6 31.7 81.4 46h-2.5c-2.2 0-4 1.8-4 4s1.8 4 4 4h2.5C79.6 68.3 68.3 79.6 54 81.4z" style="animation-play-state:paused" ></path>
<metadata xmlns:d="https://loading.io/stock/" style="animation-play-state:paused" ><d:name style="animation-play-state:paused" >aim</d:name>


<d:tags style="animation-play-state:paused" >target,crosshair,destination,fire,toward,gps,location,aim,web application</d:tags>


<d:license style="animation-play-state:paused" >by</d:license>


<d:slug style="animation-play-state:paused" >n57ptk</d:slug></metadata></g><!-- generated by https://loading.io/ --></svg>