<svg id="Livello_1" data-name="Livello 1" xmlns="http://www.w3.org/2000/svg" viewBox="0 0 108.8 108.8"><defs><style>.cls-1{fill:#918133;}</style></defs><title>A</title><path class="cls-1" d="M383.92,322V213.2H492.71V322Zm1.63-1.63H491.08V214.83H385.55Zm1.63-1.63V216.6H489.31V318.74Zm15.64-92.35c.63-.27.95-.63.95-1.09,0-1.45-.95-2.17-2.85-2.17-.46,0-.73,0-.82.13l-.54.28h-.14c-.27,0-.41-.18-.41-.55v-.54c-1.54.18-2.36.59-2.45,1.22L396,225a3.47,3.47,0,0,0-.54.75,5.3,5.3,0,0,1-.82,1,4.4,4.4,0,0,1-1,1.9.79.79,0,0,1-.55.28c-.27,0-.41-.18-.41-.55a2.4,2.4,0,0,1,.41-1l.82-1.36,1.5-1.77a5.63,5.63,0,0,0,.68-3,5,5,0,0,0-.07-.68c0-.27-.12-.63-.21-1.09-.45.46-.77.68-.95.68a2.9,2.9,0,0,1-.41-.68,3,3,0,0,0-3-2c-1.9,0-2.86,1-2.86,3a2.43,2.43,0,0,0,.55,1.77l.68,1.09a1.41,1.41,0,0,1,.14.82,1,1,0,0,1-.69.95c.09.27.23.41.41.41.73,0,1.18-.5,1.36-1.5v-.41a2.86,2.86,0,0,0-.68-1.49,3.16,3.16,0,0,1-.68-1.77,1.56,1.56,0,0,1,1.77-1.77c1.27,0,1.91.86,1.91,2.58a9.79,9.79,0,0,1-1.5,3.95q-1.9,3.12-1.9,4.76c0,1.81.76,2.72,2.31,2.72q2,0,3.4-2.59c2.08-3.44,3.81-5.16,5.17-5.16A2.12,2.12,0,0,1,402.82,226.39ZM389.76,235c-.36,2-.63,3.74-.81,5.24a32,32,0,0,0-.28,4A28.77,28.77,0,0,0,390,252.1a13.49,13.49,0,0,1,.81,4.08v.54c-1.27,0-1.81.23-1.63.68v.41a1.18,1.18,0,0,1,.82-.41,2.33,2.33,0,0,1,1.08.41l1-.55.13-.54a23.9,23.9,0,0,0-1.9-7.48l-.14-9.66.95-4.21ZM397,263.52a8.52,8.52,0,0,0,.95-3.81c0-1.81-.86-2.72-2.58-2.72s-3.36.95-4.63,2.86a12,12,0,0,0-1.9,6.8,10.19,10.19,0,0,0,1.9,6l.55-.41a9,9,0,0,1-2-5.71,11.2,11.2,0,0,1,1.77-6.25c1.17-1.82,2.58-2.72,4.21-2.72a1.8,1.8,0,0,1,2,2,18.12,18.12,0,0,1-.68,3.94Zm-7.62,17.14a1.84,1.84,0,0,0-.54,1.36c0,1.18.73,1.76,2.18,1.76l1.09-.13v-.27c-1.82-.18-2.73-.55-2.73-1.09l.28-1.09Zm7.08,3.12-1.36-.68a11.28,11.28,0,0,0-3,3.27c-.64,1.45-1.5,2.17-2.59,2.17h-.41v.82l.41.14.41-.28.54.41-.81,2.31-.68,4.9.27,3.81.41-.14c.18,0,.49.95.95,2.86a5,5,0,0,0,.41,1.09c.18.36.36.77.54,1.22a1.49,1.49,0,0,1,1-.54h.14l.82.27,1.35-.14h.55v-.68a1.16,1.16,0,0,0-.27-1.15c-.28-.23-.55-.43-.82-.62v-.27a.37.37,0,0,1,.41-.41l.54.14c.09-.54.05-.9-.13-1.09l-.82-.81.14-.28-.68-.13-1.09-1.23-1.09-4.21c-.09-.09-.13-.36-.13-.82Q391.4,289.23,396.43,283.78Zm18.76,25c-.63.63-1.95.95-3.94.95-.54,0-1.29,0-2.24-.07l-3-.13-3-.14c-.95,0-1.7-.07-2.24-.07H399a5.37,5.37,0,0,0-1.49.14l-4.36.41H391.8a8.56,8.56,0,0,1-1-.07l-1.56-.21c.45.73,1.45,1.09,3,1.09h1.63l1.77-.27a3.93,3.93,0,0,1,1.36-.14h1.22a7.06,7.06,0,0,0,1.37-.13h4.08l4.21.41,3,.13,1.5-.13,1.9-.28c.91-.09,1.36-.4,1.36-.95C415.6,309.17,415.47,309,415.19,308.81Zm-25.56-76.57a1.08,1.08,0,0,0-.14.68c0,.91.82,1.36,2.45,1.36.36,0,.54-.14.54-.41a5.35,5.35,0,0,0-1.63-.81A2.12,2.12,0,0,1,389.63,232.24Zm18.22,53L402,298.2a19.58,19.58,0,0,1-4.15,6.39,16.1,16.1,0,0,1-6.32,3.13l-1.22.41c-.55.18-.82.36-.82.54,0,.46.73.68,2.18.68.54,0,1.85-.13,3.94-.41,1.36-.18,2.58-.29,3.67-.34a19.9,19.9,0,0,1,2.86.07H405l6.52.55a8.67,8.67,0,0,0,3.27-.82,11.31,11.31,0,0,0-1.36-.54,10.47,10.47,0,0,0-2.18-.41q-6.25-.4-6.25-5,0-3,5.57-13.47c-.09-.45-.16-.81-.2-1.09a3.5,3.5,0,0,1-.07-.54,3.41,3.41,0,0,1,.54-1.5l-.54-.13-.68.13-.14.14ZM390,296c.18.46.42,1.07.74,1.84s.66,1.66,1,2.65A5.74,5.74,0,0,1,393,302q-3.13-3.94-3.13-4.63Zm2.17,15.92a8.42,8.42,0,0,1-2.17,4.62h.81c.91.18,1.45-.23,1.63-1.22l.14-1.36c0-.28.18-.41.54-.41s.55.27.55.81v.14a1.41,1.41,0,0,0,.81-1.36,4.86,4.86,0,0,0-.13-1.36Zm1.63-43.52q-3.54,8-3.4,11.28v2.45l.68.14v-1.5q-.14-4.89,3.67-12.37Zm.41-30.6v-.14c0-1-.41-1.5-1.22-1.5-1.09,0-1.73.91-1.91,2.72l-.41,3,.82-3a1.94,1.94,0,0,1,1.91-1.36Zm11.29,14.68a34.39,34.39,0,0,1-3.6-1.9,11.33,11.33,0,0,1-1.57-1.09l-4.62-6q-1.5-2-3-2a.6.6,0,0,0-.67.68v.41a1.47,1.47,0,0,0-1.37.95v.27c0,.73.19,1.09.55,1.09.18,0,.27,0,.27-.14v-.68c0-.45.36-.68,1.09-.68.9,0,2,.68,3.26,2L399,249.1C400.19,250.65,402.36,251.78,405.54,252.5ZM393,231a8,8,0,0,0-.95.54c-.73,0-1.14-.54-1.23-1.63A13,13,0,0,0,393,231Zm-1.91,54.8.41-.27-.13-.68h-.55Zm12.79-10.33a47,47,0,0,1-7.89-8.3,5.42,5.42,0,0,0-3.13-1.63c-1,0-1.49.54-1.49,1.63a1.71,1.71,0,0,0,.81,1.5c.09-1.18.63-1.77,1.63-1.77q1.1,0,2.79,2a62.43,62.43,0,0,0,5.78,5.71ZM393,256.58v-1.22q-.13-4.22,2.58-4.22a2.61,2.61,0,0,1,2,1.36c.45-.18.68-.45.68-.81a2.36,2.36,0,0,0-.41-1.09l-1.22-1.09.27-.81-1.49-.41-1.36,1h-.55l-.13-.41-.28-.13c-.81,0-1.22,1.13-1.22,3.4a14.27,14.27,0,0,0,.95,4.48Zm-.82,23.53-.13.55,1.36.13.27-.27Zm1.23-20.81-.82.55c1.18,2.08,2.2,3.83,3.06,5.23a23.51,23.51,0,0,0,2.38,3.34,33.44,33.44,0,0,0,2.92,3.12q1.84,1.77,4.42,4.08l1-.27A66.41,66.41,0,0,1,393.44,259.3Zm-.82,20H393a.55.55,0,0,1,.41-.14.38.38,0,0,0,.27-.14c.63,0,1,.41,1,1.23a3.34,3.34,0,0,1-.54,1.49l.54.28a4.87,4.87,0,0,0,.54-2.18c0-1-.45-1.5-1.36-1.5C393.39,278.34,393,278.66,392.62,279.3Zm.41,2.58c-.19.18-.28.32-.28.41a1.51,1.51,0,0,0,.55.95l.54-.41A4.92,4.92,0,0,1,393,281.88Zm.13-7.48c1.91.54,3.81,1,5.72,1.36s3.8.64,5.71.82q-3.13-.69-5.92-1.36a49.36,49.36,0,0,1-5.37-1.64Zm5.58,11a9.27,9.27,0,0,1,1.22,3.67c0,2-.9,3-2.72,3-1,0-2.17-.82-3.53-2.45l-.27.68q2.16,2.18,4.08,2.18,3.25,0,3.26-3.4a1.08,1.08,0,0,0-.14-.68l-1.36-3.4Zm-3.67-24.76a6.88,6.88,0,0,1-.48-.81l-.47-1,.27-.14.81,2.31Zm0-.13-.68-1.77-.14.14Zm0,34.41a1,1,0,0,0-.68,1.08q0,1,.81,1c.55,0,.82-.32.82-1S395.7,294.94,395.07,294.94Zm.95,4.48c-.36-.54-.73-1.08-1.09-1.63a.78.78,0,0,1-.54.14C394.48,298.74,395,299.24,396,299.42Zm6.66-18.63q-7.33,4.35-7.34,8.84a1.69,1.69,0,0,0,.41.95,13.46,13.46,0,0,1,.47-2.72,8.47,8.47,0,0,1,1-2.1,8.82,8.82,0,0,1,1.91-2q1.22-.94,3.12-2.31Zm-7.07,32.1-.27,1.36a5.76,5.76,0,0,1,1,1.77,1.51,1.51,0,0,0,.54-1l-.13-.95a.24.24,0,0,1,.27-.27.56.56,0,0,1,.41.14,16.6,16.6,0,0,0,9.52,2.85,21.88,21.88,0,0,0,12-3.19,15.8,15.8,0,0,0,6.8-8.64,5.15,5.15,0,0,0,.54-1.77c.09-.09.63-.9,1.63-2.45h-.68l-.54.28a.38.38,0,0,1-.27.13c-.27-.09-.41-.22-.41-.41s.22-.77.41-1.49a14.74,14.74,0,0,0-.55-3.4,3.73,3.73,0,0,0-.07-.55c0-.27-.11-.63-.2-1.08l-.14-1c0-.36,0-.54-.13-.54a.82.82,0,0,0-.55.27l-.27.41h-.13q-.82-1.23-1.77-2.58c-.36-.64-.7-1.25-1-1.84s-.66-1.25-1-2c-1.82,2.08-2.72,3.81-2.72,5.17a4.94,4.94,0,0,0,.34,1.63,5.39,5.39,0,0,1,.34,1.22.13.13,0,0,1-.14.14,8.09,8.09,0,0,1-1.36-.41c-.09.45-.16.82-.2,1.09a3.5,3.5,0,0,0-.07.54c0,.73.91,2.13,2.72,4.22,1.27,1.27,1.9,2.22,1.9,2.85,0,.37-.13.55-.4.55h-.41c-.36-.09-.54-.23-.54-.41l-.82-1.77-1.91-2.31c-1.27-1.81-2.53-2.63-3.8-2.45h-.68a6.5,6.5,0,0,1,.68,1.23h-.14a5.69,5.69,0,0,0-1.29.34,12.53,12.53,0,0,0-3.2,2.1,5.66,5.66,0,0,1,1.77,1.7c.55.78,1,1.12,1.5,1h.68c.09,0,.13.1.13.28a3.5,3.5,0,0,1-.07.54c0,.27-.11.64-.2,1.09.45-.09.86-.16,1.22-.21s.64-.06.82-.06q3.27,0,3.27,3.53a4.39,4.39,0,0,1-1,2.65,9,9,0,0,1-2.44,2.25,14.76,14.76,0,0,1-3.47,1.56,13.41,13.41,0,0,1-4,.61,16.65,16.65,0,0,1-8-1.9,9.73,9.73,0,0,1-1.63-.41Q396.55,313.16,395.61,312.89Zm-.27-1.36a6.52,6.52,0,0,0,3.4,1.49c.09-.27.22-.4.41-.4.45,0,.72,0,.81.13l.41.14a1.88,1.88,0,0,0,1.77-.95h-1.5l-1.63-.55a2.29,2.29,0,0,0-1.09-.13q-.41,0-1,.06Zm2-28.15.41-.41-1.91-1.36-.4.27Zm2.18-62.29a.8.8,0,0,1,.4.68,21.49,21.49,0,0,1,10.34-3q6.66,0,12.65,6a9.5,9.5,0,0,0-.82-1.63v-.27l.68.27.82.81q2.17,2.59,2.17,4.63a4.4,4.4,0,0,1-1.09,3.26c-1.08,1.27-1.67,2-1.76,2.11s-.37.2-.82.2c-.27,0-.41-.09-.41-.27s.36-.63,1.09-1.09a4.13,4.13,0,0,0,2.31-3.94,5.67,5.67,0,0,0-.13-1.5c-.19,1.36-.55,2-1.09,2a.4.4,0,0,1-.14-.27l.14-.41.54-1.49a.79.79,0,0,0,.14-.55,3.72,3.72,0,0,0-1.36-2.44c.09.45.16.81.2,1.08a3.73,3.73,0,0,1,.07.55q0,3.81-2.45,3.94l-2,.27a5.17,5.17,0,0,0-2,.62c-.86.4-1.29.79-1.29,1.15,0,.09.18.21.54.34s.55.3.55.48-.32.32-.95.68a3.21,3.21,0,0,0-1.77,2.58v.68a.4.4,0,0,0-.14.27.55.55,0,0,1-.14.41,5.62,5.62,0,0,1,1.5-.13H416l.95.27,2.45.27.68-.27.41-.14c.27,0,.41.18.41.55a1.69,1.69,0,0,1-.41,1h.81q2,.14,3.81-2.45c.46-.82.73-1.31.82-1.5l.41-1.08c.18-.46.36-.68.54-.68.36,0,.55.31.55.95a21.18,21.18,0,0,1-1.64,5.44,6.5,6.5,0,0,0,2-3.13c.09-.27.18-.41.28-.41a.61.61,0,0,1,.13.41,4.38,4.38,0,0,1-1.56,3.33,5.23,5.23,0,0,1-3.61,1.43,8.63,8.63,0,0,1-2.72-.41L418.6,240l-1.91-.13-1.36.27-.54.27-.41.41a.53.53,0,0,0,.14.41l.4.27.14.13c0,.28-.23.41-.68.41a12.89,12.89,0,0,1-1.9-.2,12,12,0,0,0-1.77-.21,4.72,4.72,0,0,0-2.59,1.09,4.41,4.41,0,0,1,1.63,1.77A5.66,5.66,0,0,0,413,247.2c.36,0,.54.05.54.14,0-.09-.09.13-.27.68l-.54.81a.56.56,0,0,0-.14.41c0,.45.36.68,1.09.68h1.9l1.36.14a7.63,7.63,0,0,0,2.18-.68l1.09-.28a.78.78,0,0,1,.54.14c0,.45-.54.86-1.63,1.22a22.09,22.09,0,0,1-5.85,1.23,13.17,13.17,0,0,1-7.21-2.18,3.9,3.9,0,0,0,1.91,1.91q.54.41.54.54c0,.09-.09.14-.27.14a2,2,0,0,1-1.36-.68q-2-1.77-2-3a6.63,6.63,0,0,1,.61-2.17,6.78,6.78,0,0,0,.61-2,2.36,2.36,0,0,0-.13-1c-.55,0-.82-.18-.82-.55a2.15,2.15,0,0,1,.48-1.09,2.15,2.15,0,0,0,.47-1.08L406,239a17.54,17.54,0,0,1,.81-3.94q-3.54.27-4.89,1.76c-.46.46-.73.68-.82.68-.36,0-.54-.22-.54-.68l.13-.54H400c-1.08.27-1.63,1.41-1.63,3.4a5.33,5.33,0,0,0,.48,2,5.28,5.28,0,0,1,.47,1.7c0,.55-.22.82-.68.82-.9,0-1.36-1.09-1.36-3.27q0-4.35,4.9-8.7a1.08,1.08,0,0,0-.68-.14c-.91,0-1.82.82-2.72,2.45-.46.73-.82,1.09-1.09,1.09-.09,0-.13-.14-.13-.41a1.86,1.86,0,0,1,.67-1.22q-2.58.81-2.58,5a11.44,11.44,0,0,0,1.63,5.3,7.81,7.81,0,0,0,1.64,2.45l2.72,2.59-.55-1.91a9,9,0,0,1-.13-2c0-3,.4-4.49,1.22-4.49a.83.83,0,0,1,.13.55V242l-.54,1.77a3.43,3.43,0,0,0-.13,1.22,10.69,10.69,0,0,0,1.49,5.17l1.36,1.23-1.09-1.77-.13-1-.14-1c0-.54.14-.81.41-.81l.27.81q.54,5.31,7.89,5.31,9.79,0,14.69-9.66l-1.64,1.23a7,7,0,0,1-2.58,1.22l-3.94.27q-1,0-1-.54c0-.27.41-.41,1.23-.41h1.09q5.43.14,8.57-5.44a15.36,15.36,0,0,0,.54-3.94A17.36,17.36,0,0,0,423.49,223a17.73,17.73,0,0,0-13.05-5.17A19.58,19.58,0,0,0,399.56,221.09Zm3.8,56.3h-.68l-3.94,1.23h-.41c-.91,0-1.36-.32-1.36-1a.94.94,0,0,1,.27-.68h-.41c-.45,0-.67.14-.67.41l-.14.82-.27.27c.09.64.77.95,2,.95h.68c.18-.09.52-.25,1-.47l2-.89a4.41,4.41,0,0,1,.75-.27C402.52,277.71,402.91,277.57,403.36,277.39ZM396,293.44c.18,1.27.63,1.9,1.36,1.9q.27,0,.27-.54C397.65,294.17,397.11,293.71,396,293.44Zm2,6.53h-.95c-.46,0-.68.09-.68.27,0,.64.36.95,1.09.95h.13c.54-.09.82-.27.82-.54A1.61,1.61,0,0,1,398.06,300Zm-.14-3.67c-.81,0-1.22.5-1.22,1.49s.36,1.5,1.09,1.5,1.09-.45,1.09-1.36C398.88,296.84,398.56,296.3,397.92,296.3Zm-.68-74.8c1.54-1,2.32-1.86,2.32-2.59s-.46-1.22-1.37-1.22c-.54,0-.9.36-1.08,1.09.54-.18.77-.28.68-.28.54,0,.81.23.81.68a.83.83,0,0,0-.13.55l-.14.27Zm17,11.83c-.18-.18-.41-.43-.68-.75s-.59-.7-.95-1.16l-.54-1.9a1.91,1.91,0,0,0-.82-.82c-.73-.18-1.09-.4-1.09-.68a.54.54,0,0,1,.14-.4l.41-.14a.38.38,0,0,0,.13-.27l-.27-.14a4.69,4.69,0,0,0-1.77-.41,6.93,6.93,0,0,0-3,.14,18,18,0,0,1-1.77.41c.18.18.27.32.27.41s-.13.27-.4.27h-1.23c-.63-.09-1.4.32-2.31,1.22a12.12,12.12,0,0,1,2.86-.41c2.08,0,3.12.23,3.12.68-.18.28-.31.41-.4.41a13.59,13.59,0,0,1-2.18-.41h-.54q-3.41,0-4.76,1.77a4.22,4.22,0,0,1,1.76-.54c.28,0,.41,0,.41.13-.18.19-.32.28-.41.28l-1.9.95c-.81.45-1.22.91-1.22,1.36,0,.18,0,.27.13.27a1.23,1.23,0,0,0,.82-.68,6.64,6.64,0,0,1,4.21-1.5,5.33,5.33,0,0,1,2.73.82,6,6,0,0,0,1.63.82l1.22.13h.27l.14-.27a.4.4,0,0,1,.27-.14,9.1,9.1,0,0,1,1.43.68,5.31,5.31,0,0,0,2.52.68A7.31,7.31,0,0,0,414.24,233.33Zm-17,47.87,1.09.82a59.85,59.85,0,0,1,6.39-3l-.81-.81A30,30,0,0,0,397.24,281.2Zm1.36-18.5c-.36,0-.54.28-.54.82v.27c.18.46.41.68.68.68s.54-.27.54-.81v-.28C399.1,262.93,398.88,262.7,398.6,262.7Zm-.13,30.88.27,1.22v1.09l.14.13c.81,0,1.22-.45,1.22-1.36q0-.81-.27-.81Zm.41-33.05c-.19,0-.28.23-.28.68a.37.37,0,0,0,.41.41c.36,0,.55-.14.55-.41A.6.6,0,0,0,398.88,260.53Zm.4-1.91a.48.48,0,0,0-.54.55.37.37,0,0,0,.41.41c.36,0,.54-.14.54-.41S399.56,258.62,399.28,258.62Zm2-11A9.71,9.71,0,0,1,399,245.3Q401.32,246.78,401.32,247.61ZM400,298.47a6,6,0,0,0-.81,1.23q0,.54.27.54c.36,0,.63-.23.81-.68l.14-.41C400.37,298.7,400.23,298.47,400,298.47Zm.68-2.45c-.63,0-.95.37-.95,1.09,0,.37.23.55.68.55a.73.73,0,0,0,.82-.82A.75.75,0,0,0,400.64,296Zm.55-39.44c-.91,0-1.36.41-1.36,1.23q0,.54.81.54c.91,0,1.36-.31,1.36-1A.72.72,0,0,0,401.19,256.58Zm-1,5.44c-.18,0-.27.19-.27.55,0,.54.23.81.68.81q1,0,1-.54C401.6,262.3,401.14,262,400.23,262Zm-.13,2.18c0,.45.18.68.54.68s.55-.23.82-.68Zm1.36-5.3a1.08,1.08,0,0,0-1.23,1.22c0,.73.32,1.09,1,1.09.81,0,1.22-.36,1.22-1.09S402.09,258.9,401.46,258.9Zm-.95-36.72.95.13a17.42,17.42,0,0,1,6.53-1.9q6.93,0,6.93,4.08a1.2,1.2,0,0,1-1.36,1.36c-.72,0-1.27-.45-1.63-1.36L411,223a2.45,2.45,0,0,0-2.31-1.22c-1.55,0-2.32.63-2.32,1.9a1,1,0,0,0,1.09,1.09l-.13-1.09c0-.63.45-.95,1.36-.95,1.08,0,1.85.91,2.31,2.72s1.5,2.72,3.13,2.72l.41-.14.67-.27a.56.56,0,0,1,.41-.13,5,5,0,0,1,.68,1.22,3.37,3.37,0,0,0,1.23-2.18,9.18,9.18,0,0,0-.55-2.17.56.56,0,0,1,.41-.14,1.08,1.08,0,0,1,.68.14q-.27-4.91-8.57-4.9A18.28,18.28,0,0,0,400.51,222.18Zm2.17,44.06-.68-.14c-.9,0-1.36.5-1.36,1.5s.91,2.31,2.72,3.94V271c-1.36-1.45-2-2.58-2-3.4C401.32,267,401.78,266.51,402.68,266.24Zm-.81,17.68a4.57,4.57,0,0,0-1.09,2.31,3.69,3.69,0,0,0,.68,1.91,1.86,1.86,0,0,0,1.5,1.08c.08,0,.22-.09.4-.27l.14-.13,1.09-.14c.54,0,.81-.45.81-1.36v-.27c-.18-.45-.36-.68-.54-.68h-.14l-.13,1.09c0,.36-.32.54-.95.54-1.09,0-1.64-.63-1.64-1.9a6.72,6.72,0,0,1,.41-2ZM401.73,234a.6.6,0,0,0-.68.68c0,.45.14.68.41.68a.6.6,0,0,0,.68-.68C402.14,234.24,402,234,401.73,234Zm-.54,80a14,14,0,0,0,4.35.81c2.72,0,4.08-.63,4.08-1.9,0-.45-.5-.91-1.5-1.36.09.27.18.54.28.81,0,1.45-1,2.18-3,2.18A16.36,16.36,0,0,1,401.19,314Zm2-52.64-.82.55c.09.36.23.54.41.54a.48.48,0,0,0,.54-.54A.83.83,0,0,0,403.23,261.34Zm-.68,1.91q.4.54.54.54a2.9,2.9,0,0,0,.41-.68ZM436,297.93a7.46,7.46,0,0,1,.55-.95,4,4,0,0,1,.54-.68,40.41,40.41,0,0,0-2.31-5.65,22.82,22.82,0,0,0-2.92-4.35,20.15,20.15,0,0,0-4.08-3.54,56.75,56.75,0,0,0-5.65-3.19q-15-7.35-15-12.11a3.64,3.64,0,0,1,.75-2.31c.5-.63.88-.95,1.16-.95.08,0,.13.09.13.27l-.27.27c.36.1.54.23.54.41q0-.13-.75.27a2.37,2.37,0,0,0-.88.68l.14.28c.54-.18.77-.28.68-.28a4.7,4.7,0,0,1,2,1.23,1.49,1.49,0,0,0,1,.54,4.15,4.15,0,0,0,1.36-.68,3.92,3.92,0,0,0-.27-.47,3.57,3.57,0,0,1-.27-.48.38.38,0,0,1,.13-.27l.68-.27a1.62,1.62,0,0,0,.68-1.5c0-.63-.18-.95-.54-.95a1.47,1.47,0,0,0-.55.27,1.68,1.68,0,0,1-.95.27h-.27l-2.58-.27q-3.4-.13-3.41,4.76l-1.08-.27H404l-.4.41a5.8,5.8,0,0,1,.27.74c.09.32.18.71.27,1.16a5.82,5.82,0,0,0,4.62,5.3c1.27.28,1.91.78,1.91,1.5,0,.54-.23.82-.68.82-.28,0-.64-.23-1.09-.68a2,2,0,0,0-1.36-.68,19.93,19.93,0,0,0-2.86,1.08l.41.55.68.54c.18.18.27.32.27.41s-.13.32-.41.41l-.67.27c-.19.18-1,1.27-2.45,3.26a10.22,10.22,0,0,0,3.53,1,3.83,3.83,0,0,0,1.36-.34,3.69,3.69,0,0,1,1.09-.34.48.48,0,0,1,.55.54,1.08,1.08,0,0,1-.14.68l.95.14a6.6,6.6,0,0,0,2.45-1l3.54-1.76a4,4,0,0,1,2-.55c.45,0,.68.14.68.41s-.46.68-1.37.95l-1.9.55a5.07,5.07,0,0,0-3.94,4.48l.95.14q.27,3.94,2.72,3.94A2.71,2.71,0,0,0,417,291a2.31,2.31,0,0,1-2-2.31q0-3.94,6.12-3.94a13.38,13.38,0,0,1,9,3.67A20.24,20.24,0,0,1,436,297.93Zm-32.23-65c-.63-.09-.95.18-.95.82a.72.72,0,0,0,.82.81c.63,0,.95-.22.95-.68C404.59,233.24,404.31,232.92,403.77,232.92Zm8.43,20.94q-9.37,2-9.38,4.22l.27.27a.93.93,0,0,0,.68-.27l1.09-1.22,1.22-.68,4.9-1.77Zm-8.16,5c-.45,0-.68.31-.68,1s.23.81.68.81a.72.72,0,0,0,.82-.81C404.86,259.21,404.59,258.9,404,258.9Zm.55,2.58-.55.68.27.54a2.91,2.91,0,0,0,.69-.54A1.85,1.85,0,0,0,404.59,261.48Zm.41-24.75a5.68,5.68,0,0,1,.4,1.36,7.28,7.28,0,0,0,.07,1.36c0,.18.11.23.2.13a.94.94,0,0,0,.21-.47,3.68,3.68,0,0,0,.07-.61c0-.91-.37-.5-1.09,1.22-.09-.36-.16-.63-.2-.82a2,2,0,0,1-.07-.54A5,5,0,0,1,405,236.73Zm-.41,45.56q3.95-3.14,6.12-3.4l3.12-.55a5.62,5.62,0,0,1,1.5-.13c.82,0,1.23.13,1.23.41,0,.45-1.28.72-3.81.81q-1.63,0-6.26,2Zm1.49-48.55c-.36,0-.54.13-.54.4.18.19.32.28.41.28.36,0,.54-.09.54-.28A.36.36,0,0,0,406.08,233.74Zm5.58,56.57-.14-.81-.13-.41-.68.81-3.4,7.08a14.33,14.33,0,0,0-1.64,5.3,5,5,0,0,0,1.64,3.13,8.22,8.22,0,0,1-.55-2.86,9,9,0,0,1,.68-3.13Zm-5.17-42.7a1.69,1.69,0,0,0-.27.68l-.14.13c0,.46.18.68.55.68s.68-.27.68-.81S407,247.61,406.49,247.61Zm.41-1.91c-.27,0-.41.19-.41.55s.18.68.55.68a.48.48,0,0,0,.54-.55A.6.6,0,0,0,406.9,245.7Zm.81-9.38c-.63,0-.95.27-.95.82,0,.36.28.54.82.54h.13c.73-.18,1.09-.41,1.09-.68C408.8,236.55,408.44,236.32,407.71,236.32Zm-.13,4.22a.72.72,0,0,0-.82.81c0,.37.14.55.41.55.54,0,.82-.23.82-.68A.79.79,0,0,0,407.58,240.54Zm-.14-1.91c-.36,0-.54.23-.54.68a.37.37,0,0,0,.41.41c.45,0,.68-.18.68-.54A.49.49,0,0,0,407.44,238.63Zm0,4.9a.9.9,0,0,0-.4.81c0,.55.22.82.67.82a.61.61,0,0,0,.69-.68A.85.85,0,0,0,407.44,243.53Zm1-9.25a.61.61,0,0,0-.69.68c0,.54.37.82,1.09.82s.95-.23.95-.68S409.3,234.28,408.4,234.28Zm.54,14.14c-.54.19-.82.46-.82.82a.73.73,0,0,0,.82.82c.63,0,.95-.23.95-.68A.85.85,0,0,0,408.94,248.42Zm.27-3a.6.6,0,0,0-.68.68c0,.46.27.68.82.68a.64.64,0,0,0,.68-.54A.73.73,0,0,0,409.21,245.43Zm-.13-5.17a.8.8,0,0,0-.41.68c0,.19.22.28.68.28h.27a.55.55,0,0,1,.41-.14.73.73,0,0,0,.54-.14c0-.45-.36-.68-1.09-.68Zm.13-1.76-.27.54c0,.27.22.41.68.41.63,0,.95-.27.95-.82s-.32-.81-.95-.81c-.09,0-.23.09-.41.27Zm2.72-5.72a3.13,3.13,0,0,1-1.22.14c-.55,0-1-.41-1.36-1.22l1.9.27a2,2,0,0,1,.27.34A3.67,3.67,0,0,0,411.93,232.78Zm-1.09,14.56c-.45,0-.68.27-.68.81s.28.73.82.82.81-.18.81-.55C411.79,247.7,411.48,247.34,410.84,247.34Zm9.93,3.8-5.17,2.18q-5.3,2.31-5.3,4.9c0,.72.14,1.08.41,1.08h.13c.55,1.73,1.54,2.59,3,2.59.91,0,1.41-.18,1.5-.55l.95-2a1.24,1.24,0,0,1,1.09-.81h.27c-.09-.36-.27-.55-.54-.55a1.69,1.69,0,0,0-1,.41l-.55.55-.68,1a.79.79,0,0,1-.54.13,1.68,1.68,0,0,1-1.9-1.9q0-2.17,4.21-4.22c.63-.36,1.29-.77,2-1.22S420,251.69,420.77,251.14Zm-9.93-1.36c-.18.19-.27.32-.27.41a.37.37,0,0,0,.41.41.93.93,0,0,0,.68-.27C411.66,250,411.39,249.78,410.84,249.78Zm.68-15.09q-.81,0-.81.54c0,.27.22.41.68.41s.68-.14.68-.41S411.88,234.78,411.52,234.69Zm.41,1.49a.85.85,0,0,0-.95,1c0,.54.32.81.95.81s.95-.22.95-.68C412.88,236.55,412.56,236.18,411.93,236.18Zm0,2.72a.72.72,0,0,0-.81.82c0,.36.22.54.67.54a.6.6,0,0,0,.69-.68C412.48,239.13,412.29,238.9,411.93,238.9Zm2.18,38.76a8.71,8.71,0,0,1-1.09.21,11.06,11.06,0,0,1-1.23.07c-.45,0-.67-.18-.67-.55a.36.36,0,0,1,.4-.41,3.21,3.21,0,0,1,.89.21C412.81,277.32,413.38,277.48,414.11,277.66ZM414,245.84h-1.22q-1.5-.27-1.5-1.5l.14-.54a9.31,9.31,0,0,1,1,.82A18.33,18.33,0,0,0,414,245.84Zm-.81,27.74,3.53,1.91a4.89,4.89,0,0,1,2.86-1.09h31.14a3.88,3.88,0,0,1,3.81,2.31l5.3,11.7,1.09-.27,1.63.13,1.5-.13,1-.14.41-.14c.54,0,.82.46.82,1.36a4.64,4.64,0,0,1-.82,2.59,4.86,4.86,0,0,1,1.22,3.13q0,1.62-2,4.08a10.55,10.55,0,0,1,1.23,5c0,1.72-1.82,2.9-5.44,3.53l-1.64.28c-.72.18-1.08.4-1.08.68s.45.54,1.36.54l3.53.14c.36,0,.84,0,1.43-.07s1.34-.11,2.25-.21l3.4-.2c1,0,1.81-.07,2.44-.07l3,.14,7.07.41h2.31c1.72.09,2.58-.09,2.58-.55,0-.63-1.36-1.09-4.08-1.36q-6.39-.68-9.52-7.61l-33.86-74q-1.1-2-1.77-2c-.54,0-1.13.73-1.77,2.18Zm.95-35.08c-.55,0-.82.22-.82.68a.48.48,0,0,0,.54.54c.55,0,.82-.23.82-.68A.48.48,0,0,0,414.11,238.5Zm3.67,64.6-1.36-.68-1.5-.82-1.22-.54H414A4,4,0,0,1,417.78,303.1Zm.14-55c-.82.82-1.46,1.23-1.91,1.23a15.86,15.86,0,0,1-1.77-.68A10.65,10.65,0,0,1,417.92,248.15ZM415.74,238c-.36,0-.55.14-.55.41s.32.41,1,.41q.54.14.54-.27C416.69,238.13,416.37,238,415.74,238Zm-.14-2.31a3.61,3.61,0,0,1,1.09-.14,4.67,4.67,0,0,1,2,.55,4.86,4.86,0,0,1-1.36.13A3.66,3.66,0,0,1,415.6,235.64ZM420,289.09c.27,1.18.54,2.27.81,3.26a18.74,18.74,0,0,0,1,2.72,21.12,21.12,0,0,1,1.5,6.39q0,10.35-7.21,13.06l.95-.95,1.91-1.5q3.66-3.26,3.67-10.47a15,15,0,0,0-1.29-6A14,14,0,0,1,420,290Zm-3.54,26.65a4.59,4.59,0,0,1,2.31-.54c.73,0,1.09.23,1.09.68l-.14.54c.55-.09.82-.31.82-.68,0-.63-.36-.95-1.09-.95A5.11,5.11,0,0,0,416.42,315.74Zm2.18-9.52a4,4,0,0,1-1.77-1.22A4.9,4.9,0,0,1,418.6,306.22Zm16-83.23a3.46,3.46,0,0,1-3.67,2.59,5.66,5.66,0,0,1-3.94-1.64l-3.27-2.72-6.12-3,4.9,2.86a8.72,8.72,0,0,1,3.54,3.26q2.58,3.81,4.75,3.81c1.82,0,2.72-.32,2.72-.95l-.27-.14v-.54l1-.95a2.09,2.09,0,0,0,.69-1.5Zm18.5,52.91a2.74,2.74,0,0,0-2-.82H420.23a3.83,3.83,0,0,0-2.59.82l.55.27.54-.27Zm-34,22.71v-.55c-.91-.81-1.36-1.08-1.36-.81l.14-.68Zm-.41-60.25c-.45,0-.68.14-.68.41s.23.54.68.54.82-.18.82-.54S419.27,238.36,418.73,238.36Zm3.4,3.67c-.18.18-.27.32-.27.41a.4.4,0,0,1,.14.27h-1.23c-.36,0-.86-.41-1.5-1.22A6.48,6.48,0,0,0,422.13,242Zm3.13,40.67-2.72.13-1.5-.13h-1.22c-.36,0-.55-.23-.55-.68s.23-.55.69-.55l2.85.55Zm-5.44,26.38A3.52,3.52,0,0,0,420,308V307l-.14-1.09c0-.27.2-.52.61-.75s.48-.34.21-.34c.36,0,.54.28.54.82A10.37,10.37,0,0,1,419.82,309.08Zm18.77-67.59,11.83,26.38a3.42,3.42,0,0,1,.41,1.09c0,1.09-.77,1.63-2.31,1.63l-26.25-.13c-1.36,0-2-.46-2-1.36l.27-1.09,12.78-26.93c.73-1.54,1.5-2.31,2.32-2.31C436.59,238.77,437.59,239.68,438.59,241.49Zm-2.86-1.91a2.5,2.5,0,0,0-1.63,1.23L421,268.14a1.49,1.49,0,0,0-.13.82.72.72,0,0,0,.81.82h.14v-.55a3.81,3.81,0,0,0,.27-1Zm-12.24,6.67a6.86,6.86,0,0,1-.13,1.63c-.82.27-1.59.54-2.32.82A7.83,7.83,0,0,1,423.49,246.25Zm30.06,70.17a.54.54,0,0,1-.14-.4,1.08,1.08,0,0,0,.21-.28.94.94,0,0,1,.2-.27,2.74,2.74,0,0,0,.81-1.63c0-1.09-.81-1.86-2.44-2.31-.27-.09-.41-.18-.41-.27a1.56,1.56,0,0,1,.54-1.09l-1.09-.82a1.69,1.69,0,0,0-1.22-.54h-1.49l-.41.41a.56.56,0,0,1-.41.13c-.09,0-.14-.13-.14-.41a3.15,3.15,0,0,1,.41-1.22,5.38,5.38,0,0,0-1.5-.41c-.72,0-1.72.64-3,1.91-.45.45-.81.68-1.09.68a.85.85,0,0,1-.95-1c0-.18.23-.49.68-.95a4,4,0,0,0,2.18-3.4l-.14-.68-.27-1.09c-.18-.54-.32-.81-.41-.81-.27,0-.59.23-1,.68s-.63.68-.82.68-.4-.18-.4-.55c.09-.09.13-.36.13-.81v-.55a5.08,5.08,0,0,0-.81-2.44l-.82-1.91-1.09-1.36-1.09,1.36-.81,1.5a4.6,4.6,0,0,0-.95,1.77l-.14,1.76c-.18,1.09-.36,1.64-.54,1.64s-.46-.18-.55-.55l-.13-.68c-.09-.09-.23-.22-.41-.41s-.5-.45-1-.81a13.22,13.22,0,0,0-1.09,3.13,4,4,0,0,0,.68,2.17l.95,1.23a2.4,2.4,0,0,1,.41.95c0,.63-.36.95-1.09.95-.36,0-.73-.32-1.09-.95a4.78,4.78,0,0,0-3.67-1.91,4.31,4.31,0,0,0-1.63.41l1.22,2c0,.27-.22.41-.68.41h-1.22a4.92,4.92,0,0,0-3,1.63.64.64,0,0,1,.54.68c0,.09-.27.41-.82.95a2.37,2.37,0,0,0-.81,1.64,2.94,2.94,0,0,0,1.09,1.76q.41-3.12,6.25-3h2.86a4.59,4.59,0,0,1,1.09.14q5.16,0,5-4.9v-.54c0-.27.09-.41.27-.41.36,0,.55.32.55.95v.27l-.14,1.36a4.18,4.18,0,0,0-.14,1.23c0,1.18,2.41,1.77,7.21,1.77h2.45a15.74,15.74,0,0,0,1.9-.14h.41c1.45,0,2.18.46,2.18,1.36a2.17,2.17,0,0,1-.21.88,2.44,2.44,0,0,0-.2.62c0,.36.32.54,1,.54Zm-27.88-14.55a5.93,5.93,0,0,1-.48,1.23c-.23.45-.52,1-.88,1.63A3.26,3.26,0,0,1,425.67,301.87Zm.68-61.2a4.07,4.07,0,0,1,.13,1.36c0,.18-.68.32-2,.41A10.75,10.75,0,0,1,426.35,240.67Zm9-16.32a8.71,8.71,0,0,0,.41-2.58q0-3.54-3.81-3.54a7,7,0,0,0-1.76.14c.18.18.27.32.27.41s-.05.27-.14.27c-1.27.18-2.49.41-3.67.68l-.54-.27h-.14c-.09,0-.23.09-.41.27a.94.94,0,0,1,.2.27.75.75,0,0,0,.35.27l.81.82a3,3,0,0,0,2.58.68l.14-.14.14.14a1.51,1.51,0,0,1-.55.95,4.1,4.1,0,0,0,2,.54,1.22,1.22,0,0,0,1.09-.4l.27-.68a1.06,1.06,0,0,1,1.09-.68c1.09,0,1.63.9,1.63,2.72ZM431.79,265l-.41.13c-.46,0-.68-.09-.68-.27a.56.56,0,0,1,.13-.41l-.81-.27h-.41a.24.24,0,0,1-.27-.27,3.36,3.36,0,0,1,1-.41,3.56,3.56,0,0,0-2.17-1.09l-1.5-.41-.68.41.68.68.13.82a1.14,1.14,0,0,0,.48.47c.23.14.34.25.34.34s-.09.28-.27.28l-.55.4a1.23,1.23,0,0,0,1.23,1.36h.41C430.38,266.78,431.52,266.2,431.79,265Zm-5.17-36.32a6.46,6.46,0,0,0,.54,1.77,8.05,8.05,0,0,1,.55,1.63c0,.37-.14.55-.41.55-.82,0-1.22-.18-1.22-.55a1.89,1.89,0,0,1,.13-.81l.14-1.09a1.1,1.1,0,0,0,.13-.68A2,2,0,0,1,426.62,228.7Zm8.7,70.72c-.09-2.62-.72-4.51-1.9-5.64s-3.31-1.93-6.39-2.38l.27,1,.54.27V293l-.95,1.5a5.63,5.63,0,0,0-.27,1,2.75,2.75,0,0,0,1.36,2.31c-.09-.45-.16-.81-.2-1.09a3.5,3.5,0,0,1-.07-.54c0-1.45.81-2.18,2.45-2.18C432.42,294,434.14,295.8,435.32,299.42Zm2.31-4.08v-.95q.14-2.58-4.89-9.65-2.44-3.4-2.45-4.63c0-1.09.59-1.67,1.77-1.77a1.49,1.49,0,0,0,.82-.13c0-.55-.37-.95-1.09-1.23a1.46,1.46,0,0,0-.82-.13,2.41,2.41,0,0,0-1.77.68c-.45.45-.63.68-.54.68a5.15,5.15,0,0,1-.48-.27c-.13-.09-.29-.18-.47-.28a.36.36,0,0,1-.27-.13c-.37,0-.55.45-.55,1.36s1,2.22,3,4.21A41.59,41.59,0,0,1,437.63,295.34Zm-10.74,21.08a26.36,26.36,0,0,0,3.94.41,9.74,9.74,0,0,0,4.9-1.63c.27-.09.41-.18.41-.27,0-.27-.41-.41-1.22-.41a1.41,1.41,0,0,0-.82.14l-1.5.68-1.22.4.27-.54.68-.54c-.54.09-1.11.2-1.7.34a8.69,8.69,0,0,0-2,.74Zm1.36-11.15a11.12,11.12,0,0,1-.27-1.22c0-.64.27-.95.81-.95a1.65,1.65,0,0,1,1.5.95,7.66,7.66,0,0,1,.34.81c.14.37.29.87.48,1.5a2,2,0,0,0,1.22,1.63v-.68L431.24,306a4.17,4.17,0,0,1-.13-1.22,3.56,3.56,0,0,0-.14-1.09c-.27-1.27-.86-1.9-1.77-1.9-1.45,0-2.17.63-2.17,1.9C427,304.73,427.44,305.27,428.25,305.27Zm1.09-43.79a7.51,7.51,0,0,0-.82-3.67l-.27.27-.13.95-.14.41-.27.14a.74.74,0,0,0-.27.54,1.41,1.41,0,0,0,1.08,1.36c.09-.27.23-.41.41-.41S429.16,261.21,429.34,261.48Zm-.82-32.78c.36,2.72,1.14,4.08,2.31,4.08.46,0,.82-.4,1.09-1.22a1.87,1.87,0,0,1-.81.14C430.56,231.7,429.7,230.7,428.52,228.7Zm.14,69.23a1.15,1.15,0,0,0,.95.68c-.45,0,.09-.14,1.63-.41l.41-.14.68.14a1.22,1.22,0,0,0-1.22-1.09h-.28l-1.22.95Zm14.82-42.43a5,5,0,0,0-1.49-.41c-.64,0-1.32.63-2,1.9-.09.37-.28.55-.55.55a5.13,5.13,0,0,0-.4-1.09.75.75,0,0,0-.82-.55c-1.18,0-1.77,1-1.77,3.13a3.81,3.81,0,0,0,.07.68c0,.27.11.64.2,1.09l.14.95c0,.91-.32,1.36-.95,1.36s-.95-.27-.95-.81a3.62,3.62,0,0,1,.4-1.43,3.46,3.46,0,0,0,.41-1.29l-.13-.28-.41-.27v-.54l.54-.95a5.61,5.61,0,0,0,.27-1,2.84,2.84,0,0,0-.13-1.08h-.55l-.54.27-.55-.14a1.56,1.56,0,0,0-.47.14,1.56,1.56,0,0,1-.48.13q-.4,0-.54-.81a1.9,1.9,0,0,0-1.36-1.77h-.95a4.29,4.29,0,0,1,.95,2.18,8.13,8.13,0,0,1-.61,2.31,7.86,7.86,0,0,0-.61,2.58,4.38,4.38,0,0,0,1.56,3.33,5.32,5.32,0,0,0,3.74,1.43q6.12,0,6.12-5.57A4.89,4.89,0,0,1,443.48,255.5Zm-9.25,8q-2.85,0-2.85-2.58a3.55,3.55,0,0,1,.68-1.64v1.5a1.84,1.84,0,0,0,.68,1.22ZM439,268a3.81,3.81,0,0,1,.27-.95c0-.64-.46-1.09-1.36-1.36-.19.45-.37.68-.55.68a1,1,0,0,1-.47-.28,1.07,1.07,0,0,0-.48-.27.38.38,0,0,0-.13.27l-.14.14-.14.27v.14l.28.68-.28.27a.94.94,0,0,1-.2-.27,1.56,1.56,0,0,0-.2-.27l-.14-.55c-.09-.36-.41-.54-.95-.54,0,.36-.14.54-.41.54l-.14-.13-.54-.68c-.18-.18-.32-.28-.41-.28-.81,0-1.22.59-1.22,1.77,0,1,.41,1.5,1.22,1.5h.27l.27-.27a2.64,2.64,0,0,0,.68.47l1,.48c.09.09.36.13.81.13a1.45,1.45,0,0,0,1.63-1.08l.14-.41a.56.56,0,0,1,.41-.14A1.46,1.46,0,0,1,439,268Zm-6.12-15.23c.08-1.09.54-1.64,1.35-1.64s1.23.68,1.23,2a3.38,3.38,0,0,1-.14,1.23,1.6,1.6,0,0,0,1-1.63c0-1.64-.68-2.45-2-2.45s-1.9.45-1.9,1.36A1.57,1.57,0,0,0,432.88,252.78Zm.27-5.17a.36.36,0,0,0-.41.41.24.24,0,0,0,.27.27c.27,0,.41-.09.41-.27S433.33,247.61,433.15,247.61Zm.27,55.89.68,1a5.74,5.74,0,0,1,.68,1.57,3,3,0,0,0-.95-.82c-.46-.27-.68-.45-.68-.54A8.7,8.7,0,0,0,433.42,303.5Zm.13,7.89c.28-.36.55-.7.82-1s.59-.66.95-1A2.86,2.86,0,0,1,433.55,311.39Zm.68-63a.36.36,0,0,0-.4.41c.18.18.31.27.4.27.28,0,.41-.09.41-.27A.36.36,0,0,0,434.23,248.42Zm2.59,15.51a3.75,3.75,0,0,1-1.9.41,1.18,1.18,0,0,1-.82-.41,1.89,1.89,0,0,1,.82-.14A6.84,6.84,0,0,1,436.82,263.93Zm-2.18-16.87a.41.41,0,0,0,0,.82c.36,0,.55-.09.55-.27A.49.49,0,0,0,434.64,247.06Zm4.49,47.6q-1.36-4.76-2.17-9.11c-.55-2.9-1-5.75-1.36-8.57l-.82.14a105.15,105.15,0,0,0,3.67,17.27Zm-3.94-49.09c-.19.18-.27.32-.27.41,0,.27.08.4.27.4s.22-.09.41-.27C435.6,245.75,435.46,245.57,435.19,245.57Zm.54,3.53c-.36,0-.54.23-.54.68s.13.55.41.55.54-.23.54-.68S436,249.1,435.73,249.1Zm1.09,5.85c1.18,0,1.77-1.22,1.77-3.67s-.64-3.67-1.91-3.67c-.27,0-.4.13-.4.41a.54.54,0,0,0,.13.4l.82.28c.45.18.68,1,.68,2.31A11.38,11.38,0,0,1,436.82,255Zm0-9.38c-.27,0-.41.23-.41.68a.48.48,0,0,0,.55.54c.45,0,.67-.18.67-.54S437.36,245.57,436.82,245.57Zm.81-26.66a.82.82,0,0,0,0,1.63c.55,0,.82-.22.82-.68C438.45,219.23,438.18,218.91,437.63,218.91Zm1.64,41.21,1.09.68q0,3.54-2.73,3.26l-.54-.13A8.84,8.84,0,0,0,439.27,260.12Zm-2,41.75a3.35,3.35,0,0,1-.14-1.22c.73-.64,1.45-1.32,2.18-2A28.94,28.94,0,0,0,437.23,301.87Zm1.08,11.43c-.81,0-1.22.32-1.22.95,0,.45.36.68,1.09.68s1.22-.27,1.22-.82S439,313.3,438.31,313.3Zm-1.08,3.53,1.63-.13.14-1.09-1,.27-.81-.14a.58.58,0,0,0-.14.41Zm1.9-95.33a.6.6,0,0,0-.68.68c0,.54.32.81.95.81s.82-.18.82-.54C440.22,221.81,439.86,221.5,439.13,221.5Zm.95-3.81q-1.08,0-1.08.54c0,.46.31.68.95.68.45,0,.68-.18.68-.54A.65.65,0,0,0,440.08,217.69Zm-.95,35.49a3.38,3.38,0,0,1,2-1.22.73.73,0,0,1,.82.82c0,.18-.23.5-.68.95a1.21,1.21,0,0,0,1.08-1.23,1.2,1.2,0,0,0-1.35-1.36C440.4,251.14,439.76,251.82,439.13,253.18Zm39,51.55c-.45-.73-.9-1.47-1.36-2.25s-.9-1.6-1.36-2.51l-34.68-75.35-1.49-.54a12.29,12.29,0,0,1,.88,1.36c.14.27.43.95.89,2l33,71.81A12.24,12.24,0,0,0,478.16,304.73Zm-37.94-85.14c-.55,0-.82.32-.82.95a.72.72,0,0,0,.82.82c.72,0,1.09-.23,1.09-.68A1,1,0,0,0,440.22,219.59Zm.14,73a19.46,19.46,0,0,1,2-4.62,25.29,25.29,0,0,1,1.5-2.11c.55-.68,1.09-1.38,1.63-2.11a7.82,7.82,0,0,0,2-4.62,1.06,1.06,0,0,0-.4-1l-.41-.41-.28.27-.54-.13-1.9-.82-2.59-.14-.4-.13h-.41l-.41.54.41.27-.41.41a4.87,4.87,0,0,0-.82,3c0,.55.41,1.09,1.23,1.64q.81.68.81,1.08c0,.55-.4,1-1.22,1.23v.41a2.39,2.39,0,0,0,2-2.45l-.14-.14c-.9-.9-1.36-1.58-1.36-2,0-1.54.73-2.31,2.18-2.31s2.31.82,2.31,2.45a2.65,2.65,0,0,1-.41,1.63l-2.58,4.22Zm1.08-29.51a.79.79,0,0,1,.14.55c0,.36-.23.54-.68.54h-.27c.27.18.41.36.41.54s-.1.41-.28.41h-.13l-.55-.13-.54.27c.45,1.36,1.18,1.95,2.17,1.77h.82a3.78,3.78,0,0,0,1.09-.41l.27-.41-.54-.27a.56.56,0,0,1-.14-.41l1.5-1.22,1.63-1.36-1.63.13h-3.27Zm-.27,48v.14c-.91,0-1.36-.5-1.36-1.5a1.8,1.8,0,0,1,.55.48C440.54,310.46,440.81,310.76,441.17,311.12ZM441,298.34a21.58,21.58,0,0,1,4.82-9.73,30.55,30.55,0,0,1,10-6.59l-1.77-3.4q-6.52,3.94-9.38,7.34T440,296A4.38,4.38,0,0,1,441,298.34Zm2.58,16q2,.42,2,1.5V316a6.13,6.13,0,0,1-1.63-.75,5.21,5.21,0,0,0-2.45-.75l-1.09.27a.54.54,0,0,0,.21.34,4.43,4.43,0,0,0,1.29.61,10.94,10.94,0,0,0,4.62,1.23,9.35,9.35,0,0,0,3.27-.55A26.83,26.83,0,0,0,443.62,314.38Zm-1.77-92.75a1,1,0,0,0-.68,1c0,.37.23.55.68.55.63,0,.95-.23.95-.68S442.48,221.63,441.85,221.63Zm.41-3.4c-.46,0-.68.27-.68.82s.22.81.68.81c.63,0,.95-.27.95-.81S442.89,218.23,442.26,218.23Zm-.68,80.92q5.16-12.51,10.2-12.51,1.5,0,1.5,1.77c0,1-.68,1.49-2,1.49.46.46.82.68,1.09.68a2.68,2.68,0,0,0,2.18-1.36c.18-.18.32-.27.41-.27l.81.14c.46,0,.68-.32.68-.95a.91.91,0,0,0-.4-.82l-.55-.54a.4.4,0,0,1-.14-.28c.82-.54,1.23-1,1.23-1.49,0-.09-.09-.14-.27-.14h-.68l-2.72-.13q-2.6-.14-7.21,5.3A21.65,21.65,0,0,0,441.58,299.15Zm.68-37.81-.27.82.54.14.68-.68c.09,0,.14.09.14.27l-.14.27a.4.4,0,0,1,.14.27,4.18,4.18,0,0,1,.81-.27c.36-.09.55-.23.55-.41v-.41l-.55-.54a1.4,1.4,0,0,1,.41-.75,1.34,1.34,0,0,0,.41-.75c0-.18-.05-.27-.14-.27q-2,0-2.31,1.5Zm3.13-36.58a2.24,2.24,0,0,1,1.9-2.18q3.81-.81,3.81-2.31,0-2.58-3.27-2.58a3.44,3.44,0,0,0-2.44.68l-1.09,1.22-1.63.82a.56.56,0,0,0-.14.41c0,.18.23.27.68.27a2,2,0,0,0,1.63-.82l1.23-1.49c.09-.37.63-.55,1.63-.55H448c1.27-.18,1.91.41,1.91,1.77v.27c-.19.82-.55,1.23-1.09,1.23h-1.63a2.15,2.15,0,0,0-1.57.81,2.36,2.36,0,0,0-.75,1.5A1.47,1.47,0,0,0,445.39,224.76Zm-2.45,78.88a3.34,3.34,0,0,1,.41,1.09l.27.81a.8.8,0,0,1-.14,1,4.33,4.33,0,0,1-.27-1C443.12,305,443,304.37,442.94,303.64Zm.81,8.16a10.6,10.6,0,0,1,3-.54,6.45,6.45,0,0,1,.75.06l1.15.21-1,.27c-.32.09-.7.23-1.16.41A13.32,13.32,0,0,1,443.75,311.8Zm1.09-5.58.82-1.63-.27-3c0-1,.31-1.5.95-1.5a.48.48,0,0,1,.54.55,4.52,4.52,0,0,1-.27.88,3.76,3.76,0,0,0-.27,1.16c0,1.36.63,2,1.9,2a.36.36,0,0,0,.41-.41.43.43,0,0,0-.13-.27l-.82-.95-.14-1.23.68-1.49.14-.41q0-1.77-1.5-1.77a2.12,2.12,0,0,0-1.7,1,3.19,3.19,0,0,0-.74,1.84v.27l.54,2.45Zm-.13-81.46v.41c0,2.08,1,3.13,3,3.13h.54l.14.68a3.63,3.63,0,0,0,3.54-3.27c.08-1.36.45-2,1.08-2a.49.49,0,0,1,.55.55,2.64,2.64,0,0,1-.95,1.63,10.25,10.25,0,0,1-1.16,3,4.2,4.2,0,0,0-.75,2,4.31,4.31,0,0,0,.41,1.63c.36-.36.63-.54.82-.54.27.18.4.32.4.41l.14,1.22c.18,1.27,1.09,1.9,2.72,1.9,1.36,0,2.13-.4,2.31-1.22v-.41c-.18.09-.47.23-.88.41a2.62,2.62,0,0,1-.89.27c-1.45,0-2.17-.9-2.17-2.72q0-1.22,1.9-5.3a4.6,4.6,0,0,0,.82-2.18,2.41,2.41,0,0,0-2.72-2.72c-1,0-1.95.73-2.86,2.18q-1.77,3-3.13,3C446.84,226.8,445.88,226.12,444.71,224.76Zm6.93,83.5a31.7,31.7,0,0,1-1.49-6.8,7.12,7.12,0,0,1,.13-1.76l.82-4.08.13-.82a9.58,9.58,0,0,0-.54-3l-.95.41-1.36-1h-1.09l-.41.82a5.63,5.63,0,0,1-1.09,1.09,2.25,2.25,0,0,0-1,1.63,1.41,1.41,0,0,0,1.09,1.36q.4-2,1.77-2,2,0,1.9,4.62l-.13,2.32a14.89,14.89,0,0,0,2,6.93Zm-3.53-22.84a7,7,0,0,1,1.49-2.32,14.22,14.22,0,0,1,1.23-.88,5,5,0,0,0,.81-.61,3.85,3.85,0,0,1,2.18-1.23c.18,0,.27.05.27.14,0,.27-.45.59-1.36,1a15.81,15.81,0,0,0-2.85,2c-.1.09-.28.3-.55.61S448.65,284.87,448.11,285.42Zm2.72-59.3a1.3,1.3,0,0,0,.81,1.22,10.28,10.28,0,0,1-2.31.55l.82-.82A3.9,3.9,0,0,0,450.83,226.12Zm-.68,6.94q1.91,17.4,15,17.4a22,22,0,0,0,6-1.22l-.13-.82q-5.44,1.1-6.13,1.09a9,9,0,0,1-3.26-.68.53.53,0,0,1-.41-.54.44.44,0,0,0,.28-.14l1.08-.68c.27-.09.41-.36.41-.81l-.27-1.09-.14-.41a2.66,2.66,0,0,1-2.72,2q-6.8,0-8.7-13.74Zm28.42,80.51a34.44,34.44,0,0,1-11.15,2.31A15.47,15.47,0,0,1,456.61,312a12.84,12.84,0,0,1-4.29-10,8.19,8.19,0,0,1,4.08-7.07l-.54-.14a4.67,4.67,0,0,1-1.23.82l-.81.68-.41.27.27-.68.95-1.09-.81.41-.82.88q-.67.75-.81.75c0-.45.36-1,1.09-1.7a3.19,3.19,0,0,1,2.17-1,2.53,2.53,0,0,1,2.86,2.45c.18,1.27.49,1.9.95,1.9.18,0,.43-.16.75-.47s.56-.48.74-.48.23.23.41.68a2.1,2.1,0,0,0,1.5,1.63,5.21,5.21,0,0,1,.54-.88,3.82,3.82,0,0,0,.41-.61c1.27-1.54,1.91-2.72,1.91-3.54a2.72,2.72,0,0,0-1-2.18.53.53,0,0,1-.4-.54.89.89,0,0,1,.27-.68l.54-.68.14-1.22h-3.67c-1.91-.18-3.31.18-4.22,1.08q4.48.42,4.49,2c0,.19-.09.28-.27.28a4.07,4.07,0,0,1-1.77-1.09,1.72,1.72,0,0,0-1.77-.55,4.87,4.87,0,0,0-3.4,1.23h1.22a1.08,1.08,0,0,1,.68-.14c.36,0,.55.09.55.27s-.23.41-.68.41l-.82-.13c-1.27,0-2.36.84-3.26,2.51a12.85,12.85,0,0,0-1.36,6.19,14,14,0,0,0,4.69,11.08q4.69,4.15,12.85,4.15a28.24,28.24,0,0,0,10.07-2.31Zm-26.52-79c0,3.36.77,5,2.31,5q1.23,0,1.23-1.08a.79.79,0,0,0-.14-.55c-.45.55-.77.82-.95.82Q452.6,238.77,452.05,234.55Zm1.36-6.12c.09-1.09.36-1.63.82-1.63.09,0,.13.09.13.27,0,.55-.59,1.82-1.76,3.81v-.82A3.34,3.34,0,0,1,453.41,228.43Zm1.09-4.49c-.18-.09-.05-.36.41-.81l-2.18-.27a2.84,2.84,0,0,1,1.09-.14C454.09,222.72,454.32,223.13,454.5,223.94Zm8.16,90.17a10.82,10.82,0,0,1-2.18-1.09q-4.89-2.58-4.89-6.52,0-3,2.58-3c1.09,0,1.63.59,1.63,1.77v.41a2.56,2.56,0,0,0,1.23-1.9c0-1.27-.46-1.91-1.36-1.91l-1.09.14h-.68c-.18,0-.27-.23-.27-.68v-.14c0-.54-.14-.81-.41-.81-.46,0-1.18.63-2.18,1.9a4.34,4.34,0,0,0-1,3.13Q454.09,311.93,462.66,314.11Zm-5.17-90.57.27-1.09c0-1.54-.72-2.27-2.17-2.18h-.14a3.15,3.15,0,0,0-.68.41q2,1.5,2,2l-.14.41Zm1.5-5.31h-.28a5.75,5.75,0,0,1-2.31-.41.54.54,0,0,0-.4-.13c-.1,0-.14,0-.14.13,0,.55.36.82,1.09.82A12.68,12.68,0,0,0,459,218.23Zm3.53,18.23a8.57,8.57,0,0,0-3.53-1c-1.27,0-2.13.78-2.59,2.32l-.27,1.36c0,.45.18.68.54.68a1.71,1.71,0,0,0,.62-.14,1.66,1.66,0,0,1,.61-.14c.45,0,.68.14.68.41,0,.09-.45.27-1.36.55a1.88,1.88,0,0,0-1.36,2,2.16,2.16,0,0,0,.14.95h3.12a4.13,4.13,0,0,0,1.23-.14,8,8,0,0,0,.54,1,.56.56,0,0,0,.41-.13l.68-.82,1.36-1.22a4.46,4.46,0,0,0,.68-2.59l-.82.28v-.14a2.4,2.4,0,0,1,.41-.95v-.55l-.95,1c-.91.9-1.63,1.36-2.18,1.36-.18,0-.27-.09-.27-.28a.78.78,0,0,1,.27-.54l1-.41,1.49-1.22a1.49,1.49,0,0,0,.54-1l-.13-.41-.68.68a1.58,1.58,0,0,1-1.09.54c-.27,0-.41-.09-.41-.27C461.16,237.23,461.62,236.82,462.52,236.46Zm-2.31,79.83a12.33,12.33,0,0,0-1.7-.61l-1.29-.34H457c-.73-.18-1.09,0-1.09.68,0,.45.14.68.41.68l.13-.14,1-.54c.08-.09.31-.14.68-.14A9.59,9.59,0,0,1,460.21,316.29Zm-1.9-79.83a2,2,0,0,0-.34.61,9.12,9.12,0,0,1-.75,1.29,2.33,2.33,0,0,1-.14-1C457.08,237.05,457.49,236.73,458.31,236.46Zm22.3-14.83a20.43,20.43,0,0,0-12.1-4.21q-7.08,0-10.88,2.85l.54.55a20.8,20.8,0,0,1,9.93-2.45q6,0,12.51,4.49Zm-11.83,11.83a3.51,3.51,0,0,0,1.77-3.4,3.29,3.29,0,0,0-.82-2.44l-1.22-1a6.73,6.73,0,0,1-.68-.81,14.69,14.69,0,0,0-1.09-1.23l-.82.55-.27.54c-.18.27-.32.41-.41.41s-.27-.11-.54-.34a6.23,6.23,0,0,0-2.45-.61,4.62,4.62,0,0,1-3.13-1.91,5,5,0,0,0-.95,2.86,5.37,5.37,0,0,0,1.09,3.26c.18.19.27.32.27.41-.18.18-.32.27-.41.27H459a.8.8,0,0,1-.55-.13H458c-.28,0-.41.09-.41.27a5.46,5.46,0,0,0,1.36,3.26q1.9,2.32,3.67,2.32a4,4,0,0,1,.95-.28c-.63-.27-.95-.54-.95-.81a.55.55,0,0,1,.41-.14,3.81,3.81,0,0,0,.95.27l.27-.13a1.61,1.61,0,0,1-.82-1.36.13.13,0,0,1,.14-.14c.45,0,.86.32,1.22.95l.41-.27-.81-.68-.68-1.22-.55-.55-.13-.27c0-.36.13-.54.4-.54s.48.38.89,1.15a3.25,3.25,0,0,0,2.24,1.57.8.8,0,0,1-.13-.55c0-.27.09-.4.27-.4.36,0,.54.31.54,1H468a.56.56,0,0,1-.13-.41c0-.09.09-.23.27-.41C468.46,232.51,468.69,232.83,468.78,233.46Zm18.77,75.76a8.29,8.29,0,0,1-2.86.81,10.36,10.36,0,0,1-1.09-.07c-.45,0-1-.11-1.77-.2a22,22,0,0,0-3.53-.14l-7.75-.13H467a17.47,17.47,0,0,0-1.77.13c-.9.09-1.72.16-2.45.21s-1.35.07-1.9.07a11,11,0,0,1-3.13-.41,2.16,2.16,0,0,0,2.18,1.22h1.9a4.51,4.51,0,0,0,1.09-.13c4.08-.28,6.85-.41,8.3-.41h3.26c.64,0,1.41,0,2.31.13l5,.28a6.44,6.44,0,0,0,1.23.13H485c1.54,0,2.4-.27,2.59-.81l.13-.14Zm-23.94-57a5.15,5.15,0,0,0-1.49,3.81l.13.41.27.68.14.41c0,.09-.05.13-.14.13h-1.36q1.9,3.94,4.63,3.81H467c.27-.09.41,0,.41.14a1.59,1.59,0,0,1-.21.54,1.73,1.73,0,0,0-.2.54c.18.19.32.28.41.28a3.42,3.42,0,0,0,1.09-.41l3.26-2.31q3-2,3-9.12a9.91,9.91,0,0,0-.47-2.78,9.72,9.72,0,0,1-.48-2q0-.54.27-.54c.36,0,.64.41.82,1.22l.41,2a11.89,11.89,0,0,1,.27,2.18,15.71,15.71,0,0,1-.68,4.9l-1.09,2.44-.14.82-.27.54c0,.28.09.41.27.41l.41.14.41.81c.09.37.45.55,1.09.55.36,0,.54-.14.54-.41a.56.56,0,0,0-.13-.41l-.55-.41a1.56,1.56,0,0,1-.27-1.08,4,4,0,0,1,.54-2,18.78,18.78,0,0,0-2.85-19.86c-2.09-2.18-3.81-3.26-5.17-3.26-2.17,0-3.26,1.08-3.26,3.26,0,1.18.9,2.68,2.72,4.49q6,5.72,6,10.2a8.09,8.09,0,0,1-1.63,5.1,5,5,0,0,1-4.08,2.11c-2.54,0-3.81-1.05-3.81-3.13,0-1.81.73-2.72,2.18-2.72h.13c-.27,0,0,.09.68.27h.55c.09,0,.13,0,.13-.14,0-.72-.54-1.08-1.63-1.08a1.46,1.46,0,0,0-.82.13l-.4.41-.27.27c-.1-.27-.19-.52-.28-.75S463.7,252.41,463.61,252.23Zm2.72-32.77q-4.89.27-4.89,2.58,0,1.5,1.35,1.5a2.22,2.22,0,0,0,1.64-1.09h-.27c-.64,0-1-.27-1-.82C463.2,220.91,464.24,220.18,466.33,219.46Zm5.3,44.47-1.35-.27c-.73,0-1.23.45-1.5,1.36q-.13.54-.27.54c-.19,0-.28-.09-.28-.27l.14-.41c0-.18-.05-.27-.14-.27-.54,0-.81.41-.81,1.22a3.83,3.83,0,0,0,.47,1.63,3.7,3.7,0,0,1,.48,1.36c0,1.09-.63,1.64-1.9,1.64s-1.77-.68-1.77-2a6,6,0,0,1,.47-2,5.85,5.85,0,0,0,.48-1.64,1.84,1.84,0,0,0-.88-1.36,2.72,2.72,0,0,0-1.57-.68,3,3,0,0,0-1.76,1.09,3.15,3.15,0,0,1,1.22-.41,1.56,1.56,0,0,1,1.77,1.77l-.14.55-.41,1.49a1.84,1.84,0,0,0-.13.95c0,2.18.9,3.27,2.72,3.27a5.11,5.11,0,0,0,3-1.5.56.56,0,0,1,.41.14,3.85,3.85,0,0,0,.68-1.5.78.78,0,0,0-.14-.54l-.54-.82a3.94,3.94,0,0,1-.27-1.09C469.6,264.93,470.28,264.2,471.63,263.93Zm-9.51,31,.13-.14a.4.4,0,0,1,.14-.27,4.84,4.84,0,0,1,.68,1.15,3.81,3.81,0,0,1,.4,1.16c-.27-.09-.68-.63-1.22-1.63a4.39,4.39,0,0,1-.68-1.36c0-.27.05-.41.14-.41.63,0,1,.54,1,1.63,0,.46-.09.41-.27-.13C462.2,294.76,462.12,294.76,462.12,294.94Zm1.63-52.09a1.47,1.47,0,0,0-.55,1,2,2,0,0,0,1.09,1.77H465l.55-.27,1.63,1.22a4.58,4.58,0,0,0,.54-2v-.41a9.48,9.48,0,0,1-1.36-1.36V243c0,.55-.18.82-.54.82.18,0-.05-.68-.68-2a3.64,3.64,0,0,0-.41-.68.81.81,0,0,0-.41.68v.14l.14.68v.13a.81.81,0,0,1-.14.55,1.24,1.24,0,0,0-.27-.21A.94.94,0,0,1,463.75,242.85Zm.27,52.63a1.41,1.41,0,0,1-.14-.82,5.86,5.86,0,0,0-.13-1.36,1.59,1.59,0,0,1,.54,1.09Zm.68-21.08,1.22,2.31,1.77-.13a21.65,21.65,0,0,0,4.76-.68,5.1,5.1,0,0,0,2.18-2l-.55-.14h-.41c-.27,0-.4-.09-.4-.27s.09-.23.27-.41l.41-.27a5.34,5.34,0,0,0,2-2.45.79.79,0,0,0,.13-.54c0-.09-.13-.14-.41-.14l-.95.14c-.09,0-.13,0-.13-.14v-.41c.09-.45.15-.81.2-1.09a3.72,3.72,0,0,0,.07-.68c0-1.81-.77-2.81-2.31-3h-.28a1.87,1.87,0,0,0-.81.14,3.09,3.09,0,0,1,1.63,2.58Q473.13,272,464.7,274.4Zm4.9,40.26c-2.09-.18-3.13-.73-3.13-1.64s.49-1.4,1.49-1.22h.82a5.62,5.62,0,0,0-1.9-.41q-1.77,0-1.77,1.23,0,2.31,3.12,2.31a2,2,0,0,0,.55-.07Zm.81-77.12a8.74,8.74,0,0,0-3-.68,4.78,4.78,0,0,0-1.9.41c.36-1.18,1-1.77,1.9-1.77S469.41,236.18,470.41,237.54Zm-4.21,40,.95,2.45a9.59,9.59,0,0,1,5.37,2.65,6.37,6.37,0,0,1,2.11,4.55,4.12,4.12,0,0,1-2,3.81,2.78,2.78,0,0,0,1.08.14c1.64,0,2.54-.91,2.72-2.72,0-.55.09-.82.28-.82a2.39,2.39,0,0,1,.68.34,1.75,1.75,0,0,0,.81.34.48.48,0,0,0,.55-.54l-.14-.55-.41-1.9c-.54-2.18-1.68-3.31-3.4-3.4a.81.81,0,0,1,.55-.14q2.31-.27,2.31-.54a.94.94,0,0,1-.2-.27,1.24,1.24,0,0,0-.21-.27l-.82-1.09c-1.35-1.63-3.62-2.45-6.79-2.45A19.8,19.8,0,0,0,466.2,277.53ZM468.64,223a1.88,1.88,0,0,1-.68-1.22c0-1.27.82-1.91,2.45-1.91.45,0,1,0,1.63.07s1.32.12,2,.21a11.65,11.65,0,0,0-4.08-1c-2.26,0-3.4.78-3.4,2.32,0,1,.36,1.49,1.09,1.49Zm1.23,6.94a7.78,7.78,0,0,1-2.45-2.31,15.27,15.27,0,0,1,1.63.95A1.58,1.58,0,0,1,469.87,229.93ZM473.4,245l-1.63-1.9-1.36-2.18-1.22-1.63-.82-1.49A18.16,18.16,0,0,1,473.4,245ZM472,274.13l-.81,1.22-2.31-.41A9.47,9.47,0,0,0,472,274.13Zm1.5-37.81a8.68,8.68,0,0,1,1.22.27,4.6,4.6,0,0,0,2-.81c.91-.55,1.36-1,1.36-1.36,0-.09-.13-.23-.41-.41s-.4-.32-.4-.41.09-.23.27-.41l1.09-.41c.54-.18,1-1,1.49-2.58-1.45-.45-2.4-.77-2.85-.95a3.15,3.15,0,0,0-1-.27,3,3,0,0,0-.95.13h-.13c-.09,0-.18-.13-.27-.41V228a4.24,4.24,0,0,0-1.23-.13,3,3,0,0,0-2.31,1.49l.27.28a1.65,1.65,0,0,0-.41.68.94.94,0,0,0,.27.2,1.22,1.22,0,0,1,.28.2,3.82,3.82,0,0,0-.68.82l.4-.14a.79.79,0,0,1,.68.41c0,.27-.36.41-1.08.41l-.41.41h.81l.68-.14h.14c.18,0,.27.05.27.14,0,.54-.54.81-1.63.81l-.68-.13-.27.27a1.81,1.81,0,0,0,1.09.41,4.13,4.13,0,0,0,2-.68,4.74,4.74,0,0,1,1.43-.68.24.24,0,0,1,.27.27.56.56,0,0,1-.14.41l-.81.41-1.23.68-1.36.13.27.41,1.5-.2c.27,0,.27-.07,0-.07.27,0,.41,0,.41.13,0,.46-.32.73-1,.82l.13.27a.56.56,0,0,1,.41-.13C473.31,235.78,473.45,236,473.54,236.32Zm-2,77.79A7.69,7.69,0,0,1,473,314h1.08a8.85,8.85,0,0,0,4.63-1.64,1.1,1.1,0,0,0,.41-.68.25.25,0,0,0-.28-.27l-.68.14-3.4,1.09-.54.13a5.67,5.67,0,0,1-3.13-1.49l-.41.81.14.14.27.54.54.55Zm.41-51.54-.82-.27h-.27c0,.27.18.4.54.4A.82.82,0,0,0,471.91,262.57Zm1.9,17.27a10.91,10.91,0,0,1-1.29-.61,10.91,10.91,0,0,0-1.29-.61,7.25,7.25,0,0,0,1.22-.28c1.09,0,1.63.1,1.63.28l-.27.54A.49.49,0,0,0,473.81,279.84Zm-1.36-19a.48.48,0,0,0-.54.54c.18.19.31.28.4.28a.36.36,0,0,0,.41-.41C472.72,260.94,472.63,260.8,472.45,260.8Zm3-36-.13-.68c-1.09-.82-1.64-1.45-1.64-1.9,0-.28.23-.55.69-.82-1.09,0-1.64.32-1.64.95a1.81,1.81,0,0,0,.55,1.36ZM474,262l-.68.28c-.19.18-.27.31-.27.4s.08.28.27.28.27-.05.27-.14Zm.27,14c1,.18,1.92.37,2.79.55l2.65.54.27.82v.54l1.77.95.68,1.09a1.81,1.81,0,0,0,.41-1.09,1.41,1.41,0,0,0-1-1.36c-.68-.27-1-.68-1-1.22a.48.48,0,0,1,.54-.55l.95-.13q1,0,1-1.77a3,3,0,0,0-1.09-1.77v.27c.18,1.36-.46,2.09-1.91,2.18-.18,0-.27.05-.27.14l-.14.4-.13.41h-1.22l-2.32-.41H475Zm2.17-41.34a1.3,1.3,0,0,0-.13.95.4.4,0,0,0-.27.14h-1.5a8.89,8.89,0,0,0,.95-.55A8.93,8.93,0,0,1,476.39,234.69Zm-.68,3a1.93,1.93,0,0,1,.68,1.36v.14c-.27,0-.72-.46-1.35-1.36h-.41c.81,1.54,1.49,2.76,2,3.67l.54.13h.54c.55,0,.82-.13.82-.4a3.33,3.33,0,0,0-.54-1.36l-.41-1.09-.14-.14v-.27a5.25,5.25,0,0,1,1-.54l-1.09-1.09A15.38,15.38,0,0,0,475.71,237.68Zm-.27,35.77q10.33-8.29,10.34-16.19a5.8,5.8,0,0,0-.55-2.85l-1-1.36a6.91,6.91,0,0,1-.34-1.09c-.13-.54-.25-.82-.34-.82-.36,0-.77.64-1.22,1.91l-.14.41v.13l.28.55-.41.13-1.09-.13h-.27a2.51,2.51,0,0,0-2.11.88,2.89,2.89,0,0,0-1,2,1.83,1.83,0,0,0,.68,1.09c0-1.27.68-1.9,2-1.9,1.9,0,2.86,1.18,2.86,3.53q0,5.44-8,13.06Zm-.13,4.08.81,1a20.19,20.19,0,0,1,3.61,1.7,28,28,0,0,1,3.19,2.24l3,2.45a4,4,0,0,0,1.36.68,1.89,1.89,0,0,0,.81-.13l-.13-1a3.69,3.69,0,0,0,.67-1.49,2.3,2.3,0,0,0-.81-1.5v.27c0,1.09-.46,1.64-1.36,1.64a4.67,4.67,0,0,1-2.58-1.09l-2.72-2A24,24,0,0,0,475.31,277.53Zm.27-3.54q5.58-1.77,9.52-9.38,2-3.67,3.53-3.67-.27-1.23-1.08-1.23c-.73,0-1.27.55-1.63,1.63A30,30,0,0,1,475.58,274Zm4.49-48.41-.28-1a4.63,4.63,0,0,0-2.17-1.08,1,1,0,0,0-1.09,1.08c0,.28.23.64.68,1.09v-.41a.48.48,0,0,1,.54-.54,4.18,4.18,0,0,1,1.16.34C479.5,225.33,479.88,225.49,480.07,225.58Zm-1.77,63.64a1.33,1.33,0,0,0-1.09.82h.14C477.8,290,478.12,289.77,478.3,289.22Zm-.68,1.91a1.13,1.13,0,0,0-.41.68c0,.27.23.5.68.68H478a.94.94,0,0,0,.68-.27C478.71,291.94,478.34,291.58,477.62,291.13Zm1.22-48.55c-1,.18-1.49.4-1.49.68l.27,1.08Zm7.35,64.19a24,24,0,0,0,2.31-10.07,18.9,18.9,0,0,0-2.92-10.13,16.83,16.83,0,0,0-7.55-6.73c.63.64,1,1.09,1,1.36l.14.54c0,.46.38.89,1.15,1.3a7.15,7.15,0,0,1,1.43.88c.45.54.86,1,1.22,1.5a13,13,0,0,1,1,1.36,14.64,14.64,0,0,1,2,7.88,8.74,8.74,0,0,1-1.43,4.9c-.95,1.45-2,2.18-3.2,2.18a2.41,2.41,0,0,1-2.58-1.77v-.41a2.22,2.22,0,0,1,1-1.63L481,297a1.35,1.35,0,0,0,.68-1.23c.18-1-.27-1.49-1.36-1.49.09,0-.14.09-.68.27a1.09,1.09,0,0,1,.54.81,1.57,1.57,0,0,1-.95,1.36,3.45,3.45,0,0,0-1.9,2.86,3,3,0,0,0,.61,2,4.6,4.6,0,0,0,1.36,1.16,7.81,7.81,0,0,0,1.84.68l-.14.54q0,.27.54.27h1.64a2.78,2.78,0,0,0,2.85-2.85c0-.91.23-1.36.68-1.36.27,0,.41.27.41.81a2,2,0,0,1-.41,1.23l-1.5,2.45L484,306.22Zm-8.84-24.35q4.48,3.94,4.48,5.72a3.59,3.59,0,0,1-.54,1.76,1.74,1.74,0,0,0,1.23-1.63c0-1.9-1.5-3.9-4.49-6Zm8.16-29.51.13.41a10.84,10.84,0,0,0,.68-2.72q0-4.48-4.08-4.49c-2.26,0-3.4,1.09-3.4,3.27a2.75,2.75,0,0,0,1.63,2.31,3.48,3.48,0,0,1-.54-1.63c0-1.91,1-2.86,3-2.86s2.86,1.18,2.86,3.54a7,7,0,0,1-.07.95C485.66,252.05,485.6,252.46,485.51,252.91ZM479,290.31v.14c0,.72.18,1.09.54,1.09.55,0,1-.41,1.23-1.23Zm.68-49.23a13.92,13.92,0,0,0,1.22-5,12.08,12.08,0,0,0-.54-3.54l-.95,1.23c.09.54.15,1,.2,1.49a12.52,12.52,0,0,1,.07,1.36,7.21,7.21,0,0,1-.54,3.13Zm.13,51.27c-.45,0-.67.18-.67.55a.78.78,0,0,0,.54.27c.36,0,.54-.14.54-.41A.36.36,0,0,0,479.79,292.35Zm.82,19.18a4.08,4.08,0,0,0-1.49,2.58,1.71,1.71,0,0,0,.81,1.5,5.08,5.08,0,0,1,.41-1.23l.54-1.08Zm-.41-91.26a4.82,4.82,0,0,1-.13-1.36,4.17,4.17,0,0,1,.13-1.22c-.54.45-.81.81-.81,1.09A2.26,2.26,0,0,0,480.2,220.27Zm.27,67.59q-.81,0-.81,1c0,.63.13.95.41.95.72,0,1.09-.45,1.09-1.36C481.16,288.05,480.93,287.86,480.47,287.86Zm6.26-31.14q2-7.07,1.9-10.61l-.13-5.85q0-5.43-2.18-7.07l-.68-.41a.78.78,0,0,1-.27-.54.24.24,0,0,1,.27-.27,1.61,1.61,0,0,1,.41.27l.27.27.82.82.68,1.09a8.5,8.5,0,0,0-2.24-4.56c-1.05-1-1.57-1.52-1.57-1.7s.09-.14.27-.14c-.27,0,.36.5,1.91,1.5l-.68-1.5-1.09-1.9a8.64,8.64,0,0,1-.68-3.4q0-3.94,2.58-3.94,1.23,0,1.23,1.08a2.74,2.74,0,0,1-.82,1.36,2.76,2.76,0,0,0-.81,1.64c0,1.18.72,1.9,2.17,2.17a4.3,4.3,0,0,1-.95-2.31,11,11,0,0,1,.68-2,2,2,0,0,0,.41-1.22c0-1.09-.73-1.64-2.18-1.64a2.25,2.25,0,0,0-1.77.62c-.36.4-.68.79-.95,1.15h-.54c-.82.18-1.23,1-1.23,2.59a2.28,2.28,0,0,0,.82,2l.68.54a.56.56,0,0,1,.14.41.4.4,0,0,1-.14.27,3.64,3.64,0,0,1-.68-.48,1.69,1.69,0,0,0-1.09-.34h-.41l.28,1.09.13,1.5a1.77,1.77,0,0,0,.95,1.63l1.09.68c.27.18.41.36.41.54a.53.53,0,0,1-.41.14h-.68c-.09,0-.13.09-.13.27a3.51,3.51,0,0,0,2,3,7.15,7.15,0,0,1,2.73,3.54,3.81,3.81,0,0,0,.27.95c0,.37-.09.55-.27.55s-.55-.46-.82-1.36q-1.23-3.4-3.4-3.4A1.59,1.59,0,0,0,482,234a1.45,1.45,0,0,0,.95,1.29q1,.48,1,.75c-1.28.54-1.91,1.09-1.91,1.63a3.21,3.21,0,0,0,.82,1.09,1.21,1.21,0,0,1,1.09-.82q3.53,0,3.53,8.43a28.47,28.47,0,0,1-1.22,8.16,3.61,3.61,0,0,1,.34,1.09A8,8,0,0,0,486.73,256.72ZM481.83,291c-.54.18-.81.46-.81.82l.14.13a.35.35,0,0,0,.27.14h.13c.55,0,.82-.18.82-.54A.48.48,0,0,0,481.83,291Zm5.72,23.67q-2.87,0-3.27-3l-2.45.14.14,1.09c.18.45.32.68.41.68h.41c.18-.18.36-.05.54.41.91,1.08,1.72,1.63,2.45,1.63A2.69,2.69,0,0,0,487.55,314.66Zm.13-41.76-.54.55.54.95.14.54c0,1.55-1.22,2.32-3.67,2.32l-.55-.14a2.78,2.78,0,0,0-1.08-.14.25.25,0,0,0-.28.28c0,.45.59.68,1.77.68a6.79,6.79,0,0,0,3-.82c1.09-.54,1.63-1.22,1.63-2l-.13-.41Zm-2.31-1.63c-.73,0-1.09.41-1.09,1.23,0,.63.27.95.82.95.72,0,1.09-.32,1.09-.95C486.19,271.68,485.92,271.27,485.37,271.27Zm.14-2.31a.72.72,0,0,0-.82.82c0,.36.27.54.82.54s.81-.18.81-.54A.72.72,0,0,0,485.51,269Zm.27-2.31a.6.6,0,0,0-.68.68q0,.81.54.81a.72.72,0,0,0,.82-.81A.6.6,0,0,0,485.78,266.65Zm1-2c-.36,0-.54.23-.54.68a.36.36,0,0,0,.41.41c.27,0,.4-.18.4-.55A.78.78,0,0,0,486.73,264.61Zm.82,5.44a.72.72,0,0,0-.82.81c0,.37.23.55.68.55a.6.6,0,0,0,.68-.68C488.09,270.28,487.91,270.05,487.55,270.05Zm.13-29c.36.82.41,1.22.14,1.22a.94.94,0,0,1-.2-.27,1.24,1.24,0,0,0-.21-.27c.18.54.27.32.27-.68,0,.27-.09.41-.27.41s-.32-.18-.41-.55-.18-.63,0-.81C487.46,239.86,487.68,240.17,487.68,241.08Zm-.4,53.45c.08.72.22,1.54.4,2.45v.54c.09.82-.18,1.22-.81,1.22.45,0,.68-.18.68-.54-.55-.82-.73-1.4-.55-1.77A8.07,8.07,0,0,0,487.28,294.53Zm.4-28.43c-.45,0-.68.28-.68.82,0,.27.18.41.55.41a.48.48,0,0,0,.54-.55A.8.8,0,0,0,487.68,266.1Zm0,2c-.45,0-.68.19-.68.55s.18.41.55.41.68-.14.68-.41A.49.49,0,0,0,487.68,268.14Z" transform="translate(-383.92 -213.2)"/></svg>