<svg id="Livello_1" data-name="Livello 1" xmlns="http://www.w3.org/2000/svg" viewBox="0 0 109.8 109.8"><defs><style>.cls-1,.cls-6{fill:#7c1917;}.cls-2{fill:none;stroke:#918133;}.cls-2,.cls-6,.cls-8{stroke-miterlimit:10;}.cls-3,.cls-8{fill:#253262;}.cls-4{fill:#2b4934;}.cls-5{fill:#918133;}.cls-6{stroke:#7c1918;}.cls-7{fill:#528257;}.cls-8{stroke:#918132;}</style></defs><title>AA</title><rect class="cls-1" x="3.41" y="3.43" width="102.49" height="102.3"/><rect class="cls-2" x="0.5" y="0.5" width="108.8" height="108.8"/><rect class="cls-2" x="2.13" y="2.13" width="105.54" height="105.54"/><rect class="cls-2" x="3.76" y="3.9" width="102.14" height="102.14"/><path class="cls-3" d="M337.17,338.68c.63-.28.95-.64.95-1.09,0-1.45-.95-2.18-2.86-2.18a1.39,1.39,0,0,0-.81.14l-.55.27h-.13c-.27,0-.41-.18-.41-.54v-.55c-1.54.19-2.36.59-2.45,1.23l-.54,1.36a3.64,3.64,0,0,0-.55.74,4.86,4.86,0,0,1-.81,1,4.42,4.42,0,0,1-.95,1.91.82.82,0,0,1-.55.27c-.27,0-.41-.18-.41-.54a2.48,2.48,0,0,1,.41-1l.82-1.36,1.49-1.76a5.58,5.58,0,0,0,.68-3,4.94,4.94,0,0,0-.06-.68q-.07-.4-.21-1.08c-.45.45-.77.68-1,.68a3.15,3.15,0,0,1-.41-.68,3,3,0,0,0-3-2c-1.9,0-2.86,1-2.86,3a2.41,2.41,0,0,0,.55,1.77l.68,1.08a1.49,1.49,0,0,1,.13.82,1,1,0,0,1-.68.95c.09.27.23.41.41.41.73,0,1.18-.5,1.36-1.5V336a3,3,0,0,0-.68-1.5,3.11,3.11,0,0,1-.68-1.77,1.57,1.57,0,0,1,1.77-1.77c1.27,0,1.9.87,1.9,2.59a9.91,9.91,0,0,1-1.49,3.94c-1.27,2.09-1.91,3.67-1.91,4.76,0,1.82.77,2.72,2.32,2.72,1.36,0,2.49-.86,3.4-2.58q3.12-5.18,5.16-5.17A2.12,2.12,0,0,1,337.17,338.68Z" transform="translate(-317.76 -324.98)"/><path class="cls-4" d="M324.11,347.24c-.36,2-.63,3.74-.81,5.24a32.24,32.24,0,0,0-.28,4,29,29,0,0,0,1.36,7.89,13.25,13.25,0,0,1,.82,4.08V369c-1.27,0-1.81.23-1.63.68v.41a1.17,1.17,0,0,1,.81-.41,2.32,2.32,0,0,1,1.09.41l.95-.54.14-.55a24.19,24.19,0,0,0-1.9-7.48l-.14-9.65,1-4.22Z" transform="translate(-317.76 -324.98)"/><path class="cls-5" d="M331.32,375.8a8.44,8.44,0,0,0,.95-3.8c0-1.82-.86-2.72-2.58-2.72a5.5,5.5,0,0,0-4.63,2.85,12,12,0,0,0-1.9,6.8,10.22,10.22,0,0,0,1.9,6l.55-.41a9,9,0,0,1-2-5.71,11.24,11.24,0,0,1,1.77-6.26c1.17-1.81,2.58-2.72,4.21-2.72a1.8,1.8,0,0,1,2,2,18.67,18.67,0,0,1-.68,3.94Z" transform="translate(-317.76 -324.98)"/><path class="cls-2" d="M323.7,392.94a1.85,1.85,0,0,0-.54,1.36c0,1.18.72,1.77,2.18,1.77l1.08-.14v-.27c-1.81-.18-2.72-.54-2.72-1.09l.28-1.09Z" transform="translate(-317.76 -324.98)"/><path class="cls-4" d="M330.78,396.07l-1.36-.68a11.63,11.63,0,0,0-3,3.26c-.63,1.45-1.49,2.18-2.58,2.18h-.41v.81l.41.14.41-.27.54.41-.81,2.31-.68,4.89.27,3.81.41-.13c.18,0,.49.95.95,2.85a4.67,4.67,0,0,0,.41,1.09c.18.36.36.77.54,1.22a1.49,1.49,0,0,1,.95-.54H327l.81.27,1.36-.13h.55v-.68a1.18,1.18,0,0,0-.27-1.16c-.28-.22-.55-.43-.82-.61v-.27a.36.36,0,0,1,.41-.41l.54.13c.09-.54.05-.9-.13-1.08l-.82-.82.14-.27-.68-.14L327,411l-1.09-4.22a1.39,1.39,0,0,1-.14-.81C325.74,403,327.42,399.7,330.78,396.07Z" transform="translate(-317.76 -324.98)"/><path class="cls-6" d="M349.54,421.09c-.63.64-2,1-3.94,1-.54,0-1.29,0-2.24-.06l-3-.14-3-.14c-.95,0-1.7-.06-2.24-.06h-1.77a5.62,5.62,0,0,0-1.5.13l-4.35.41h-1.36a8.56,8.56,0,0,1-1-.07c-.41,0-.93-.11-1.56-.2.45.73,1.45,1.09,3,1.09h1.63l1.77-.28a4.33,4.33,0,0,1,1.36-.13h1.22a6.9,6.9,0,0,0,1.36-.14H338l4.22.41,3,.14,1.5-.14,1.9-.27c.91-.09,1.36-.41,1.36-.95C350,421.46,349.82,421.27,349.54,421.09Z" transform="translate(-317.76 -324.98)"/><path class="cls-4" d="M324,344.52a1,1,0,0,0-.14.68c0,.91.82,1.36,2.45,1.36.36,0,.54-.13.54-.4a5.48,5.48,0,0,0-1.63-.82A2.07,2.07,0,0,1,324,344.52Z" transform="translate(-317.76 -324.98)"/><path class="cls-4" d="M324.38,408.31c.18.45.43,1.07.75,1.83s.66,1.66,1,2.66a5.83,5.83,0,0,1,1.23,1.49q-3.13-3.94-3.13-4.62Z" transform="translate(-317.76 -324.98)"/><path class="cls-4" d="M326.56,424.22a8.4,8.4,0,0,1-2.18,4.63h.82c.91.18,1.45-.23,1.63-1.23l.14-1.36c0-.27.18-.41.54-.41s.55.27.55.82v.13a1.4,1.4,0,0,0,.81-1.36,4.91,4.91,0,0,0-.13-1.36Z" transform="translate(-317.76 -324.98)"/><path class="cls-5" d="M328.19,380.7q-3.54,8-3.4,11.29v2.45l.68.13v-1.49q-.14-4.9,3.67-12.38Z" transform="translate(-317.76 -324.98)"/><path class="cls-4" d="M328.6,350.1V350c0-1-.41-1.49-1.22-1.49-1.09,0-1.73.91-1.91,2.72l-.41,3,.82-3a1.92,1.92,0,0,1,1.9-1.36Z" transform="translate(-317.76 -324.98)"/><path class="cls-4" d="M339.89,364.79a34.47,34.47,0,0,1-3.61-1.91,12,12,0,0,1-1.56-1.08l-4.62-6q-1.5-2-3-2a.6.6,0,0,0-.68.68v.41a1.47,1.47,0,0,0-1.36.95v.27c0,.73.18,1.09.55,1.09.18,0,.27,0,.27-.13v-.68c0-.46.36-.68,1.09-.68.9,0,2,.68,3.26,2l3.13,3.67C334.54,362.93,336.71,364.06,339.89,364.79Z" transform="translate(-317.76 -324.98)"/><path class="cls-3" d="M327.38,343.3a9.15,9.15,0,0,0-1,.54c-.72,0-1.13-.54-1.22-1.63A11.38,11.38,0,0,0,327.38,343.3Z" transform="translate(-317.76 -324.98)"/><polygon class="cls-2" points="7.71 73.12 8.12 72.85 7.98 72.17 7.44 72.17 7.71 73.12"/><path class="cls-5" d="M338.26,387.77a47.2,47.2,0,0,1-7.89-8.29,5.45,5.45,0,0,0-3.13-1.64c-1,0-1.5.55-1.5,1.64a1.71,1.71,0,0,0,.82,1.49c.09-1.17.63-1.77,1.63-1.77q1.1,0,2.79,2a62.24,62.24,0,0,0,5.78,5.72Z" transform="translate(-317.76 -324.98)"/><path class="cls-4" d="M327.38,368.87v-1.23c-.1-2.8.77-4.21,2.58-4.21a2.61,2.61,0,0,1,2,1.36c.45-.18.68-.45.68-.82a2.39,2.39,0,0,0-.41-1.09l-1.22-1.08.27-.82-1.5-.41-1.36.95h-.54l-.14-.4-.27-.14c-.81,0-1.22,1.14-1.22,3.4a14,14,0,0,0,.95,4.49Z" transform="translate(-317.76 -324.98)"/><polygon class="cls-5" points="8.8 67.41 8.66 67.96 10.02 68.09 10.29 67.82 8.8 67.41"/><path class="cls-4" d="M327.78,371.59l-.81.54c1.18,2.09,2.2,3.83,3.06,5.24a23.33,23.33,0,0,0,2.38,3.33,33.4,33.4,0,0,0,2.92,3.13q1.85,1.77,4.42,4.08l.95-.27A67.08,67.08,0,0,1,327.78,371.59Z" transform="translate(-317.76 -324.98)"/><path class="cls-5" d="M327,391.58h.41a.54.54,0,0,1,.4-.14.42.42,0,0,0,.28-.13c.63,0,.95.41.95,1.22a3.25,3.25,0,0,1-.55,1.5l.55.27a4.84,4.84,0,0,0,.54-2.18c0-1-.45-1.49-1.36-1.49C327.74,390.63,327.33,391,327,391.58Z" transform="translate(-317.76 -324.98)"/><path class="cls-2" d="M327.38,394.16c-.19.19-.28.32-.28.41a1.47,1.47,0,0,0,.55.95l.54-.4A4.87,4.87,0,0,1,327.38,394.16Z" transform="translate(-317.76 -324.98)"/><path class="cls-5" d="M327.51,386.68q2.87.82,5.71,1.36c1.91.37,3.81.64,5.72.82q-3.13-.67-5.92-1.36a49.34,49.34,0,0,1-5.37-1.63Z" transform="translate(-317.76 -324.98)"/><path class="cls-2" d="M333.09,397.7a9.49,9.49,0,0,1,1.22,3.67c0,2-.91,3-2.72,3-1,0-2.17-.81-3.53-2.44l-.28.68q2.18,2.17,4.08,2.17,3.27,0,3.27-3.4a1.08,1.08,0,0,0-.14-.68l-1.36-3.4Z" transform="translate(-317.76 -324.98)"/><path class="cls-2" d="M329.42,373a7,7,0,0,1-.48-.82l-.48-.95.28-.14.81,2.32Z" transform="translate(-317.76 -324.98)"/><polygon class="cls-2" points="11.65 47.83 10.97 46.06 10.84 46.2 11.65 47.83"/><path class="cls-5" d="M329.42,407.22a1,1,0,0,0-.68,1.09c0,.63.27.95.81.95s.82-.32.82-.95S330.05,407.22,329.42,407.22Z" transform="translate(-317.76 -324.98)"/><path class="cls-2" d="M330.37,411.71l-1.09-1.63a.79.79,0,0,1-.54.13C328.83,411,329.37,411.53,330.37,411.71Z" transform="translate(-317.76 -324.98)"/><path class="cls-5" d="M337,393.08q-7.33,4.35-7.34,8.84a1.62,1.62,0,0,0,.41.95,12.68,12.68,0,0,1,.47-2.72,8,8,0,0,1,2.93-4.08c.81-.63,1.85-1.41,3.12-2.31Z" transform="translate(-317.76 -324.98)"/><path class="cls-4" d="M330,425.17l-.27,1.36a5.89,5.89,0,0,1,.95,1.77,1.49,1.49,0,0,0,.54-.95l-.13-1a.25.25,0,0,1,.27-.28.56.56,0,0,1,.41.14,16.61,16.61,0,0,0,9.52,2.86,21.89,21.89,0,0,0,12-3.2,15.8,15.8,0,0,0,6.8-8.64,5.11,5.11,0,0,0,.54-1.76c.09-.09.63-.91,1.63-2.45h-.68l-.54.27a.4.4,0,0,1-.27.14c-.28-.09-.41-.23-.41-.41s.22-.77.41-1.5a15.55,15.55,0,0,0-.55-3.4,3.5,3.5,0,0,0-.07-.54c0-.27-.11-.63-.2-1.09l-.14-1c0-.36,0-.55-.13-.55a.81.81,0,0,0-.55.28l-.27.4h-.13l-1.77-2.58c-.37-.63-.71-1.24-1-1.84s-.66-1.24-1-2c-1.82,2.09-2.72,3.81-2.72,5.17a4.84,4.84,0,0,0,.34,1.63,5.56,5.56,0,0,1,.34,1.23c0,.09-.05.13-.14.13a7,7,0,0,1-1.36-.41c-.09.46-.16.82-.2,1.09a3.58,3.58,0,0,0-.07.55c0,.72.91,2.13,2.72,4.21,1.27,1.27,1.9,2.23,1.9,2.86,0,.36-.13.54-.4.54h-.41c-.37-.09-.55-.22-.55-.4l-.81-1.77-1.91-2.31c-1.27-1.82-2.54-2.63-3.8-2.45h-.68a6.27,6.27,0,0,1,.68,1.22h-.14a6.33,6.33,0,0,0-1.29.34,12.65,12.65,0,0,0-3.2,2.11,5.55,5.55,0,0,1,1.77,1.7q.81,1.16,1.5,1h.68c.09,0,.13.09.13.27a3.73,3.73,0,0,1-.07.55c0,.27-.11.63-.2,1.08.45-.09.86-.15,1.22-.2a6.51,6.51,0,0,1,.82-.07c2.18,0,3.26,1.18,3.26,3.54a4.4,4.4,0,0,1-.95,2.65,8.83,8.83,0,0,1-2.45,2.24,14.13,14.13,0,0,1-3.46,1.57,13.8,13.8,0,0,1-4,.61,16.53,16.53,0,0,1-8-1.91,9.69,9.69,0,0,1-1.63-.4Z" transform="translate(-317.76 -324.98)"/><path class="cls-4" d="M329.69,423.81a6.54,6.54,0,0,0,3.4,1.5c.09-.27.22-.41.41-.41a1.39,1.39,0,0,1,.81.14l.41.13a1.88,1.88,0,0,0,1.77-.95H335l-1.63-.54a2.23,2.23,0,0,0-1.09-.14,8.56,8.56,0,0,0-1,.07Z" transform="translate(-317.76 -324.98)"/><polygon class="cls-2" points="13.96 70.68 14.37 70.27 12.47 68.91 12.06 69.18 13.96 70.68"/><path class="cls-4" d="M333.9,333.37a.8.8,0,0,1,.41.68,21.58,21.58,0,0,1,10.34-3q6.66,0,12.65,6a10.12,10.12,0,0,0-.82-1.63v-.27l.68.27.82.82q2.17,2.58,2.17,4.62a4.44,4.44,0,0,1-1.09,3.27c-1.08,1.27-1.67,2-1.76,2.1s-.37.21-.82.21c-.27,0-.41-.09-.41-.27s.36-.64,1.09-1.09a4.15,4.15,0,0,0,2.31-3.95,5.53,5.53,0,0,0-.13-1.49c-.19,1.36-.55,2-1.09,2a.4.4,0,0,1-.14-.27l.14-.41.54-1.5a.78.78,0,0,0,.14-.54,3.78,3.78,0,0,0-1.36-2.45c.09.46.16.82.2,1.09a3.5,3.5,0,0,1,.07.54q0,3.81-2.45,3.95l-2,.27a5.12,5.12,0,0,0-2,.61c-.86.41-1.29.8-1.29,1.16,0,.09.18.2.54.34s.55.29.55.47-.32.32-1,.68a3.25,3.25,0,0,0-1.76,2.59v.68a.36.36,0,0,0-.14.27.56.56,0,0,1-.14.41,5.51,5.51,0,0,1,1.5-.14h.68l.95.27,2.45.27.68-.27.41-.13c.27,0,.41.18.41.54a1.69,1.69,0,0,1-.41.95h.81c1.36.09,2.63-.72,3.81-2.45.46-.81.73-1.31.82-1.49l.41-1.09c.18-.45.36-.68.54-.68.36,0,.54.32.54,1a20.88,20.88,0,0,1-1.63,5.44,6.45,6.45,0,0,0,2-3.13c.09-.27.18-.4.27-.4a.54.54,0,0,1,.14.4,4.4,4.4,0,0,1-1.56,3.34,5.21,5.21,0,0,1-3.61,1.42,8.63,8.63,0,0,1-2.72-.4l-1.77-.68-1.9-.14-1.36.27-.54.27-.41.41a.55.55,0,0,0,.13.41l.41.27.14.14c0,.27-.23.41-.68.41a12.09,12.09,0,0,1-1.91-.21,12.85,12.85,0,0,0-1.76-.2,4.65,4.65,0,0,0-2.59,1.09,4.38,4.38,0,0,1,1.63,1.76,5.62,5.62,0,0,0,3.27,2.72c.36,0,.54,0,.54.14,0-.09-.09.14-.27.68l-.54.82a.5.5,0,0,0-.14.4c0,.46.36.68,1.09.68H350l1.36.14a7.3,7.3,0,0,0,2.18-.68l1.09-.27a.84.84,0,0,1,.54.13c0,.46-.54.87-1.63,1.23a22.39,22.39,0,0,1-5.85,1.22,13.16,13.16,0,0,1-7.21-2.17,3.88,3.88,0,0,0,1.91,1.9c.36.27.54.46.54.54s-.09.14-.27.14a1.91,1.91,0,0,1-1.36-.68c-1.36-1.18-2-2.18-2-3a6.67,6.67,0,0,1,.61-2.18,6.63,6.63,0,0,0,.61-2,2.36,2.36,0,0,0-.13-.95c-.55,0-.82-.18-.82-.54a2.08,2.08,0,0,1,.48-1.09,2.17,2.17,0,0,0,.47-1.09l-.13-1.5a17.54,17.54,0,0,1,.81-3.94q-3.54.27-4.89,1.77c-.46.45-.73.68-.82.68-.36,0-.54-.23-.54-.68l.13-.55h-.68c-1.09.28-1.63,1.41-1.63,3.4a5.33,5.33,0,0,0,.48,2,5.28,5.28,0,0,1,.47,1.7c0,.54-.23.81-.68.81-.91,0-1.36-1.09-1.36-3.26q0-4.35,4.9-8.71a1.17,1.17,0,0,0-.68-.13c-.91,0-1.82.81-2.72,2.45-.46.72-.82,1.08-1.09,1.08-.09,0-.14-.13-.14-.4a1.92,1.92,0,0,1,.68-1.23q-2.58.82-2.58,5a11.33,11.33,0,0,0,1.63,5.31,8,8,0,0,0,1.63,2.45l2.72,2.58-.54-1.9a8.86,8.86,0,0,1-.14-2c0-3,.41-4.49,1.23-4.49a.79.79,0,0,1,.13.54v.55l-.54,1.76a3.45,3.45,0,0,0-.14,1.23,10.77,10.77,0,0,0,1.5,5.17l1.36,1.22-1.09-1.77-.13-.95-.14-1c0-.55.14-.82.41-.82l.27.82q.54,5.3,7.89,5.3,9.8,0,14.69-9.65l-1.64,1.22a6.73,6.73,0,0,1-2.58,1.22l-3.94.28c-.64,0-1-.18-1-.55s.41-.41,1.23-.41h1.09q5.43.15,8.56-5.44a15,15,0,0,0,.55-3.94,17.37,17.37,0,0,0-5.17-12.78,17.69,17.69,0,0,0-13.06-5.17A19.67,19.67,0,0,0,333.9,333.37Z" transform="translate(-317.76 -324.98)"/><path class="cls-5" d="M337.71,389.68H337l-3.94,1.22h-.41c-.91,0-1.36-.32-1.36-.95a.93.93,0,0,1,.27-.68h-.41c-.45,0-.68.13-.68.41l-.13.81-.27.27q.13,1,2,1h.68l1-.48,2-.88a5.32,5.32,0,0,1,.75-.28A10.1,10.1,0,0,0,337.71,389.68Z" transform="translate(-317.76 -324.98)"/><path class="cls-5" d="M330.37,405.72c.18,1.28.63,1.91,1.36,1.91.18,0,.27-.18.27-.55C332,406.45,331.46,406,330.37,405.72Z" transform="translate(-317.76 -324.98)"/><path class="cls-5" d="M332.41,412.25h-1c-.46,0-.68.09-.68.27q0,1,1.08,1H332c.54-.09.82-.28.82-.55A1.61,1.61,0,0,1,332.41,412.25Z" transform="translate(-317.76 -324.98)"/><path class="cls-5" d="M332.27,408.58c-.81,0-1.22.5-1.22,1.5s.36,1.49,1.09,1.49,1.08-.45,1.08-1.36C333.22,409.12,332.91,408.58,332.27,408.58Z" transform="translate(-317.76 -324.98)"/><path class="cls-3" d="M331.59,333.78q2.31-1.5,2.31-2.58c0-.82-.45-1.23-1.36-1.23-.54,0-.9.37-1.08,1.09.54-.18.77-.27.68-.27.54,0,.81.23.81.68a.79.79,0,0,0-.13.54l-.14.27Z" transform="translate(-317.76 -324.98)"/><path class="cls-4" d="M348.59,345.61c-.18-.18-.41-.43-.68-.75s-.59-.7-1-1.15l-.54-1.91a1.84,1.84,0,0,0-.82-.81c-.73-.18-1.09-.41-1.09-.68a.56.56,0,0,1,.14-.41l.41-.14a.36.36,0,0,0,.13-.27l-.27-.13a4.5,4.5,0,0,0-1.77-.41,6.9,6.9,0,0,0-3,.13,15.4,15.4,0,0,1-1.77.41c.18.19.27.32.27.41s-.13.27-.4.27H337q-.94-.14-2.31,1.23a11.62,11.62,0,0,1,2.86-.41c2.08,0,3.12.23,3.12.68-.18.27-.31.41-.4.41a14.94,14.94,0,0,1-2.18-.41h-.54q-3.4,0-4.76,1.77a4.26,4.26,0,0,1,1.76-.55c.28,0,.41.05.41.14-.18.18-.32.27-.41.27l-1.9.95c-.82.46-1.22.91-1.22,1.36,0,.19,0,.27.13.27a1.18,1.18,0,0,0,.82-.68,6.69,6.69,0,0,1,4.21-1.49,5.25,5.25,0,0,1,2.72.81,5.76,5.76,0,0,0,1.64.82l1.22.14h.27l.14-.28a.43.43,0,0,1,.27-.13,9.1,9.1,0,0,1,1.43.68,5.42,5.42,0,0,0,2.51.68A7.1,7.1,0,0,0,348.59,345.61Z" transform="translate(-317.76 -324.98)"/><path class="cls-4" d="M331.59,393.48l1.09.82a58.93,58.93,0,0,1,6.39-3l-.81-.82A30.91,30.91,0,0,0,331.59,393.48Z" transform="translate(-317.76 -324.98)"/><path class="cls-5" d="M333,375q-.54,0-.54.81v.28c.18.45.41.68.68.68s.54-.28.54-.82v-.27C333.45,375.22,333.22,375,333,375Z" transform="translate(-317.76 -324.98)"/><path class="cls-5" d="M332.82,405.86l.27,1.22v1.09l.13.14c.82,0,1.23-.45,1.23-1.36,0-.55-.09-.82-.27-.82Z" transform="translate(-317.76 -324.98)"/><path class="cls-2" d="M333.22,372.81c-.18,0-.27.23-.27.68a.37.37,0,0,0,.41.41c.36,0,.54-.14.54-.41A.6.6,0,0,0,333.22,372.81Z" transform="translate(-317.76 -324.98)"/><path class="cls-2" d="M333.63,370.91a.48.48,0,0,0-.54.54.36.36,0,0,0,.41.41c.36,0,.54-.14.54-.41S333.9,370.91,333.63,370.91Z" transform="translate(-317.76 -324.98)"/><path class="cls-7" d="M335.67,359.89a9.19,9.19,0,0,1-2.31-2.31Q335.67,359.08,335.67,359.89Z" transform="translate(-317.76 -324.98)"/><path class="cls-2" d="M334.31,410.76a5.82,5.82,0,0,0-.81,1.22q0,.54.27.54c.36,0,.63-.22.81-.67l.14-.41C334.72,411,334.58,410.76,334.31,410.76Z" transform="translate(-317.76 -324.98)"/><path class="cls-5" d="M335,408.31c-.63,0-.95.36-.95,1.09,0,.36.23.54.68.54a.84.84,0,0,0,.27-1.63Z" transform="translate(-317.76 -324.98)"/><path class="cls-5" d="M335.54,368.87c-.91,0-1.36.41-1.36,1.22,0,.37.27.55.81.55.91,0,1.36-.32,1.36-1A.72.72,0,0,0,335.54,368.87Z" transform="translate(-317.76 -324.98)"/><path class="cls-5" d="M334.58,374.31q-.27,0-.27.54c0,.55.23.82.68.82.64,0,.95-.18.95-.55C335.94,374.58,335.49,374.31,334.58,374.31Z" transform="translate(-317.76 -324.98)"/><path class="cls-2" d="M334.45,376.48c0,.46.18.68.54.68s.55-.22.82-.68Z" transform="translate(-317.76 -324.98)"/><path class="cls-5" d="M335.81,371.18a1.08,1.08,0,0,0-1.23,1.22c0,.73.32,1.09,1,1.09.81,0,1.22-.36,1.22-1.09S336.44,371.18,335.81,371.18Z" transform="translate(-317.76 -324.98)"/><path class="cls-4" d="M334.86,334.46l.95.14a17.47,17.47,0,0,1,6.53-1.91q6.93,0,6.93,4.08a1.2,1.2,0,0,1-1.36,1.36c-.72,0-1.27-.45-1.63-1.36l-.95-1.49a2.44,2.44,0,0,0-2.31-1.23c-1.55,0-2.32.64-2.32,1.91a1,1,0,0,0,1.09,1.08l-.13-1.08c0-.64.45-1,1.36-1,1.08,0,1.85.91,2.31,2.72s1.49,2.72,3.13,2.72l.4-.13.68-.27a.56.56,0,0,1,.41-.14,5.33,5.33,0,0,1,.68,1.22,3.35,3.35,0,0,0,1.23-2.17,9.22,9.22,0,0,0-.55-2.18.56.56,0,0,1,.41-.13,1.1,1.1,0,0,1,.68.13q-.27-4.89-8.57-4.89A18.37,18.37,0,0,0,334.86,334.46Z" transform="translate(-317.76 -324.98)"/><path class="cls-5" d="M337,378.52l-.68-.13c-.91,0-1.36.5-1.36,1.49s.91,2.32,2.72,3.95v-.55c-1.36-1.44-2-2.58-2-3.4C335.67,379.25,336.12,378.8,337,378.52Z" transform="translate(-317.76 -324.98)"/><path class="cls-2" d="M336.22,396.2a4.56,4.56,0,0,0-1.09,2.32,3.66,3.66,0,0,0,.68,1.9c.45.73.95,1.09,1.49,1.09.09,0,.23-.09.41-.27l.14-.14,1.09-.14c.54,0,.81-.45.81-1.36v-.27c-.18-.45-.36-.68-.54-.68h-.14l-.13,1.09q0,.54-1,.54c-1.08,0-1.63-.63-1.63-1.9a6.83,6.83,0,0,1,.41-2Z" transform="translate(-317.76 -324.98)"/><path class="cls-5" d="M336.08,346.29a.6.6,0,0,0-.68.68c0,.46.14.68.41.68a.6.6,0,0,0,.68-.68C336.49,346.52,336.35,346.29,336.08,346.29Z" transform="translate(-317.76 -324.98)"/><path class="cls-4" d="M335.54,426.26a14.08,14.08,0,0,0,4.35.82c2.72,0,4.08-.64,4.08-1.91,0-.45-.5-.9-1.5-1.36l.27.82c0,1.45-1,2.17-3,2.17A16.36,16.36,0,0,1,335.54,426.26Z" transform="translate(-317.76 -324.98)"/><path class="cls-2" d="M337.58,373.63l-.82.54c.09.37.23.55.41.55a.48.48,0,0,0,.54-.55A.79.79,0,0,0,337.58,373.63Z" transform="translate(-317.76 -324.98)"/><path class="cls-5" d="M336.9,375.53c.27.37.45.55.54.55a3.15,3.15,0,0,0,.41-.68Z" transform="translate(-317.76 -324.98)"/><path class="cls-5" d="M338.12,345.2c-.64-.08-.95.19-.95.82a.72.72,0,0,0,.81.82c.64,0,1-.23,1-.68C338.94,345.52,338.66,345.2,338.12,345.2Z" transform="translate(-317.76 -324.98)"/><path class="cls-4" d="M346.55,366.15q-9.37,2-9.38,4.21l.27.28a.9.9,0,0,0,.68-.28l1.09-1.22,1.22-.68,4.9-1.77Z" transform="translate(-317.76 -324.98)"/><path class="cls-5" d="M338.39,371.18c-.45,0-.68.32-.68.95s.23.82.68.82a.72.72,0,0,0,.82-.82C339.21,371.5,338.94,371.18,338.39,371.18Z" transform="translate(-317.76 -324.98)"/><path class="cls-7" d="M339.34,349a5.54,5.54,0,0,1,.41,1.36,7.21,7.21,0,0,0,.07,1.36c0,.19.11.23.2.14a1,1,0,0,0,.21-.48,3.57,3.57,0,0,0,.07-.61c0-.9-.37-.5-1.09,1.22q-.13-.54-.21-.81a2.51,2.51,0,0,1-.06-.55A5.24,5.24,0,0,1,339.34,349Z" transform="translate(-317.76 -324.98)"/><path class="cls-2" d="M338.94,394.57q3.93-3.12,6.12-3.4l3.12-.54a5.51,5.51,0,0,1,1.5-.14c.82,0,1.22.14,1.22.41,0,.46-1.27.73-3.8.82q-1.64,0-6.26,2Z" transform="translate(-317.76 -324.98)"/><path class="cls-5" d="M340.43,346c-.36,0-.54.14-.54.41.18.18.31.27.41.27q.54,0,.54-.27A.37.37,0,0,0,340.43,346Z" transform="translate(-317.76 -324.98)"/><path class="cls-6" d="M346,402.6l-.14-.82-.13-.41-.68.82-3.4,7.07a14.44,14.44,0,0,0-1.64,5.3,5,5,0,0,0,1.64,3.13,8.16,8.16,0,0,1-.55-2.85,9,9,0,0,1,.68-3.13Z" transform="translate(-317.76 -324.98)"/><path class="cls-5" d="M340.84,359.89a1.69,1.69,0,0,0-.27.68l-.14.14c0,.45.18.68.55.68s.68-.27.68-.82S341.38,359.89,340.84,359.89Z" transform="translate(-317.76 -324.98)"/><path class="cls-5" d="M341.25,358c-.27,0-.41.18-.41.54s.18.68.54.68a.48.48,0,0,0,.55-.54A.6.6,0,0,0,341.25,358Z" transform="translate(-317.76 -324.98)"/><path class="cls-5" d="M342.06,348.6c-.63,0-.95.28-.95.82,0,.36.27.54.82.54h.13c.73-.18,1.09-.4,1.09-.68C343.15,348.83,342.79,348.6,342.06,348.6Z" transform="translate(-317.76 -324.98)"/><path class="cls-5" d="M341.93,352.82a.72.72,0,0,0-.82.82c0,.36.14.54.41.54.54,0,.82-.22.82-.68A.81.81,0,0,0,341.93,352.82Z" transform="translate(-317.76 -324.98)"/><path class="cls-5" d="M341.79,350.92c-.36,0-.54.22-.54.68,0,.27.13.4.41.4.45,0,.68-.18.68-.54A.48.48,0,0,0,341.79,350.92Z" transform="translate(-317.76 -324.98)"/><path class="cls-5" d="M341.79,355.81a.94.94,0,0,0-.41.82c0,.54.23.81.68.81a.6.6,0,0,0,.68-.68A.84.84,0,0,0,341.79,355.81Z" transform="translate(-317.76 -324.98)"/><path class="cls-5" d="M342.74,346.56a.6.6,0,0,0-.68.68c0,.55.37.82,1.09.82s1-.22,1-.68S343.65,346.56,342.74,346.56Z" transform="translate(-317.76 -324.98)"/><path class="cls-5" d="M343.29,360.71c-.55.18-.82.45-.82.81a.72.72,0,0,0,.82.82c.63,0,.95-.22.95-.68A.84.84,0,0,0,343.29,360.71Z" transform="translate(-317.76 -324.98)"/><path class="cls-5" d="M343.56,357.72a.6.6,0,0,0-.68.68c0,.45.27.68.82.68a.65.65,0,0,0,.68-.55A.72.72,0,0,0,343.56,357.72Z" transform="translate(-317.76 -324.98)"/><path class="cls-2" d="M343.42,352.55a.8.8,0,0,0-.4.68c0,.18.22.27.68.27H344a.55.55,0,0,1,.41-.14.79.79,0,0,0,.54-.13c0-.45-.36-.68-1.09-.68Z" transform="translate(-317.76 -324.98)"/><path class="cls-5" d="M343.56,350.78l-.27.54c0,.28.22.41.68.41.63,0,.95-.27.95-.81s-.32-.82-.95-.82c-.09,0-.23.09-.41.27Z" transform="translate(-317.76 -324.98)"/><path class="cls-7" d="M346.28,345.07a3.43,3.43,0,0,1-1.22.13c-.55,0-1-.4-1.36-1.22l1.9.27a2.52,2.52,0,0,1,.27.34A3.1,3.1,0,0,0,346.28,345.07Z" transform="translate(-317.76 -324.98)"/><path class="cls-5" d="M345.19,359.62c-.45,0-.68.27-.68.82s.27.72.82.81.81-.18.81-.54C346.14,360,345.83,359.62,345.19,359.62Z" transform="translate(-317.76 -324.98)"/><path class="cls-4" d="M355.12,363.43,350,365.6q-5.29,2.32-5.3,4.9c0,.73.13,1.09.41,1.09h.13c.55,1.72,1.54,2.58,3,2.58q1.36,0,1.5-.54l.95-2a1.23,1.23,0,0,1,1.09-.82H352q-.14-.54-.54-.54a1.62,1.62,0,0,0-.95.41l-.55.54-.68.95a.78.78,0,0,1-.54.14,1.69,1.69,0,0,1-1.91-1.91c0-1.44,1.41-2.85,4.22-4.21.63-.36,1.29-.77,2-1.23S354.39,364,355.12,363.43Z" transform="translate(-317.76 -324.98)"/><path class="cls-2" d="M345.19,362.07c-.18.18-.27.32-.27.41a.36.36,0,0,0,.41.4.89.89,0,0,0,.68-.27C346,362.25,345.74,362.07,345.19,362.07Z" transform="translate(-317.76 -324.98)"/><path class="cls-2" d="M345.87,347c-.54,0-.81.19-.81.55s.22.4.68.4.68-.13.68-.4S346.23,347.06,345.87,347Z" transform="translate(-317.76 -324.98)"/><path class="cls-5" d="M346.28,348.47a.84.84,0,0,0-.95.95c0,.54.31.82.95.82s1-.23,1-.68C347.23,348.83,346.91,348.47,346.28,348.47Z" transform="translate(-317.76 -324.98)"/><path class="cls-5" d="M346.28,351.19a.72.72,0,0,0-.82.81c0,.37.23.55.68.55a.6.6,0,0,0,.68-.68C346.82,351.42,346.64,351.19,346.28,351.19Z" transform="translate(-317.76 -324.98)"/><path class="cls-2" d="M348.46,390a8.65,8.65,0,0,1-1.09.2,9.18,9.18,0,0,1-1.23.07c-.45,0-.68-.18-.68-.54a.36.36,0,0,1,.41-.41,3.49,3.49,0,0,1,.89.2C347.16,389.61,347.73,389.77,348.46,390Z" transform="translate(-317.76 -324.98)"/><path class="cls-7" d="M348.32,358.12H347.1c-1-.18-1.5-.68-1.5-1.49l.14-.55a12.56,12.56,0,0,1,1,.82A16.86,16.86,0,0,0,348.32,358.12Z" transform="translate(-317.76 -324.98)"/><path class="cls-8" d="M347.5,385.87l3.54,1.9a5,5,0,0,1,2.86-1.09H385a3.88,3.88,0,0,1,3.81,2.32l5.3,11.69,1.09-.27,1.63.14,1.5-.14.95-.14.41-.13c.54,0,.81.45.81,1.36a4.57,4.57,0,0,1-.81,2.58,4.92,4.92,0,0,1,1.22,3.13q0,1.63-2,4.08a10.55,10.55,0,0,1,1.23,5c0,1.73-1.82,2.91-5.44,3.54l-1.64.27c-.72.18-1.08.41-1.08.68s.45.54,1.36.54l3.53.14c.36,0,.84,0,1.43-.07s1.34-.11,2.24-.2c1.27-.09,2.4-.16,3.4-.21s1.82-.06,2.45-.06l3,.13,7.08.41h2.31q2.58.13,2.58-.54c0-.64-1.36-1.09-4.08-1.36-4.26-.46-7.43-3-9.52-7.62l-33.86-74q-1.09-2-1.77-2c-.54,0-1.13.72-1.77,2.17Z" transform="translate(-317.76 -324.98)"/><path class="cls-5" d="M348.46,350.78c-.55,0-.82.23-.82.68a.48.48,0,0,0,.54.54c.55,0,.82-.22.82-.68A.48.48,0,0,0,348.46,350.78Z" transform="translate(-317.76 -324.98)"/><path class="cls-7" d="M352.13,415.38l-1.36-.68-1.5-.82-1.22-.54h.27A4,4,0,0,1,352.13,415.38Z" transform="translate(-317.76 -324.98)"/><path class="cls-7" d="M352.26,360.44c-.81.81-1.45,1.22-1.9,1.22a13.76,13.76,0,0,1-1.77-.68A10.89,10.89,0,0,1,352.26,360.44Z" transform="translate(-317.76 -324.98)"/><path class="cls-2" d="M350.09,350.24c-.37,0-.55.13-.55.4s.32.41,1,.41q.54.13.54-.27C351,350.42,350.72,350.24,350.09,350.24Z" transform="translate(-317.76 -324.98)"/><path class="cls-7" d="M350,347.92a4,4,0,0,1,1.09-.13,4.64,4.64,0,0,1,2,.54,4.77,4.77,0,0,1-1.36.14A3.58,3.58,0,0,1,350,347.92Z" transform="translate(-317.76 -324.98)"/><path class="cls-7" d="M354.3,401.37c.28,1.18.55,2.27.82,3.27a19.17,19.17,0,0,0,.95,2.72,21.12,21.12,0,0,1,1.5,6.39q0,10.33-7.21,13.05l.95-.95,1.91-1.49q3.66-3.27,3.67-10.48a15,15,0,0,0-1.29-6,14,14,0,0,1-1.3-5.58Z" transform="translate(-317.76 -324.98)"/><path class="cls-4" d="M350.77,428a4.59,4.59,0,0,1,2.31-.55c.72,0,1.09.23,1.09.68l-.14.55c.55-.09.82-.32.82-.68,0-.63-.37-.95-1.09-.95A5.11,5.11,0,0,0,350.77,428Z" transform="translate(-317.76 -324.98)"/><path class="cls-7" d="M352.94,418.51a4.05,4.05,0,0,1-1.76-1.23A5,5,0,0,1,352.94,418.51Z" transform="translate(-317.76 -324.98)"/><path class="cls-4" d="M369,335.28a3.47,3.47,0,0,1-3.67,2.58,5.64,5.64,0,0,1-3.94-1.63l-3.27-2.72-6.12-3,4.9,2.85a8.72,8.72,0,0,1,3.53,3.27c1.73,2.54,3.31,3.8,4.76,3.8,1.82,0,2.72-.31,2.72-.95l-.27-.13v-.55l.95-.95a2,2,0,0,0,.68-1.5Z" transform="translate(-317.76 -324.98)"/><path class="cls-5" d="M387.49,388.18a2.81,2.81,0,0,0-2-.82H354.58a3.88,3.88,0,0,0-2.59.82l.55.27.54-.27Z" transform="translate(-317.76 -324.98)"/><path class="cls-7" d="M353.49,410.89v-.54c-.91-.82-1.36-1.09-1.36-.82l.13-.68Z" transform="translate(-317.76 -324.98)"/><path class="cls-2" d="M353.08,350.64c-.45,0-.68.14-.68.41s.23.55.68.55.82-.18.82-.55S353.62,350.64,353.08,350.64Z" transform="translate(-317.76 -324.98)"/><path class="cls-7" d="M356.48,354.32c-.18.18-.27.32-.27.4a.42.42,0,0,1,.13.28h-1.22q-.54,0-1.5-1.23A6.33,6.33,0,0,0,356.48,354.32Z" transform="translate(-317.76 -324.98)"/><path class="cls-2" d="M359.61,395l-2.72.14-1.5-.14h-1.22c-.37,0-.55-.22-.55-.68s.23-.54.68-.54l2.86.54Z" transform="translate(-317.76 -324.98)"/><path class="cls-7" d="M354.17,421.36a3.53,3.53,0,0,0,.13-1.08v-1l-.13-1.08c0-.28.2-.52.61-.75s.48-.34.2-.34c.37,0,.55.27.55.81A10.29,10.29,0,0,1,354.17,421.36Z" transform="translate(-317.76 -324.98)"/><path class="cls-1" d="M372.94,353.77l11.83,26.39a3.31,3.31,0,0,1,.41,1.08c0,1.09-.78,1.64-2.32,1.64l-26.24-.14c-1.36,0-2-.45-2-1.36l.27-1.09,12.78-26.93q1.1-2.31,2.31-2.31C370.94,351.05,371.94,352,372.94,353.77Z" transform="translate(-317.76 -324.98)"/><path class="cls-5" d="M370.08,351.87a2.48,2.48,0,0,0-1.63,1.22l-13.06,27.34c-.09.09-.13.36-.13.81a.72.72,0,0,0,.81.82h.14v-.54a4.12,4.12,0,0,0,.27-1Z" transform="translate(-317.76 -324.98)"/><path class="cls-7" d="M357.84,358.53a6.15,6.15,0,0,1-.14,1.63c-.81.28-1.58.55-2.31.82A8,8,0,0,1,357.84,358.53Z" transform="translate(-317.76 -324.98)"/><path class="cls-4" d="M387.9,428.71a.53.53,0,0,1-.14-.41.94.94,0,0,0,.2-.27,1.24,1.24,0,0,1,.21-.27,2.76,2.76,0,0,0,.81-1.64c0-1.08-.81-1.85-2.44-2.31-.28-.09-.41-.18-.41-.27a1.59,1.59,0,0,1,.54-1.09l-1.09-.81a1.66,1.66,0,0,0-1.22-.55h-1.5l-.4.41a.58.58,0,0,1-.41.14c-.09,0-.14-.14-.14-.41a3.15,3.15,0,0,1,.41-1.22,5,5,0,0,0-1.5-.41c-.72,0-1.72.63-3,1.9-.45.46-.81.68-1.09.68a.84.84,0,0,1-.95-.95c0-.18.23-.5.68-1a4,4,0,0,0,2.18-3.4l-.14-.68-.27-1.09c-.18-.55-.32-.82-.41-.82-.27,0-.59.23-.95.68s-.64.68-.82.68-.4-.18-.4-.54c.09-.09.13-.36.13-.82v-.54a5.11,5.11,0,0,0-.81-2.45l-.82-1.9L373.07,408,372,409.4l-.81,1.49a4.67,4.67,0,0,0-.95,1.77l-.14,1.77c-.18,1.09-.36,1.63-.54,1.63s-.46-.18-.55-.54l-.13-.68-.41-.41c-.18-.18-.5-.45-.95-.82a13.54,13.54,0,0,0-1.09,3.13,4,4,0,0,0,.68,2.18l1,1.22a2.45,2.45,0,0,1,.41.95c0,.64-.36,1-1.09,1-.36,0-.73-.31-1.09-1a4.77,4.77,0,0,0-3.67-1.9,4.13,4.13,0,0,0-1.63.41l1.22,2c0,.27-.23.4-.68.4h-1.22a4.92,4.92,0,0,0-3,1.64.64.64,0,0,1,.54.68c0,.09-.27.41-.82.95a2.35,2.35,0,0,0-.81,1.63,3,3,0,0,0,1.09,1.77c.27-2.09,2.35-3.08,6.25-3h2.86a4.57,4.57,0,0,1,1.09.13q5.16,0,5-4.89v-.55c0-.27.09-.4.27-.4.36,0,.54.31.54.95v.27l-.13,1.36a4.1,4.1,0,0,0-.14,1.22q0,1.77,7.21,1.77h2.45a13.93,13.93,0,0,0,1.9-.14H385c1.45,0,2.18.46,2.18,1.36a2.21,2.21,0,0,1-.21.89,2.42,2.42,0,0,0-.2.61c0,.36.31.55.95.55Z" transform="translate(-317.76 -324.98)"/><path class="cls-7" d="M360,414.16a5.87,5.87,0,0,1-.48,1.22c-.23.46-.52,1-.88,1.63A3.23,3.23,0,0,1,360,414.16Z" transform="translate(-317.76 -324.98)"/><path class="cls-7" d="M360.7,353a4,4,0,0,1,.13,1.36c0,.18-.68.32-2,.4A10.63,10.63,0,0,1,360.7,353Z" transform="translate(-317.76 -324.98)"/><path class="cls-4" d="M369.67,336.64a9.11,9.11,0,0,0,.41-2.59q0-3.53-3.81-3.53a7.22,7.22,0,0,0-1.77.13c.18.19.28.32.28.41s0,.27-.14.27c-1.27.19-2.49.41-3.67.68l-.55-.27h-.13c-.09,0-.23.09-.41.27a1.1,1.1,0,0,1,.2.27.72.72,0,0,0,.34.28l.82.81a2.89,2.89,0,0,0,2.58.68l.14-.13.14.13a1.51,1.51,0,0,1-.55.95,4,4,0,0,0,2,.55,1.22,1.22,0,0,0,1.09-.41l.27-.68a1.07,1.07,0,0,1,1.09-.68c1.09,0,1.63.91,1.63,2.72Z" transform="translate(-317.76 -324.98)"/><path class="cls-4" d="M366.14,377.3l-.41.14c-.46,0-.68-.09-.68-.28a.54.54,0,0,1,.13-.4l-.81-.28H364a.23.23,0,0,1-.27-.27,3.7,3.7,0,0,1,.95-.41,3.58,3.58,0,0,0-2.18-1.08l-1.49-.41-.68.41.68.68.13.81a1.16,1.16,0,0,0,.48.48c.23.13.34.25.34.34a.24.24,0,0,1-.27.27l-.55.41a1.23,1.23,0,0,0,1.23,1.36h.41C364.73,379.07,365.86,378.48,366.14,377.3Z" transform="translate(-317.76 -324.98)"/><path class="cls-7" d="M361,341a6.67,6.67,0,0,0,.54,1.77,7.85,7.85,0,0,1,.55,1.63c0,.36-.14.54-.41.54q-1.23,0-1.23-.54a2,2,0,0,1,.14-.82l.14-1.09c.09-.08.13-.31.13-.68A1.87,1.87,0,0,1,361,341Z" transform="translate(-317.76 -324.98)"/><path class="cls-4" d="M369.67,411.71c-.09-2.63-.73-4.51-1.9-5.65s-3.31-1.92-6.39-2.38l.27,1,.54.27v.41l-.95,1.49a6.24,6.24,0,0,0-.27.95,2.78,2.78,0,0,0,1.36,2.32c-.09-.46-.16-.82-.21-1.09a4.52,4.52,0,0,1-.06-.55c0-1.44.81-2.17,2.44-2.17Q367.91,406.27,369.67,411.71Z" transform="translate(-317.76 -324.98)"/><path class="cls-4" d="M372,407.63v-.95q.13-2.58-4.89-9.66c-1.63-2.26-2.45-3.81-2.45-4.62q0-1.63,1.77-1.77a1.39,1.39,0,0,0,.81-.14c0-.54-.36-.95-1.08-1.22a1.46,1.46,0,0,0-.82-.14,2.41,2.41,0,0,0-1.77.68c-.45.46-.63.68-.54.68a5.15,5.15,0,0,1-.48-.27,3.92,3.92,0,0,0-.47-.27.4.4,0,0,1-.28-.14c-.36,0-.54.46-.54,1.36s1,2.23,3,4.22A41.59,41.59,0,0,1,372,407.63Z" transform="translate(-317.76 -324.98)"/><path class="cls-5" d="M361.24,428.71a27.79,27.79,0,0,0,3.94.41,9.76,9.76,0,0,0,4.9-1.64c.27-.08.41-.18.41-.27,0-.27-.41-.41-1.23-.41a1.39,1.39,0,0,0-.81.14l-1.5.68-1.22.41.27-.55.68-.54c-.54.09-1.11.2-1.7.34a9.28,9.28,0,0,0-2,.75Z" transform="translate(-317.76 -324.98)"/><path class="cls-4" d="M362.6,417.56a11.57,11.57,0,0,1-.27-1.23c0-.63.27-.95.81-.95a1.67,1.67,0,0,1,1.5.95c.09.19.2.46.34.82s.29.86.48,1.49a2,2,0,0,0,1.22,1.64v-.68l-1.09-1.36a4.24,4.24,0,0,1-.13-1.23,3.49,3.49,0,0,0-.14-1.08c-.27-1.27-.86-1.91-1.77-1.91-1.45,0-2.17.64-2.17,1.91C361.38,417,361.78,417.56,362.6,417.56Z" transform="translate(-317.76 -324.98)"/><path class="cls-4" d="M363.69,373.76a7.54,7.54,0,0,0-.82-3.67l-.27.27-.14,1-.13.4-.27.14a.76.76,0,0,0-.28.54,1.42,1.42,0,0,0,1.09,1.36c.09-.27.23-.4.41-.4S363.51,373.49,363.69,373.76Z" transform="translate(-317.76 -324.98)"/><path class="cls-4" d="M362.87,341c.36,2.72,1.14,4.08,2.31,4.08.46,0,.82-.41,1.09-1.23a1.73,1.73,0,0,1-.81.14C364.91,344,364.05,343,362.87,341Z" transform="translate(-317.76 -324.98)"/><path class="cls-4" d="M363,410.21a1.13,1.13,0,0,0,.95.68c-.45,0,.09-.13,1.63-.41l.41-.13.68.13a1.21,1.21,0,0,0-1.22-1.08h-.28l-1.22,1Z" transform="translate(-317.76 -324.98)"/><path class="cls-3" d="M377.83,367.78a5.43,5.43,0,0,0-1.49-.41c-.64,0-1.32.64-2,1.91-.1.36-.28.54-.55.54a5.61,5.61,0,0,0-.41-1.09.72.72,0,0,0-.81-.54c-1.18,0-1.77,1-1.77,3.13a3.9,3.9,0,0,0,.07.68c0,.27.11.63.2,1.08l.14,1c0,.9-.32,1.36-.95,1.36s-1-.28-1-.82a3.72,3.72,0,0,1,.41-1.43,3.67,3.67,0,0,0,.41-1.29l-.14-.27-.4-.27v-.55l.54-.95a5.63,5.63,0,0,0,.27-.95,2.86,2.86,0,0,0-.13-1.09h-.55l-.54.27-.55-.13a1.45,1.45,0,0,0-.47.13,1.67,1.67,0,0,1-.48.14c-.27,0-.45-.27-.54-.82a1.93,1.93,0,0,0-1.36-1.77h-1a4.32,4.32,0,0,1,1,2.18,8.05,8.05,0,0,1-.61,2.31,7.92,7.92,0,0,0-.62,2.59,4.36,4.36,0,0,0,1.57,3.33,5.36,5.36,0,0,0,3.74,1.43q6.12,0,6.12-5.58A4.91,4.91,0,0,1,377.83,367.78Z" transform="translate(-317.76 -324.98)"/><path class="cls-4" d="M373.34,380.29c.18-.72.28-1,.28-1,0-.63-.46-1.09-1.36-1.36-.19.46-.37.68-.55.68a1,1,0,0,1-.47-.27,1.07,1.07,0,0,0-.48-.27.4.4,0,0,0-.14.27l-.13.13-.14.28v.13l.27.68-.27.27a.82.82,0,0,1-.2-.27,1.24,1.24,0,0,0-.21-.27l-.13-.54c-.09-.36-.41-.55-.95-.55,0,.37-.14.55-.41.55l-.14-.14-.54-.68c-.18-.18-.32-.27-.41-.27-.82,0-1.22.59-1.22,1.77,0,1,.4,1.49,1.22,1.49h.27l.27-.27a2.94,2.94,0,0,0,.68.48l1,.47a1.39,1.39,0,0,0,.81.14A1.45,1.45,0,0,0,372,380.7l.14-.41a.56.56,0,0,1,.41-.13C373,380.16,373.25,380.2,373.34,380.29Z" transform="translate(-317.76 -324.98)"/><path class="cls-5" d="M367.22,365.06c.09-1.09.55-1.63,1.36-1.63s1.23.68,1.23,2a3.35,3.35,0,0,1-.14,1.22,1.58,1.58,0,0,0,.95-1.63c0-1.63-.68-2.45-2-2.45s-1.9.46-1.9,1.36A1.56,1.56,0,0,0,367.22,365.06Z" transform="translate(-317.76 -324.98)"/><path class="cls-2" d="M367.5,359.89a.36.36,0,0,0-.41.41.24.24,0,0,0,.27.27c.27,0,.41-.09.41-.27S367.68,359.89,367.5,359.89Z" transform="translate(-317.76 -324.98)"/><path class="cls-7" d="M367.77,415.79l.68,1a6,6,0,0,1,.68,1.56,3.07,3.07,0,0,0-.95-.81c-.46-.28-.68-.46-.68-.55A8.13,8.13,0,0,0,367.77,415.79Z" transform="translate(-317.76 -324.98)"/><path class="cls-7" d="M367.9,423.68c.28-.36.55-.7.82-1s.59-.66.95-1A2.86,2.86,0,0,1,367.9,423.68Z" transform="translate(-317.76 -324.98)"/><path class="cls-2" d="M368.58,360.71c-.27,0-.4.13-.4.41.18.18.31.27.4.27.28,0,.41-.09.41-.27A.36.36,0,0,0,368.58,360.71Z" transform="translate(-317.76 -324.98)"/><path class="cls-2" d="M369,359.35a.41.41,0,1,0,0,.81c.36,0,.55-.08.55-.27A.48.48,0,0,0,369,359.35Z" transform="translate(-317.76 -324.98)"/><path class="cls-5" d="M373.48,407c-.91-3.17-1.63-6.21-2.18-9.11s-1-5.76-1.36-8.57l-.81.13a105.51,105.51,0,0,0,3.67,17.28Z" transform="translate(-317.76 -324.98)"/><path class="cls-2" d="M369.54,357.85c-.19.19-.28.32-.28.41,0,.27.09.41.28.41s.22-.09.4-.27C369.94,358,369.81,357.85,369.54,357.85Z" transform="translate(-317.76 -324.98)"/><path class="cls-2" d="M370.08,361.39c-.36,0-.54.23-.54.68s.13.54.4.54.55-.22.55-.68S370.35,361.39,370.08,361.39Z" transform="translate(-317.76 -324.98)"/><path class="cls-5" d="M371.17,367.24c1.18,0,1.77-1.23,1.77-3.68s-.64-3.67-1.91-3.67a.37.37,0,0,0-.41.41.56.56,0,0,0,.14.41l.82.27c.45.18.68.95.68,2.31A11.42,11.42,0,0,1,371.17,367.24Z" transform="translate(-317.76 -324.98)"/><path class="cls-5" d="M371.17,357.85c-.27,0-.41.23-.41.68a.48.48,0,0,0,.54.55c.46,0,.68-.18.68-.55S371.71,357.85,371.17,357.85Z" transform="translate(-317.76 -324.98)"/><path class="cls-5" d="M372,331.2a.82.82,0,0,0,0,1.63c.55,0,.82-.23.82-.68C372.8,331.52,372.53,331.2,372,331.2Z" transform="translate(-317.76 -324.98)"/><path class="cls-7" d="M371.58,414.16a3.16,3.16,0,0,1-.14-1.23c.72-.63,1.45-1.31,2.18-2A30.23,30.23,0,0,0,371.58,414.16Z" transform="translate(-317.76 -324.98)"/><path class="cls-5" d="M372.66,425.58c-.81,0-1.22.32-1.22.95,0,.46.36.68,1.09.68s1.22-.27,1.22-.81S373.39,425.58,372.66,425.58Z" transform="translate(-317.76 -324.98)"/><path class="cls-2" d="M371.58,429.12l1.63-.14.13-1.09-.95.27-.81-.13a.53.53,0,0,0-.14.41Z" transform="translate(-317.76 -324.98)"/><path class="cls-5" d="M373.48,333.78a.6.6,0,0,0-.68.68c0,.54.32.82.95.82s.82-.18.82-.55C374.57,334.1,374.2,333.78,373.48,333.78Z" transform="translate(-317.76 -324.98)"/><path class="cls-5" d="M374.43,330c-.72,0-1.09.19-1.09.55s.32.68,1,.68c.45,0,.68-.18.68-.55A.65.65,0,0,0,374.43,330Z" transform="translate(-317.76 -324.98)"/><path class="cls-5" d="M373.48,365.47a3.36,3.36,0,0,1,2-1.23.73.73,0,0,1,.82.82c0,.18-.23.5-.68.95a1.3,1.3,0,0,0-.28-2.58C374.75,363.43,374.11,364.11,373.48,365.47Z" transform="translate(-317.76 -324.98)"/><path class="cls-1" d="M412.51,417c-.45-.72-.91-1.47-1.36-2.24s-.91-1.61-1.36-2.52l-34.68-75.34-1.49-.55a14,14,0,0,1,.88,1.36c.14.28.43,1,.88,2l33.05,71.81A12.19,12.19,0,0,0,412.51,417Z" transform="translate(-317.76 -324.98)"/><path class="cls-5" d="M374.57,331.88c-.55,0-.82.32-.82.95a.72.72,0,0,0,.82.81c.72,0,1.09-.22,1.09-.68A1,1,0,0,0,374.57,331.88Z" transform="translate(-317.76 -324.98)"/><path class="cls-4" d="M374.7,404.91a19.73,19.73,0,0,1,2-4.63,25.14,25.14,0,0,1,1.5-2.1c.54-.68,1.09-1.38,1.63-2.11a7.84,7.84,0,0,0,2-4.63,1.05,1.05,0,0,0-.41-.95l-.4-.41-.28.28-.54-.14-1.9-.82-2.59-.13-.41-.14H375l-.41.55.41.27-.41.41a4.83,4.83,0,0,0-.82,3c0,.54.41,1.09,1.23,1.63.54.46.81.82.81,1.09,0,.54-.41.95-1.22,1.22v.41a2.38,2.38,0,0,0,2-2.45l-.14-.13c-.91-.91-1.36-1.59-1.36-2,0-1.54.73-2.32,2.18-2.32s2.31.82,2.31,2.45a2.7,2.7,0,0,1-.41,1.63l-2.58,4.22Z" transform="translate(-317.76 -324.98)"/><path class="cls-4" d="M375.79,375.4a.78.78,0,0,1,.14.54c0,.36-.23.54-.68.54H375c.27.19.4.37.4.55s-.09.41-.27.41H375l-.55-.14-.54.27c.45,1.36,1.18,1.95,2.17,1.77h.82a3.78,3.78,0,0,0,1.09-.41l.27-.41-.54-.27a.51.51,0,0,1-.14-.41c.45-.36.95-.76,1.5-1.22l1.63-1.36-1.63.14h-3.27Z" transform="translate(-317.76 -324.98)"/><path class="cls-7" d="M375.52,423.4v.14c-.91,0-1.36-.5-1.36-1.5a1.94,1.94,0,0,1,.54.48A11,11,0,0,0,375.52,423.4Z" transform="translate(-317.76 -324.98)"/><path class="cls-4" d="M375.38,410.62a21.59,21.59,0,0,1,4.83-9.72,30.72,30.72,0,0,1,10-6.6l-1.77-3.4q-6.53,3.94-9.38,7.34t-4.76,10.07A4.23,4.23,0,0,1,375.38,410.62Z" transform="translate(-317.76 -324.98)"/><path class="cls-5" d="M378,426.67c1.36.27,2,.77,2,1.49v.14a6.13,6.13,0,0,1-1.63-.75,5.33,5.33,0,0,0-2.45-.75l-1.09.28a.59.59,0,0,0,.2.34,5,5,0,0,0,1.3.61,10.91,10.91,0,0,0,4.62,1.22,9.49,9.49,0,0,0,3.26-.54A25.72,25.72,0,0,0,378,426.67Z" transform="translate(-317.76 -324.98)"/><path class="cls-5" d="M376.2,333.92a1,1,0,0,0-.68.95c0,.36.23.54.68.54.63,0,.95-.22.95-.68S376.83,333.92,376.2,333.92Z" transform="translate(-317.76 -324.98)"/><path class="cls-5" d="M376.61,330.52c-.46,0-.68.27-.68.81s.22.82.68.82c.63,0,.95-.27.95-.82S377.24,330.52,376.61,330.52Z" transform="translate(-317.76 -324.98)"/><path class="cls-4" d="M375.93,411.44q5.16-12.51,10.2-12.52c1,0,1.49.6,1.49,1.77q0,1.5-2,1.5c.46.45.82.68,1.09.68a2.68,2.68,0,0,0,2.18-1.36c.18-.18.31-.27.41-.27l.81.13c.45,0,.68-.31.68-.95a.92.92,0,0,0-.41-.82l-.54-.54a.4.4,0,0,1-.14-.27c.82-.55,1.23-1,1.23-1.5,0-.09-.09-.13-.27-.13h-.68l-2.72-.14q-2.6-.13-7.21,5.3A21.7,21.7,0,0,0,375.93,411.44Z" transform="translate(-317.76 -324.98)"/><path class="cls-4" d="M376.61,373.63l-.27.81.54.14.68-.68c.09,0,.14.09.14.27l-.14.27a.44.44,0,0,1,.14.28,4.86,4.86,0,0,1,.81-.28c.36-.08.55-.22.55-.4v-.41l-.55-.55a1.38,1.38,0,0,1,.41-.74,1.4,1.4,0,0,0,.41-.75c0-.18-.05-.27-.14-.27-1.36,0-2.13.5-2.31,1.49Z" transform="translate(-317.76 -324.98)"/><path class="cls-5" d="M379.74,337a2.23,2.23,0,0,1,1.9-2.17c2.54-.55,3.81-1.31,3.81-2.31,0-1.72-1.09-2.59-3.27-2.59a3.44,3.44,0,0,0-2.44.68l-1.09,1.23-1.63.81a.56.56,0,0,0-.14.41c0,.18.22.27.68.27a2.06,2.06,0,0,0,1.63-.81l1.23-1.5c.09-.36.63-.54,1.63-.54h.27c1.27-.18,1.9.4,1.9,1.76v.28c-.18.81-.54,1.22-1.08,1.22H381.5a2.13,2.13,0,0,0-1.56.82,2.32,2.32,0,0,0-.75,1.49A1.47,1.47,0,0,0,379.74,337Z" transform="translate(-317.76 -324.98)"/><path class="cls-7" d="M377.29,415.93a3.31,3.31,0,0,1,.41,1.08l.27.82a.78.78,0,0,1-.14.95,4.33,4.33,0,0,1-.27-1Q377.43,417,377.29,415.93Z" transform="translate(-317.76 -324.98)"/><path class="cls-7" d="M378.1,424.08a10.6,10.6,0,0,1,3-.54,4.93,4.93,0,0,1,.74.07c.32.05.71.11,1.16.2l-1,.27c-.32.1-.7.23-1.16.41A12.65,12.65,0,0,1,378.1,424.08Z" transform="translate(-317.76 -324.98)"/><path class="cls-4" d="M379.19,418.51l.82-1.63-.27-3c0-1,.31-1.49.95-1.49a.48.48,0,0,1,.54.54,4.73,4.73,0,0,1-.27.89,3.71,3.71,0,0,0-.27,1.15c0,1.36.63,2,1.9,2a.36.36,0,0,0,.41-.4.42.42,0,0,0-.14-.28l-.81-.95-.14-1.22.68-1.5.14-.41c0-1.17-.5-1.77-1.5-1.77a2.11,2.11,0,0,0-1.7,1,3.22,3.22,0,0,0-.75,1.83v.27l.55,2.45Z" transform="translate(-317.76 -324.98)"/><path class="cls-3" d="M379.06,337v.41c0,2.09,1,3.13,3,3.13h.54l.14.68a3.62,3.62,0,0,0,3.53-3.26c.09-1.36.46-2,1.09-2a.48.48,0,0,1,.55.54,2.57,2.57,0,0,1-1,1.63,9.87,9.87,0,0,1-1.15,3,4.2,4.2,0,0,0-.75,2,4.36,4.36,0,0,0,.41,1.64c.36-.36.63-.55.81-.55.28.19.41.32.41.41l.14,1.22c.18,1.28,1.09,1.91,2.72,1.91q2,0,2.31-1.23v-.4l-.88.4a2.48,2.48,0,0,1-.89.28c-1.45,0-2.17-.91-2.17-2.72q0-1.23,1.9-5.31a4.68,4.68,0,0,0,.82-2.17,2.4,2.4,0,0,0-2.72-2.72c-1,0-2,.72-2.86,2.17-1.18,2-2.22,3-3.13,3Q380.82,339.08,379.06,337Z" transform="translate(-317.76 -324.98)"/><path class="cls-4" d="M386,420.55a31.83,31.83,0,0,1-1.49-6.8,7.17,7.17,0,0,1,.13-1.77l.82-4.08.13-.82a9.63,9.63,0,0,0-.54-3l-1,.41-1.36-.95h-1.09l-.41.81a5.1,5.1,0,0,1-1.09,1.09,2.27,2.27,0,0,0-.95,1.63,1.41,1.41,0,0,0,1.09,1.36q.41-2,1.77-2c1.36,0,2,1.55,1.9,4.63l-.13,2.31a14.93,14.93,0,0,0,2,6.94Z" transform="translate(-317.76 -324.98)"/><path class="cls-7" d="M382.46,397.7a6.91,6.91,0,0,1,1.49-2.31,13.1,13.1,0,0,1,1.23-.89,4,4,0,0,0,.81-.61,3.85,3.85,0,0,1,2.18-1.22c.18,0,.27.05.27.13,0,.28-.45.6-1.36,1a16.11,16.11,0,0,0-2.86,2c-.09.09-.27.29-.54.61S383,397.16,382.46,397.7Z" transform="translate(-317.76 -324.98)"/><path class="cls-4" d="M384.5,345.34q1.9,17.42,15,17.41a22.13,22.13,0,0,0,6-1.23l-.14-.81q-5.43,1.1-6.12,1.09a9.2,9.2,0,0,1-3.26-.68.54.54,0,0,1-.41-.55.38.38,0,0,0,.27-.13l1.09-.68c.27-.09.41-.36.41-.82l-.27-1.09-.14-.41a2.66,2.66,0,0,1-2.72,2q-6.79,0-8.7-13.73Z" transform="translate(-317.76 -324.98)"/><path class="cls-4" d="M412.92,425.85a34.18,34.18,0,0,1-11.15,2.31A15.51,15.51,0,0,1,391,424.29a12.87,12.87,0,0,1-4.29-10,8.2,8.2,0,0,1,4.08-7.07l-.54-.14a4.42,4.42,0,0,1-1.23.82l-.81.68-.41.27.27-.68,1-1.09-.81.41c-.09.09-.37.39-.82.89s-.72.74-.81.74a2.76,2.76,0,0,1,1.08-1.7,3.23,3.23,0,0,1,2.18-1,2.53,2.53,0,0,1,2.86,2.45c.18,1.27.49,1.91.95,1.91q.27,0,.75-.48c.31-.32.56-.48.74-.48s.23.23.41.68a2.11,2.11,0,0,0,1.5,1.64,5.34,5.34,0,0,1,.54-.89,3.42,3.42,0,0,0,.41-.61c1.27-1.54,1.9-2.72,1.9-3.54a2.7,2.7,0,0,0-.95-2.17.54.54,0,0,1-.41-.55.91.91,0,0,1,.28-.68l.54-.68.14-1.22h-3.68c-1.9-.18-3.31.18-4.21,1.09q4.49.4,4.49,2a.25.25,0,0,1-.28.27,4,4,0,0,1-1.76-1.09,1.73,1.73,0,0,0-1.77-.54,4.91,4.91,0,0,0-3.4,1.22h1.22a1.1,1.1,0,0,1,.68-.13c.36,0,.55.09.55.27s-.23.41-.68.41l-.82-.14c-1.27,0-2.36.84-3.26,2.52a12.83,12.83,0,0,0-1.36,6.18A14.06,14.06,0,0,0,389.87,425q4.69,4.15,12.85,4.15a28,28,0,0,0,10.06-2.32Z" transform="translate(-317.76 -324.98)"/><path class="cls-4" d="M397,426.4a12,12,0,0,1-2.18-1.09q-4.89-2.58-4.89-6.53c0-2,.86-3,2.58-3,1.09,0,1.63.59,1.63,1.77v.4a2.55,2.55,0,0,0,1.23-1.9c0-1.27-.46-1.9-1.36-1.9l-1.09.13h-.68c-.18,0-.27-.22-.27-.68v-.13c0-.55-.14-.82-.41-.82-.46,0-1.18.64-2.18,1.9a4.34,4.34,0,0,0-.95,3.13Q388.44,424.22,397,426.4Z" transform="translate(-317.76 -324.98)"/><path class="cls-4" d="M391.84,335.82l.27-1.09c0-1.54-.72-2.26-2.17-2.17h-.14a3.81,3.81,0,0,0-.68.4q2,1.5,2,2l-.14.41Z" transform="translate(-317.76 -324.98)"/><path class="cls-4" d="M393.34,330.52h-.28a5.93,5.93,0,0,1-2.31-.41.56.56,0,0,0-.41-.14c-.09,0-.13,0-.13.14,0,.54.36.81,1.09.81A12.18,12.18,0,0,0,393.34,330.52Z" transform="translate(-317.76 -324.98)"/><path class="cls-3" d="M396.87,348.74a8.7,8.7,0,0,0-3.53-.95c-1.27,0-2.14.77-2.59,2.31l-.27,1.36c0,.46.18.68.54.68a1.56,1.56,0,0,0,.62-.14,1.86,1.86,0,0,1,.61-.13c.45,0,.68.13.68.41,0,.09-.46.27-1.36.54a1.88,1.88,0,0,0-1.36,2,2.33,2.33,0,0,0,.13.95h3.13a4.24,4.24,0,0,0,1.23-.13,8.93,8.93,0,0,0,.54.95.56.56,0,0,0,.41-.14l.68-.81,1.36-1.23a4.42,4.42,0,0,0,.68-2.58l-.82.27V352a2.45,2.45,0,0,1,.41-.95v-.54l-.95.95c-.91.91-1.63,1.36-2.18,1.36a.24.24,0,0,1-.27-.27.82.82,0,0,1,.27-.55l.95-.4,1.5-1.23a1.49,1.49,0,0,0,.54-.95l-.13-.41-.68.68a1.57,1.57,0,0,1-1.09.55c-.27,0-.41-.09-.41-.28C395.51,349.51,396,349.1,396.87,348.74Z" transform="translate(-317.76 -324.98)"/><path class="cls-4" d="M394.56,428.57a13.81,13.81,0,0,0-1.7-.61l-1.29-.34h-.27c-.73-.18-1.09.05-1.09.68,0,.46.13.68.41.68l.13-.13.95-.55a1.08,1.08,0,0,1,.68-.14A9.56,9.56,0,0,1,394.56,428.57Z" transform="translate(-317.76 -324.98)"/><path class="cls-5" d="M392.66,348.74a1.93,1.93,0,0,0-.34.61,9.12,9.12,0,0,1-.75,1.29,2.29,2.29,0,0,1-.14-.95C391.43,349.33,391.84,349,392.66,348.74Z" transform="translate(-317.76 -324.98)"/><path class="cls-4" d="M415,333.92a20.47,20.47,0,0,0-12.1-4.22q-7.08,0-10.88,2.86l.54.54a20.92,20.92,0,0,1,9.93-2.45q6,0,12.51,4.49Z" transform="translate(-317.76 -324.98)"/><path class="cls-3" d="M403.13,345.75a3.52,3.52,0,0,0,1.77-3.4,3.34,3.34,0,0,0-.82-2.45l-1.22-.95a6.23,6.23,0,0,1-.68-.82,13.28,13.28,0,0,0-1.09-1.22l-.82.54L400,338c-.18.27-.32.4-.41.4s-.27-.11-.54-.34a6.62,6.62,0,0,0-2.45-.61,4.61,4.61,0,0,1-3.13-1.9,4.94,4.94,0,0,0-1,2.85,5.42,5.42,0,0,0,1.09,3.27c.18.18.27.32.27.41-.18.18-.32.27-.41.27h-.13a.79.79,0,0,1-.55-.14h-.41c-.27,0-.4.09-.4.27a5.51,5.51,0,0,0,1.36,3.27c1.26,1.54,2.49,2.31,3.67,2.31a3.81,3.81,0,0,1,.95-.27c-.64-.27-.95-.55-.95-.82a.55.55,0,0,1,.41-.13c-.1,0,.22.09.95.27l.27-.14a1.6,1.6,0,0,1-.82-1.36c0-.09.05-.13.14-.13.45,0,.86.32,1.22.95l.41-.27-.81-.68-.68-1.23-.55-.54-.13-.27c0-.36.13-.55.4-.55s.48.39.89,1.16a3.24,3.24,0,0,0,2.24,1.56.79.79,0,0,1-.13-.54c0-.27.09-.41.27-.41.36,0,.54.32.54.95h.68a.55.55,0,0,1-.13-.41c0-.08.09-.22.27-.4C402.81,344.8,403,345.12,403.13,345.75Z" transform="translate(-317.76 -324.98)"/><path class="cls-2" d="M421.9,421.5a8.36,8.36,0,0,1-2.86.82,10.21,10.21,0,0,1-1.09-.07c-.45-.05-1-.11-1.77-.21a24.24,24.24,0,0,0-3.53-.13l-7.75-.14h-3.54a15.32,15.32,0,0,0-1.77.14c-.91.09-1.72.16-2.45.2s-1.36.07-1.9.07a11,11,0,0,1-3.13-.41,2.14,2.14,0,0,0,2.18,1.23h1.9a4.53,4.53,0,0,0,1.09-.14c4.08-.27,6.84-.41,8.3-.41h3.26c.63,0,1.4.05,2.31.14l5,.27a6.44,6.44,0,0,0,1.23.14h1.9c1.54,0,2.4-.28,2.59-.82L422,422Z" transform="translate(-317.76 -324.98)"/><path class="cls-4" d="M397.79,364.52a5.14,5.14,0,0,0-1.5,3.8l.14.41.27.68.14.41a.13.13,0,0,1-.14.14h-1.36q1.91,3.94,4.63,3.8h1.22c.27-.08.41,0,.41.14a1.59,1.59,0,0,1-.21.54,1.84,1.84,0,0,0-.2.55c.18.18.32.27.41.27a3.42,3.42,0,0,0,1.09-.41l3.26-2.31q3-2,3-9.11a9.91,9.91,0,0,0-.47-2.79,9.69,9.69,0,0,1-.48-2c0-.36.09-.55.27-.55.36,0,.64.41.82,1.23l.41,2a11.8,11.8,0,0,1,.27,2.17,15.66,15.66,0,0,1-.68,4.9L408,370.91l-.14.81-.27.55c0,.27.09.41.27.41l.41.13.41.82c.09.36.45.54,1.09.54.36,0,.54-.13.54-.41a.58.58,0,0,0-.13-.4l-.55-.41a1.59,1.59,0,0,1-.27-1.09,4.1,4.1,0,0,1,.54-2A18.78,18.78,0,0,0,407,350q-3.14-3.25-5.17-3.26c-2.18,0-3.26,1.09-3.26,3.26,0,1.18.9,2.68,2.72,4.49q6,5.71,6,10.2a8,8,0,0,1-1.63,5.1,5,5,0,0,1-4.08,2.11q-3.81,0-3.81-3.13c0-1.81.72-2.72,2.18-2.72h.13c-.27,0,0,.09.68.27h.55c.09,0,.13,0,.13-.13,0-.73-.54-1.09-1.63-1.09a1.43,1.43,0,0,0-.82.14l-.4.4-.28.28c-.09-.28-.18-.52-.27-.75S397.88,364.7,397.79,364.52Z" transform="translate(-317.76 -324.98)"/><path class="cls-4" d="M400.68,331.74c-3.26.18-4.9,1-4.9,2.58,0,1,.46,1.5,1.36,1.5a2.19,2.19,0,0,0,1.64-1.09h-.28c-.63,0-.95-.27-.95-.81C397.55,333.19,398.59,332.47,400.68,331.74Z" transform="translate(-317.76 -324.98)"/><path class="cls-4" d="M406,376.21l-1.36-.27c-.72,0-1.22.46-1.49,1.36-.09.36-.19.54-.27.54s-.28-.08-.28-.27l.14-.41c0-.18-.05-.27-.14-.27q-.81,0-.81,1.23a3.87,3.87,0,0,0,.47,1.63,3.64,3.64,0,0,1,.48,1.36c0,1.09-.63,1.63-1.9,1.63s-1.77-.68-1.77-2a6.06,6.06,0,0,1,.47-2A5.91,5.91,0,0,0,400,377a1.85,1.85,0,0,0-.88-1.36,2.75,2.75,0,0,0-1.57-.68,3,3,0,0,0-1.77,1.09,3.07,3.07,0,0,1,1.23-.41,1.57,1.57,0,0,1,1.77,1.77l-.14.54-.41,1.5c-.09.09-.13.4-.13.95,0,2.17.9,3.26,2.72,3.26a5.09,5.09,0,0,0,3-1.49.58.58,0,0,1,.41.13,3.77,3.77,0,0,0,.68-1.49.79.79,0,0,0-.14-.55l-.54-.81a4.27,4.27,0,0,1-.28-1.09C403.94,377.21,404.62,376.48,406,376.21Z" transform="translate(-317.76 -324.98)"/><path class="cls-4" d="M396.46,407.22l.14-.14a.38.38,0,0,1,.14-.27,5,5,0,0,1,.68,1.16,3.78,3.78,0,0,1,.4,1.15c-.27-.08-.68-.63-1.22-1.63a4.18,4.18,0,0,1-.68-1.36c0-.27,0-.41.14-.41.63,0,.95.55.95,1.64,0,.45-.09.4-.27-.14C396.55,407,396.46,407,396.46,407.22Z" transform="translate(-317.76 -324.98)"/><path class="cls-3" d="M398.1,355.13a1.49,1.49,0,0,0-.55.95,2,2,0,0,0,1.09,1.77h.68l.54-.27,1.64,1.22a4.58,4.58,0,0,0,.54-2v-.4a10.06,10.06,0,0,1-1.36-1.36v.27q0,.81-.54.81c.18,0-.05-.68-.68-2a4,4,0,0,0-.41-.68.82.82,0,0,0-.41.68v.14l.14.68V355a.78.78,0,0,1-.14.54.94.94,0,0,0-.27-.2A1,1,0,0,1,398.1,355.13Z" transform="translate(-317.76 -324.98)"/><path class="cls-4" d="M398.37,407.76c-.09-.08-.14-.36-.14-.81a6.32,6.32,0,0,0-.13-1.36,1.58,1.58,0,0,1,.54,1.09Z" transform="translate(-317.76 -324.98)"/><path class="cls-4" d="M399.05,386.68l1.22,2.32,1.77-.14a21.65,21.65,0,0,0,4.76-.68,5,5,0,0,0,2.18-2l-.55-.14H408c-.27,0-.4-.08-.4-.27s.09-.22.27-.41l.41-.27a5.34,5.34,0,0,0,2-2.45.77.77,0,0,0,.13-.54c0-.09-.13-.14-.41-.14l-.95.14c-.09,0-.13,0-.13-.14v-.4c.09-.46.15-.82.2-1.09a5,5,0,0,0,.07-.68c0-1.81-.77-2.81-2.31-3h-.28a1.89,1.89,0,0,0-.81.13,3.11,3.11,0,0,1,1.63,2.59Q407.48,384.23,399.05,386.68Z" transform="translate(-317.76 -324.98)"/><path class="cls-4" d="M403.94,426.94c-2.08-.18-3.12-.72-3.12-1.63s.49-1.41,1.49-1.23h.82a5.58,5.58,0,0,0-1.91-.4c-1.18,0-1.76.4-1.76,1.22q0,2.31,3.12,2.31a2.08,2.08,0,0,0,.55-.07Z" transform="translate(-317.76 -324.98)"/><path class="cls-7" d="M404.76,349.83a8.74,8.74,0,0,0-3-.68,4.7,4.7,0,0,0-1.91.41c.37-1.18,1-1.77,1.91-1.77S403.76,348.47,404.76,349.83Z" transform="translate(-317.76 -324.98)"/><path class="cls-4" d="M400.54,389.81l1,2.45a9.65,9.65,0,0,1,5.37,2.65,6.41,6.41,0,0,1,2.11,4.56,4.14,4.14,0,0,1-2,3.81,2.84,2.84,0,0,0,1.08.13c1.64,0,2.54-.9,2.72-2.72,0-.54.09-.81.28-.81a2.23,2.23,0,0,1,.68.34,1.87,1.87,0,0,0,.81.34.49.49,0,0,0,.55-.55l-.14-.54-.41-1.91c-.54-2.17-1.68-3.3-3.4-3.4a.86.86,0,0,1,.55-.13c1.54-.18,2.31-.36,2.31-.55a1,1,0,0,1-.21-.27.94.94,0,0,0-.2-.27l-.82-1.09c-1.36-1.63-3.62-2.45-6.8-2.45A20,20,0,0,0,400.54,389.81Z" transform="translate(-317.76 -324.98)"/><path class="cls-4" d="M403,335.28a1.9,1.9,0,0,1-.68-1.23c0-1.27.82-1.9,2.45-1.9.45,0,1,0,1.63.07s1.32.11,2,.2a11.83,11.83,0,0,0-4.08-.95c-2.26,0-3.4.77-3.4,2.31,0,1,.36,1.5,1.09,1.5Z" transform="translate(-317.76 -324.98)"/><path class="cls-5" d="M404.22,342.21a7.78,7.78,0,0,1-2.45-2.31,15.27,15.27,0,0,1,1.63,1A1.63,1.63,0,0,1,404.22,342.21Z" transform="translate(-317.76 -324.98)"/><path class="cls-1" d="M407.75,357.31l-1.63-1.91-1.36-2.17-1.22-1.63-.82-1.5A18.27,18.27,0,0,1,407.75,357.31Z" transform="translate(-317.76 -324.98)"/><path class="cls-7" d="M406.39,386.41l-.81,1.23-2.32-.41A9.24,9.24,0,0,0,406.39,386.41Z" transform="translate(-317.76 -324.98)"/><path class="cls-3" d="M407.89,348.6a9.17,9.17,0,0,1,1.22.28,4.73,4.73,0,0,0,2-.82c.91-.54,1.36-1,1.36-1.36,0-.09-.13-.22-.41-.41s-.4-.31-.4-.41.09-.22.27-.4l1.09-.41c.54-.18,1-1,1.49-2.59-1.45-.45-2.4-.76-2.85-1a3.15,3.15,0,0,0-1-.27,3,3,0,0,0-.95.14h-.13c-.1,0-.19-.14-.28-.41v-.68a4.1,4.1,0,0,0-1.22-.14,3,3,0,0,0-2.31,1.5l.27.27a1.72,1.72,0,0,0-.41.68.94.94,0,0,0,.27.2,1.57,1.57,0,0,1,.28.21,3.61,3.61,0,0,0-.68.81l.4-.13a.77.77,0,0,1,.68.41c0,.27-.36.4-1.08.4l-.41.41H406l.68-.13h.14c.18,0,.27,0,.27.13,0,.55-.54.82-1.63.82l-.68-.14-.27.27a1.75,1.75,0,0,0,1.09.41,4,4,0,0,0,2-.68,4.74,4.74,0,0,1,1.43-.68.24.24,0,0,1,.27.27.55.55,0,0,1-.14.41l-.81.41-1.23.68-1.36.14.27.4c.73-.08,1.23-.15,1.5-.2s.27-.07,0-.07c.27,0,.41,0,.41.14,0,.45-.32.73-.95.81l.13.28a.56.56,0,0,1,.41-.14C407.66,348.06,407.8,348.24,407.89,348.6Z" transform="translate(-317.76 -324.98)"/><path class="cls-4" d="M405.85,426.4a7.62,7.62,0,0,1,1.49-.14h1.09a8.76,8.76,0,0,0,4.63-1.63,1.1,1.1,0,0,0,.4-.68.24.24,0,0,0-.27-.27l-.68.13-3.4,1.09-.54.14a5.63,5.63,0,0,1-3.13-1.5l-.41.82.14.13.27.55.54.54Z" transform="translate(-317.76 -324.98)"/><path class="cls-2" d="M406.26,374.85l-.82-.27h-.27c0,.27.18.41.54.41A.83.83,0,0,0,406.26,374.85Z" transform="translate(-317.76 -324.98)"/><path class="cls-7" d="M408.16,392.12a10.91,10.91,0,0,1-1.29-.61,12.75,12.75,0,0,0-1.29-.61,8.68,8.68,0,0,0,1.22-.27c1.09,0,1.63.09,1.63.27l-.27.54A.49.49,0,0,0,408.16,392.12Z" transform="translate(-317.76 -324.98)"/><path class="cls-2" d="M406.8,373.08a.48.48,0,0,0-.54.55c.18.18.31.27.4.27a.36.36,0,0,0,.41-.41C407.07,373.22,407,373.08,406.8,373.08Z" transform="translate(-317.76 -324.98)"/><path class="cls-4" d="M409.79,337l-.13-.68c-1.09-.81-1.64-1.44-1.64-1.9,0-.27.23-.54.68-.82-1.08,0-1.63.32-1.63,1a1.82,1.82,0,0,0,.55,1.36Z" transform="translate(-317.76 -324.98)"/><path class="cls-2" d="M408.3,374.31l-.68.27c-.19.18-.28.32-.28.41s.09.27.28.27.27,0,.27-.14Z" transform="translate(-317.76 -324.98)"/><path class="cls-4" d="M408.57,388.32q1.49.27,2.79.54l2.65.54.27.82v.54l1.77,1,.68,1.08a1.8,1.8,0,0,0,.41-1.08,1.4,1.4,0,0,0-1-1.36c-.68-.28-1-.68-1-1.23a.48.48,0,0,1,.54-.54l.95-.14c.64,0,1-.59,1-1.77a3,3,0,0,0-1.08-1.76v.27c.18,1.36-.46,2.09-1.91,2.17-.18,0-.27.05-.27.14l-.14.41-.13.41h-1.23l-2.31-.41h-1.09Z" transform="translate(-317.76 -324.98)"/><path class="cls-5" d="M410.74,347a1.3,1.3,0,0,0-.13.95.4.4,0,0,0-.27.14h-1.5a8.93,8.93,0,0,0,1-.54C410.06,347.34,410.38,347.16,410.74,347Z" transform="translate(-317.76 -324.98)"/><path class="cls-4" d="M409.79,385.73q10.33-8.3,10.34-16.18a6,6,0,0,0-.55-2.86l-.95-1.36a6.57,6.57,0,0,1-.34-1.09c-.13-.54-.25-.81-.34-.81-.36,0-.77.63-1.22,1.9l-.14.41v.14l.27.54-.4.14-1.09-.14h-.27a2.51,2.51,0,0,0-2.11.88,2.9,2.9,0,0,0-1,2c0,.27.22.63.68,1.08,0-1.26.68-1.9,2-1.9q2.85,0,2.85,3.54,0,5.43-8,13.05Z" transform="translate(-317.76 -324.98)"/><path class="cls-4" d="M409.66,389.81l.81.95a20.91,20.91,0,0,1,3.61,1.7,26.86,26.86,0,0,1,3.19,2.25l3,2.45a4.39,4.39,0,0,0,1.36.68,1.89,1.89,0,0,0,.82-.14l-.14-.95a3.69,3.69,0,0,0,.68-1.5,2.26,2.26,0,0,0-.81-1.49V394c0,1.09-.46,1.63-1.36,1.63a4.65,4.65,0,0,1-2.59-1.09l-2.72-2A24.27,24.27,0,0,0,409.66,389.81Z" transform="translate(-317.76 -324.98)"/><path class="cls-4" d="M409.93,386.28q5.56-1.77,9.52-9.39,2-3.67,3.53-3.67c-.18-.82-.54-1.22-1.08-1.22-.73,0-1.27.54-1.64,1.63A29.91,29.91,0,0,1,409.93,386.28Z" transform="translate(-317.76 -324.98)"/><path class="cls-4" d="M414.42,337.86l-.28-.95a4.58,4.58,0,0,0-2.17-1.09,1,1,0,0,0-1.09,1.09c0,.27.22.63.68,1.09v-.41a.48.48,0,0,1,.54-.55,4.7,4.7,0,0,1,1.16.34C413.85,337.61,414.23,337.77,414.42,337.86Z" transform="translate(-317.76 -324.98)"/><path class="cls-2" d="M412.65,401.51a1.3,1.3,0,0,0-1.09.81h.14A1,1,0,0,0,412.65,401.51Z" transform="translate(-317.76 -324.98)"/><path class="cls-5" d="M412,403.41a1.13,1.13,0,0,0-.41.68c0,.27.23.5.68.68h.14a.94.94,0,0,0,.68-.27C413.06,404.23,412.69,403.87,412,403.41Z" transform="translate(-317.76 -324.98)"/><path class="cls-4" d="M420.54,419.05A23.93,23.93,0,0,0,422.85,409a18.77,18.77,0,0,0-2.93-10.13,16.83,16.83,0,0,0-7.54-6.74c.63.64.95,1.09.95,1.36l.13.55c0,.45.39.88,1.16,1.29a8.06,8.06,0,0,1,1.43.88l1.22,1.5a13.48,13.48,0,0,1,1,1.36,14.61,14.61,0,0,1,2,7.89,8.76,8.76,0,0,1-1.42,4.9c-1,1.45-2,2.17-3.2,2.17a2.41,2.41,0,0,1-2.58-1.77v-.4a2.23,2.23,0,0,1,.95-1.64l1.36-.95a1.34,1.34,0,0,0,.68-1.22c.18-1-.27-1.5-1.36-1.5.09,0-.14.09-.68.27a1.1,1.1,0,0,1,.54.82,1.59,1.59,0,0,1-.95,1.36,3.44,3.44,0,0,0-1.9,2.86,3,3,0,0,0,.61,2,4.56,4.56,0,0,0,1.36,1.15,7.89,7.89,0,0,0,1.83.68l-.13.55q0,.27.54.27h1.63a2.79,2.79,0,0,0,2.86-2.86c0-.9.23-1.36.68-1.36.27,0,.41.27.41.82a2,2,0,0,1-.41,1.22l-1.5,2.45-1.22,1.77Z" transform="translate(-317.76 -324.98)"/><path class="cls-4" d="M411.7,394.71q4.49,3.94,4.48,5.71a3.63,3.63,0,0,1-.54,1.77,1.74,1.74,0,0,0,1.22-1.63c0-1.91-1.49-3.9-4.48-6Z" transform="translate(-317.76 -324.98)"/><path class="cls-4" d="M419.86,365.2l.13.4a11.22,11.22,0,0,0,.68-2.72q0-4.49-4.08-4.48c-2.27,0-3.4,1.08-3.4,3.26a2.72,2.72,0,0,0,1.63,2.31,3.42,3.42,0,0,1-.54-1.63c0-1.9,1-2.86,3-2.86s2.86,1.18,2.86,3.54a9,9,0,0,1-.07,1C420,364.34,419.94,364.74,419.86,365.2Z" transform="translate(-317.76 -324.98)"/><path class="cls-5" d="M413.33,402.6v.13c0,.73.18,1.09.54,1.09.55,0,.95-.41,1.23-1.22Z" transform="translate(-317.76 -324.98)"/><path class="cls-2" d="M414.14,404.64c-.45,0-.68.18-.68.54a.8.8,0,0,0,.55.27c.36,0,.54-.13.54-.41S414.42,404.64,414.14,404.64Z" transform="translate(-317.76 -324.98)"/><path class="cls-4" d="M415,423.81a4.1,4.1,0,0,0-1.5,2.59,1.71,1.71,0,0,0,.82,1.49,4.86,4.86,0,0,1,.41-1.22l.54-1.09Z" transform="translate(-317.76 -324.98)"/><path class="cls-4" d="M414.55,332.56a4.91,4.91,0,0,1-.13-1.36,4.2,4.2,0,0,1,.13-1.23c-.54.46-.81.82-.81,1.09A2.28,2.28,0,0,0,414.55,332.56Z" transform="translate(-317.76 -324.98)"/><path class="cls-5" d="M414.82,400.15c-.54,0-.81.32-.81,1s.13.95.41.95c.72,0,1.08-.45,1.08-1.36C415.5,400.33,415.28,400.15,414.82,400.15Z" transform="translate(-317.76 -324.98)"/><path class="cls-4" d="M421.08,369q2-7.06,1.9-10.6l-.13-5.85q0-5.44-2.18-7.07l-.68-.41a.78.78,0,0,1-.27-.55.24.24,0,0,1,.27-.27,1.93,1.93,0,0,1,.41.27l.27.28.82.81.68,1.09a8.51,8.51,0,0,0-2.25-4.56c-1-.95-1.56-1.51-1.56-1.7s.09-.13.27-.13c-.27,0,.36.5,1.91,1.49l-.68-1.49-1.09-1.91a8.6,8.6,0,0,1-.68-3.4c0-2.62.86-3.94,2.58-3.94.82,0,1.23.36,1.23,1.09a2.87,2.87,0,0,1-.82,1.36,2.77,2.77,0,0,0-.82,1.63c0,1.18.73,1.9,2.18,2.18a4.28,4.28,0,0,1-.95-2.32,11,11,0,0,1,.68-2,2,2,0,0,0,.41-1.22c0-1.09-.73-1.63-2.18-1.63a2.25,2.25,0,0,0-1.77.61c-.36.41-.68.8-.95,1.16h-.54q-1.23.27-1.23,2.58a2.26,2.26,0,0,0,.82,2l.68.54a.58.58,0,0,1,.13.41.36.36,0,0,1-.13.27,3.1,3.1,0,0,1-.68-.47,1.64,1.64,0,0,0-1.09-.34h-.41l.27,1.09.14,1.49a1.76,1.76,0,0,0,.95,1.63l1.09.68c.27.19.41.37.41.55a.56.56,0,0,1-.41.13H417c-.09,0-.14.1-.14.28a3.51,3.51,0,0,0,2,3,7,7,0,0,1,2.72,3.53,3.58,3.58,0,0,0,.28,1c0,.36-.1.54-.28.54s-.54-.45-.81-1.36c-.82-2.26-1.95-3.4-3.4-3.4a1.58,1.58,0,0,0-1.09.27,1.43,1.43,0,0,0,.95,1.29c.64.32,1,.57,1,.75-1.27.55-1.9,1.09-1.9,1.63a3.12,3.12,0,0,0,.82,1.09,1.22,1.22,0,0,1,1.08-.81q3.54,0,3.54,8.43a28.47,28.47,0,0,1-1.22,8.16,3.52,3.52,0,0,1,.34,1.09A8.19,8.19,0,0,0,421.08,369Z" transform="translate(-317.76 -324.98)"/><path class="cls-5" d="M416.18,403.28q-.81.27-.81.81l.13.14a.38.38,0,0,0,.28.13h.13c.55,0,.82-.18.82-.54A.48.48,0,0,0,416.18,403.28Z" transform="translate(-317.76 -324.98)"/><path class="cls-4" d="M421.9,426.94q-2.86,0-3.27-3l-2.45.13.14,1.09c.18.46.32.68.41.68h.41c.18-.18.36,0,.54.41.91,1.09,1.72,1.63,2.45,1.63A2.65,2.65,0,0,0,421.9,426.94Z" transform="translate(-317.76 -324.98)"/><path class="cls-4" d="M422,385.19l-.54.54.54.95.14.55c0,1.54-1.23,2.31-3.67,2.31l-.55-.14a3.09,3.09,0,0,0-1.09-.13.24.24,0,0,0-.27.27c0,.46.59.68,1.77.68a6.69,6.69,0,0,0,3-.82c1.09-.54,1.63-1.22,1.63-2l-.13-.4Z" transform="translate(-317.76 -324.98)"/><path class="cls-5" d="M419.72,383.56c-.73,0-1.09.4-1.09,1.22,0,.64.27,1,.82,1,.72,0,1.09-.31,1.09-1C420.54,384,420.26,383.56,419.72,383.56Z" transform="translate(-317.76 -324.98)"/><path class="cls-5" d="M419.86,381.24a.73.73,0,0,0-.82.82c0,.36.27.54.82.54s.81-.18.81-.54A.72.72,0,0,0,419.86,381.24Z" transform="translate(-317.76 -324.98)"/><path class="cls-5" d="M420.13,378.93a.6.6,0,0,0-.68.68c0,.55.18.82.54.82a.72.72,0,0,0,.82-.82A.6.6,0,0,0,420.13,378.93Z" transform="translate(-317.76 -324.98)"/><path class="cls-2" d="M421.08,376.89c-.36,0-.54.23-.54.68a.36.36,0,0,0,.4.41c.28,0,.41-.18.41-.54A.82.82,0,0,0,421.08,376.89Z" transform="translate(-317.76 -324.98)"/><path class="cls-5" d="M421.9,382.33a.72.72,0,0,0-.82.82c0,.36.23.54.68.54a.6.6,0,0,0,.68-.68C422.44,382.56,422.26,382.33,421.9,382.33Z" transform="translate(-317.76 -324.98)"/><path class="cls-7" d="M422,353.36c.36.82.41,1.23.14,1.23a1.24,1.24,0,0,1-.21-.27,1.13,1.13,0,0,0-.2-.28c.18.55.27.32.27-.68,0,.28-.09.41-.27.41s-.32-.18-.41-.54-.18-.63,0-.82C421.8,352.14,422,352.46,422,353.36Z" transform="translate(-317.76 -324.98)"/><path class="cls-7" d="M421.62,406.81c.09.73.23,1.55.41,2.45v.54q.14,1.23-.81,1.23c.45,0,.68-.18.68-.55-.55-.81-.73-1.4-.55-1.76A8.08,8.08,0,0,0,421.62,406.81Z" transform="translate(-317.76 -324.98)"/><path class="cls-5" d="M422,378.39c-.45,0-.68.27-.68.81,0,.28.18.41.55.41a.48.48,0,0,0,.54-.54A.81.81,0,0,0,422,378.39Z" transform="translate(-317.76 -324.98)"/><path class="cls-2" d="M422,380.43c-.45,0-.68.18-.68.54s.18.41.55.41.68-.14.68-.41A.48.48,0,0,0,422,380.43Z" transform="translate(-317.76 -324.98)"/><path class="cls-8" d="M342.2,397.56l-5.85,12.92a19.53,19.53,0,0,1-4.15,6.4,16.1,16.1,0,0,1-6.32,3.13l-1.22.4c-.55.19-.82.37-.82.55,0,.45.72.68,2.18.68.54,0,1.85-.14,3.94-.41,1.36-.18,2.58-.29,3.67-.34a18.55,18.55,0,0,1,2.86.07h2.85l6.53.54a8.63,8.63,0,0,0,3.27-.81,9.78,9.78,0,0,0-1.36-.55,10.47,10.47,0,0,0-2.18-.41q-6.25-.41-6.26-5,0-3,5.58-13.46c-.09-.46-.16-.82-.2-1.09a3.44,3.44,0,0,1-.07-.55,3.34,3.34,0,0,1,.54-1.49l-.54-.14-.68.14-.14.13Z" transform="translate(-317.76 -324.98)"/><path class="cls-4" d="M370.35,410.21a7.46,7.46,0,0,1,.55-.95,4.48,4.48,0,0,1,.54-.68,41,41,0,0,0-2.31-5.64,22.18,22.18,0,0,0-2.93-4.36,19.29,19.29,0,0,0-4.08-3.53,55.32,55.32,0,0,0-5.64-3.2q-15-7.34-15-12.1a3.6,3.6,0,0,1,.75-2.31c.5-.64.88-1,1.15-1,.09,0,.14.1.14.28l-.27.27c.36.09.54.23.54.41q0-.13-.75.27a2.18,2.18,0,0,0-.88.68l.14.27c.54-.18.77-.27.68-.27a4.74,4.74,0,0,1,2,1.22,1.47,1.47,0,0,0,.95.55,4.39,4.39,0,0,0,1.36-.68,5.15,5.15,0,0,0-.27-.48,3,3,0,0,1-.28-.48.42.42,0,0,1,.14-.27l.68-.27a1.61,1.61,0,0,0,.68-1.5c0-.63-.18-1-.54-1a1.35,1.35,0,0,0-.55.27,1.61,1.61,0,0,1-1,.28H346l-2.59-.28c-2.26-.08-3.4,1.5-3.4,4.76l-1.08-.27h-.55l-.41.41a5.32,5.32,0,0,1,.28.75c.09.32.18.7.27,1.15a5.83,5.83,0,0,0,4.62,5.31c1.27.27,1.91.77,1.91,1.49,0,.55-.23.82-.68.82-.28,0-.64-.22-1.09-.68a2,2,0,0,0-1.36-.68,19.34,19.34,0,0,0-2.86,1.09l.41.54.68.55c.18.18.27.32.27.4s-.13.32-.41.41l-.68.27c-.18.19-1,1.28-2.44,3.27a10.39,10.39,0,0,0,3.53.95,3.63,3.63,0,0,0,1.36-.34,4,4,0,0,1,1.09-.34.48.48,0,0,1,.54.54c0,.37,0,.6-.13.68l.95.14a6.71,6.71,0,0,0,2.45-.95l3.53-1.77a4.1,4.1,0,0,1,2-.54c.46,0,.68.13.68.4s-.45.68-1.36,1l-1.9.54a5.08,5.08,0,0,0-3.94,4.49l.95.13c.18,2.64,1.09,4,2.72,4a2.75,2.75,0,0,0,1.9-1,2.32,2.32,0,0,1-2-2.32c0-2.62,2-3.94,6.12-3.94a13.38,13.38,0,0,1,9.05,3.67A20.29,20.29,0,0,1,370.35,410.21Z" transform="translate(-317.76 -324.98)"/><path class="cls-7" d="M358.73,348.11a3.39,3.39,0,0,1-1.06,2,13.4,13.4,0,0,1-1.88.28A11,11,0,0,1,358.73,348.11Z" transform="translate(-317.76 -324.98)"/></svg>