<?xml version="1.0" encoding="utf-8"?>
<!-- Generator: Adobe Illustrator 27.8.0, SVG Export Plug-In . SVG Version: 6.00 Build 0)  -->
<svg version="1.1" id="Livello_1" xmlns="http://www.w3.org/2000/svg" xmlns:xlink="http://www.w3.org/1999/xlink" x="0px" y="0px"
	 viewBox="0 0 1920 1080" style="enable-background:new 0 0 1920 1080;" xml:space="preserve">
<style type="text/css">
	.st0{clip-path:url(#SVGID_00000023274844912934713190000009978097448021514889_);}
</style>
<g>
	
		<image style="overflow:visible;enable-background:new    ;" width="533" height="625" xlink:href="../../../../../Desktop/mac.png"  transform="matrix(1.7636 0 0 1.7636 528 -15)">
	</image>
	<g>
		<g>
			<defs>
				<path id="SVGID_1_" d="M942.3,411c0,0,4.8,0.9,10.8-4.9c0,0,7.3-5.1,9.4-5.2c0,0-7.9-41.5,6.2-46.9c0,0,11.2-27.9,7.6-31.2
					c0,0-14.1-26.1-5.1-54.6c0,0-0.8-34.9,39.8-63.4c0,0,51.5-30.3,116.8,4.7c0,0,37.3,23.1,34,42.4c0,0,27.6,5,18.8,39.7
					c0,0-2.9,11.8-0.7,15.1c0,0,3,21.8,1,22.6c0,0,15.8,32.2,7,36.7c0,0,8.9,9.7,5.9,31.5c0,0-1.2,16.3,4.3,16.1
					c0,0,12,41.3,7.9,56.6c0,0-7.8,9.2,4.2,18.3c0,0,6.8,14.8,1.2,29.4l-264.2,11.2L942.3,411z"/>
			</defs>
			<clipPath id="SVGID_00000059306008569084901580000014429198571619811970_">
				<use xlink:href="#SVGID_1_"  style="overflow:visible;"/>
			</clipPath>
			
				<g id="zyPFCR_00000170242873773129512070000012110965419019622074_" style="clip-path:url(#SVGID_00000059306008569084901580000014429198571619811970_);">
				
					<image style="overflow:visible;enable-background:new    ;" width="1890" height="1417" id="zyPFCR" xlink:href="../../../../../Desktop/leonardo.png"  transform="matrix(0.3274 -1.385394e-02 1.385394e-02 0.3274 753 191.1036)">
				</image>
			</g>
		</g>
	</g>
</g>
</svg>
