<?xml version="1.0" encoding="utf-8"?><svg xml:space="preserve" viewBox="0 0 100 100" y="0" x="0" xmlns="http://www.w3.org/2000/svg" id="Layer_1" version="1.1" width="800px" height="800px" xmlns:xlink="http://www.w3.org/1999/xlink" style="width:100%;height:100%;background-color:transparent;animation-play-state:paused" ><g class="ldl-scale" style="transform-origin-z:0px;transform-origin-y:50%;transform-origin-x:50%;transform:rotate(0deg) scale(0.8, 0.8);animation-play-state:paused" ><circle fill="#fee8a2" r="26" cy="50.1" cx="50" style="fill:rgb(254, 232, 162);animation-play-state:paused" ></circle>
<path fill="#e15c64" d="M90 65.8c-.7-4-2.6-7.9-5.7-11-2.6-2.6-5.7-4.3-9-5.2 3.1-1 5.9-2.6 8.3-5 3.3-3.3 5.2-7.4 5.8-11.7-3.3-2.4-7.4-3.8-11.8-3.8-3.7 0-7.1 1-10 2.7 1.5-2.8 2.3-6 2.3-9.5 0-4.6-1.6-8.9-4.2-12.3-4 .7-7.9 2.6-11 5.7-2.6 2.6-4.3 5.7-5.2 9-1-3.1-2.6-5.9-5-8.3-3.3-3.3-7.4-5.2-11.7-5.8C30.4 13.9 29 18 29 22.4c0 3.7 1 7.1 2.7 10-2.8-1.5-6-2.3-9.5-2.3-4.6 0-8.9 1.6-12.3 4.2.7 4 2.6 7.9 5.7 11 2.6 2.6 5.7 4.3 9 5.2-3.1 1-5.9 2.6-8.3 5-3.3 3.3-5.2 7.4-5.8 11.7 3.3 2.4 7.4 3.8 11.8 3.8 3.7 0 7.1-1 10-2.7-1.5 2.8-2.3 6-2.3 9.5 0 4.6 1.6 8.9 4.2 12.3 4-.7 7.9-2.6 11-5.7 2.6-2.6 4.3-5.7 5.2-9 1 3.1 2.6 5.9 5 8.3 3.3 3.3 7.4 5.2 11.7 5.8 2.4-3.3 3.8-7.4 3.8-11.8 0-3.7-1-7.1-2.7-10 2.8 1.5 6 2.3 9.5 2.3 4.6 0 8.9-1.6 12.3-4.2zm-23-.1c-.2.3-.5.5-.7.8-4 4-9.4 6.5-15.4 6.8h-1.4c-6.1 0-11.6-2.3-15.8-6-.2-.2-.4-.4-.6-.5-4.3-4.1-7.1-9.8-7.4-16.1v-.6-.6c0-6.3 2.5-12.1 6.5-16.4l.3-.3c4.3-4.3 10.2-7 16.7-7.1h.5c6.4.1 12.2 2.7 16.4 6.9.2.2.4.4.5.6 4 4.2 6.4 9.8 6.5 16v1c.1 5.9-2.3 11.4-6.1 15.5z" style="fill:rgb(225, 92, 100);animation-play-state:paused" ></path>
<path fill="#f47e5f" d="M82.3 49.5c-1.6-2.6-4-4.7-7.1-6-2.5-1-5.2-1.4-7.7-1 1.8-1.5 3.4-3.5 4.3-5.9 1.3-3.2 1.5-6.6.7-9.7-3-.7-6.2-.5-9.2.8-2.5 1-4.6 2.7-6.2 4.7.2-2.4-.1-4.9-1.1-7.2a14.8 14.8 0 0 0-6.4-7.3c-2.6 1.6-4.7 4-6 7.1-1 2.5-1.4 5.2-1 7.7-1.5-1.8-3.5-3.4-5.9-4.3-3.2-1.3-6.6-1.5-9.7-.7-.7 3-.5 6.2.8 9.2 1 2.5 2.7 4.6 4.7 6.2-2.4-.2-4.9.1-7.2 1.1a14.8 14.8 0 0 0-7.3 6.4c1.6 2.6 4 4.7 7.1 6 2.5 1 5.2 1.4 7.7 1-1.8 1.5-3.4 3.5-4.3 5.9-1.3 3.2-1.5 6.6-.7 9.7 3 .7 6.2.5 9.2-.8 2.5-1 4.6-2.7 6.2-4.7-.2 2.4.1 4.9 1.1 7.2 1.3 3.2 3.6 5.7 6.4 7.3 2.6-1.6 4.7-4 6-7.1 1-2.5 1.4-5.2 1-7.7 1.5 1.8 3.5 3.4 5.9 4.3 3.2 1.3 6.6 1.5 9.7.7.7-3 .5-6.2-.8-9.2-1-2.5-2.7-4.6-4.7-6.2 2.4.2 4.9-.1 7.2-1.1 3.1-1.3 5.6-3.6 7.3-6.4zm-16 6.5c-.1.2-.2.5-.3.7-1.6 3.9-4.7 7.2-8.7 9.1-.2.1-.4.2-.7.3-.1 0-.2.1-.2.1-4.2 1.7-8.7 1.7-12.7.4-.2-.1-.4-.1-.6-.2-4.2-1.6-7.7-4.7-9.8-9.1-.1-.1-.1-.3-.2-.4-.1-.1-.1-.3-.2-.4-1.8-4.4-1.7-9.1-.2-13.2 0-.1.1-.2.1-.3 1.7-4.2 5-7.8 9.6-9.7.1 0 .1-.1.2-.1s.2-.1.2-.1c4.5-1.8 9.2-1.6 13.3 0 .2.1.4.2.5.2 3.9 1.8 7.3 4.9 9.1 9.2 0 .1.1.2.1.3.1.1.1.3.1.4 1.9 4.4 1.9 8.9.4 12.8z" style="fill:rgb(244, 126, 95);animation-play-state:paused" ></path>
<path fill="#f7b26a" d="M70 57.9c-.3-2-1.3-3.9-2.8-5.5-1.3-1.3-2.8-2.2-4.5-2.6 1.5-.5 3-1.3 4.2-2.5 1.6-1.6 2.6-3.7 2.9-5.8-1.7-1.2-3.7-1.9-5.9-1.9-1.8 0-3.5.5-5 1.3.7-1.4 1.2-3 1.2-4.7 0-2.3-.8-4.4-2.1-6.2-2 .3-3.9 1.3-5.5 2.8-1.3 1.3-2.2 2.8-2.6 4.5-.5-1.5-1.3-3-2.5-4.2-1.6-1.6-3.7-2.6-5.8-2.9-1.2 1.7-1.9 3.7-1.9 5.9 0 1.8.5 3.5 1.3 5-1.4-.7-3-1.2-4.7-1.2-2.3 0-4.4.8-6.2 2.1.3 2 1.3 3.9 2.8 5.5 1.3 1.3 2.8 2.2 4.5 2.6-1.5.5-3 1.3-4.2 2.5-1.6 1.6-2.6 3.7-2.9 5.8 1.7 1.2 3.7 1.9 5.9 1.9 1.8 0 3.5-.5 5-1.3-.7 1.4-1.2 3-1.2 4.7 0 2.3.8 4.4 2.1 6.2 2-.3 3.9-1.3 5.5-2.8 1.3-1.3 2.2-2.8 2.6-4.5.5 1.5 1.3 3 2.5 4.2 1.6 1.6 3.7 2.6 5.8 2.9 1.2-1.7 1.9-3.7 1.9-5.9 0-1.8-.5-3.5-1.3-5 1.4.7 3 1.2 4.7 1.2 2.4 0 4.5-.8 6.2-2.1zm-11.5 0c-.1.1-.2.3-.4.4-2 2-4.7 3.2-7.7 3.4h-.7c-3 0-5.8-1.1-7.9-3l-.3-.3c-2.2-2-3.5-4.9-3.7-8.1V50v-.3c0-3.2 1.2-6.1 3.3-8.2l.2-.2c2.1-2.2 5.1-3.5 8.4-3.5H50c3.2 0 6.1 1.3 8.2 3.4l.3.3c2 2.1 3.2 4.9 3.3 8v.5c-.2 3.1-1.4 5.8-3.3 7.9z" style="fill:rgb(247, 178, 106);animation-play-state:paused" ></path>
<metadata xmlns:d="https://loading.io/stock/" style="animation-play-state:paused" ><d:name style="animation-play-state:paused" >flower</d:name>


<d:tags style="animation-play-state:paused" >blossom,plant,petal,sunflower,cosmos,rose,hydrangea,flower,spinner</d:tags>


<d:license style="animation-play-state:paused" >by</d:license>


<d:slug style="animation-play-state:paused" >n8ata8</d:slug></metadata></g><!-- generated by https://loading.io/ --></svg>