<?xml version="1.0" encoding="utf-8"?>
<!-- Generator: Adobe Illustrator 27.8.0, SVG Export Plug-In . SVG Version: 6.00 Build 0)  -->
<svg version="1.1" id="Livello_1" xmlns="http://www.w3.org/2000/svg" xmlns:xlink="http://www.w3.org/1999/xlink" x="0px" y="0px"
	 viewBox="0 0 1920 1080" style="enable-background:new 0 0 1920 1080;" xml:space="preserve">
<style type="text/css">
	.st0{fill:#257189;}
	.st1{fill:#C4572E;}
	.st2{fill:#D26698;}
	.st3{fill:#D2AB10;}
	.st4{fill:#275E37;}
	.st5{fill:#133138;}
</style>
<g>
	<rect x="959.76" y="0.27" class="st0" width="959.55" height="1079.52"/>
	<rect x="0.21" y="0.41" class="st1" width="959.55" height="1079.52"/>
</g>
<g>
	<path class="st2" d="M960.66,1079.76c531-7.2,959.41-485.28,959.34-1073.91c0-1.72-0.02-3.43-0.03-5.15L960.53,0.84L960.66,1079.76
		z"/>
	<path class="st3" d="M960.59,522.59c1.12,0.01,2.23,0.05,3.35,0.05c257.49-0.04,466.2-230.8,466.16-515.42
		c0-2.16-0.05-4.3-0.07-6.45L960.53,0.84L960.59,522.59z"/>
</g>
<g>
	<path class="st4" d="M960.53,0.94C429.52,8.14,1.11,486.22,1.18,1074.85c0,1.72,0.02,3.43,0.03,5.15l959.44-0.14L960.53,0.94z"/>
	<path class="st5" d="M960.59,523.62c-1.19-0.01-2.38-0.05-3.57-0.05C682.51,523.61,460,769.62,460.04,1073.05
		c0,2.3,0.05,4.59,0.08,6.88l500.54-0.07L960.59,523.62z"/>
</g>
</svg>
