<?xml version="1.0" standalone="no"?>
<!DOCTYPE svg PUBLIC "-//W3C//DTD SVG 20010904//EN"
 "http://www.w3.org/TR/2001/REC-SVG-20010904/DTD/svg10.dtd">
<svg version="1.0" xmlns="http://www.w3.org/2000/svg"
 width="512.000000pt" height="512.000000pt" viewBox="0 0 512.000000 512.000000"
 preserveAspectRatio="xMidYMid meet">

<g transform="translate(0.000000,512.000000) scale(0.100000,-0.100000)"
fill="#000000" stroke="none">
<path d="M670 658 c0 -438 2 -476 19 -514 24 -52 90 -109 144 -122 28 -7 411
-13 1117 -17 l1075 -5 52 25 c28 14 64 42 78 62 53 69 55 88 55 580 l0 453
-766 -2 -767 -3 -31 -90 c-26 -76 -35 -91 -58 -99 -70 -24 -112 29 -89 112 8
26 16 57 18 70 l5 22 -426 0 -426 0 0 -472z"/>
</g>
</svg>
