<?xml version="1.0" encoding="utf-8"?>
<!-- Generator: Adobe Illustrator 27.8.0, SVG Export Plug-In . SVG Version: 6.00 Build 0)  -->
<svg version="1.1" id="Livello_1" xmlns="http://www.w3.org/2000/svg" xmlns:xlink="http://www.w3.org/1999/xlink" x="0px" y="0px"
	 viewBox="0 0 6549 2640" style="enable-background:new 0 0 6549 2640;" xml:space="preserve">
<style type="text/css">
	.st0{fill-rule:evenodd;clip-rule:evenodd;fill:#78A17A;}
</style>
<path class="st0" d="M756.78,622.71c-4.34,0-34.99-67.36-35.74-105.59c-0.67-33.96,18.23-64.69,31.85-94.88
	c8.61-19.08,18.95-53.46,28.65-50.44c3.69,1.16-3.61,28.31,1.72,48.03c8.67,31.97,29.77,49.28,26.93,82.59
	c-1.73,20.22-23.4,35.45-34.33,57.91C763.07,586.6,759,622.71,756.78,622.71L756.78,622.71z M3367.5,2235.53
	c-38.17-60.18-68.54-110.52-71.52-188.66c-2.36-78.37,45.77-88.4,59.34-73.19c19.01,21.32-5.4,44.54-17.08,92.14
	c-8.01,32.59-2.44,57.13,10.54,73.88c-3.57,5.55-7.06,11.16-10.48,16.81c5.65,10.91,11.73,21.55,18.02,32.03
	c2.59-4.55,9.69-14.64,20.04-28.01c34.26,14.47,81.05,5.11,106.29-26.35c34.33-24.5,80.35-57.36,161.41-57.36v-0.07h163.8
	c-32.32,13.19-63.68,30.79-90.6,53.95c-102.81,88.41-170.56,203.52-219.07,135.57c-40.13-51.13,119.33-138.82,149.22-168.81
	c-16.52,0.61-32.97,2.73-49.15,6.77c-37.28,9.29-121.25,54.68-149.23,116.06c-37.48,82.23,43.95,148.93,115.07,136.41
	c74.16-13.05,148.19-83.43,216.56-146.56c27.01-24.94,50.91-45.38,72.81-62.18h1561.31v-0.07c63.41,0,116.94-21.37,155.71-54.92
	h-63.12c-26.42,13.29-54.84,18.55-92.59,18.55v-0.07H3907.71c92.91-52.65,160.47-34.71,324.14-34.71h1111.8h316.7h45.71
	c77.37-2.65,152.6-20.06,217.89-70.7c-7.18-9.18-14.67-17.98-22.32-26.6c-63.93,48.12-139.74,61.87-217.01,61.85
	c-7.58,0-15.17,0.17-22.75,0.47H4231.85c-195.95,0-391.79,0-587.79,0v-0.07c-115.85,0.51-140.09,35.93-177.62,62.71
	c-23.8,16.99-41.22,29.43-61.3,20.81c73.5-86.03,206.42-212.99,245.46-100.38h8.19v0.07h27.93c13.52-30.4,9.99-57.66-22.06-79.92
	c-64.18-44.54-161.7,9.95-244.32,100.99c-14.84,16.35-29.18,33.82-42.75,52.02c-8.85-23.34,5.62-54.47,29.61-82.97
	c40.95-48.66,26.6-108.46-10.51-135.12c-65.13-46.8-135.93,46.26-137.58,142.54c-1.64-96.28-72.44-189.34-137.57-142.54
	c-37.11,26.66-51.45,86.46-10.5,135.12c23.98,28.5,38.45,59.63,29.6,82.97c-13.57-18.2-27.91-35.68-42.75-52.02
	c-82.61-91.05-180.14-145.54-244.31-100.99c-32.07,22.25-35.59,49.52-22.07,79.92h27.93v-0.07h8.19
	c39.04-112.61,171.95,14.35,245.46,100.38c-20.08,8.62-37.49-3.82-61.29-20.81c-37.53-26.78-61.77-62.2-177.62-62.71v0.07
	c-196,0-391.84,0-587.79,0H856.37c-7.59-0.3-15.17-0.47-22.74-0.47c-77.28,0.02-153.08-13.73-217.02-61.85
	c-7.65,8.62-15.14,17.41-22.31,26.6c71.03,55.11,153.84,70.87,238.36,71.08c8.39,0.02,16.8-0.11,25.23-0.38h72.85h91.92h1263.73
	c163.67,0,231.23-17.94,324.14,34.71H1103.48v0.07c-36.86,0-66-5.69-92.32-18.55h-63.39c38.77,33.55,92.3,54.92,155.71,54.92v0.07
	h1561.3c21.9,16.8,45.81,37.24,72.82,62.18c68.37,63.13,142.4,133.5,216.55,146.56c71.12,12.52,152.55-54.18,115.07-136.41
	c-27.98-61.39-111.94-106.77-149.22-116.06c-16.17-4.04-32.63-6.16-49.15-6.77c29.89,29.99,189.35,117.68,149.22,168.81
	c-48.51,67.95-116.26-47.16-219.07-135.57c-26.92-23.15-58.28-40.76-90.6-53.95h163.8v0.07c81.05,0,127.09,32.86,161.41,57.36
	c25.24,31.46,72.02,40.82,106.29,26.35c10.35,13.37,17.45,23.46,20.04,28.01c6.28-10.48,12.37-21.12,18.02-32.03
	c-3.42-5.66-6.92-11.26-10.48-16.81c12.98-16.75,18.54-41.29,10.54-73.88c-11.68-47.6-36.1-70.82-17.08-92.14
	c13.56-15.21,61.69-5.18,59.34,73.19c-2.97,78.14-33.35,128.48-71.51,188.66c-161.28,269.61,186.45,300.7,76.62,17.63
	c-3.97-10.23-8.26-20.48-12.85-30.67c-6.53,11.01-13.3,21.85-20.11,32.64c54.6,161.01-128.58,161.28-18.82,0.98
	c42.97-62.75,75.52-125.73,82.91-214.15c0.37-4.41,0.56-8.84,0.62-13.28c0.06,4.44,0.26,8.87,0.64,13.28
	c7.37,88.42,39.93,151.4,82.9,214.15c109.76,160.3-73.43,160.03-18.83-0.98c-6.81-10.79-13.58-21.63-20.11-32.64
	c-4.59,10.2-8.87,20.44-12.85,30.67C3181.06,2536.23,3528.78,2505.14,3367.5,2235.53L3367.5,2235.53z M5761.48,622.71
	c4.34,0,34.98-67.36,35.74-105.59c0.66-33.96-18.23-64.69-31.85-94.88c-8.62-19.08-18.95-53.46-28.65-50.44
	c-3.7,1.16,3.62,28.31-1.73,48.03c-8.65,31.97-29.77,49.28-26.91,82.59c1.73,20.22,23.38,35.45,34.33,57.91
	C5755.19,586.6,5759.26,622.71,5761.48,622.71L5761.48,622.71z M5870.63,516.58c2.61,13.2,5.23,26.42,5.83,39.37l0.02,0.21
	c0.62,13.12,0.74,28.35,0.85,44.11c0.2,25.91,0.42,53.21,2.67,74.06c2.52,23.3,8.14,44.28,13.73,65.09v0.03l0,0
	c6.37,23.75,12.68,47.29,13.76,73.38c1.71,41.1-2.7,82.53-7.12,123.99c-9.91,92.92,5.86,95.84,15.84,2.15
	c4.49-42.09,8.97-84.14,7.19-126.99c-1.19-28.39-7.79-53.02-14.45-77.87h-0.02c-5.33-19.89-10.71-39.95-13.1-61.99
	c-2.19-20.42-2.4-46.88-2.6-72c-0.14-16.24-0.26-31.93-0.87-44.89v-0.21c-0.69-14.49-3.45-28.48-6.2-42.44
	C5876.88,465.44,5861.08,468.16,5870.63,516.58L5870.63,516.58z M5550.11,1589.77c4.68,31.33,27.88,0.89,28.71,14.03
	c0.84,13.35-14.02,18.12-26.2,17.65c-14.79-0.57-27.11-21.27-28.68-37.88c-2.3-24.33,19.79-24.74,14.9-47.58
	c-1.1-5.18-6.43-13.9-21.49-13.6c-16.87,0.35-45.22,26-47.42,73.38c-1.28,27.69,7.21,56.87,18.14,81.63
	c30.6,69.27,87.76,122.62,103.62,198.06c9.71,46.16-6,150.25-23.99,138.48c-8.47-5.54,11.56-66.93-9.36-132.32
	c-17.01-53.17-126.35-101.59-126.1-243.29c0.23-127.57,73.29-136.52,88.26-134.99c29.64,3.05,42.13,29.21,41.09,51.63
	C5560.94,1569.37,5548.62,1579.79,5550.11,1589.77L5550.11,1589.77z M5647.9,2007.95c-2.37-3.9,18.02-73.41,18.74-107.68
	c0.71-34.39-17.44-78.31-15.23-111.04c4.37-64.8,30.73-82.41,57.85-84.37c33.61-2.43,60.03,19.03,57.64,55.76
	c-0.89,13.79-8.82,30.86-20.65,37.25c-8.88,4.79,10.14-25.61-3.51-37.48c-11.38-9.9-30.29,4.93-30.58,27.28
	c-0.63,49.12-5.53,76.3-16.55,132.64C5688.42,1957.07,5651.9,2014.49,5647.9,2007.95L5647.9,2007.95z M6148.27,1622.28
	c16.59,2.34,36.37-23.74,41.75-66.07c1.58-12.38,2.37-24.93,2.31-38.32c-0.39-73.79-14.24-151.94-15.08-225.71
	c-0.75-65.64,14.48-151.94,74.2-150.17c57.8,1.71,29,64.81,84.91,63.2c23.47-0.67,35.19-28.03,34.11-51.44
	c-1.31-28.35-35.4-34.99-35.86-26.65c-0.24,4.34,19.93,12.13,20.05,27.32c0.15,17.06-2.81,30.3-17.99,29.66
	c-21.94-0.94-19.43-21.93-26.51-59.15c-5.84-30.79-42.97-53.71-77.28-51.95c-100.56,5.17-136.39,127.13-128.52,223.53
	c6.02,73.63,41.15,141.96,50.35,215.16C6159.31,1548.26,6151.54,1607.32,6148.27,1622.28L6148.27,1622.28z M6084.58,1591.07
	c-6.88,7.81-21.31-22.22-30.65-62.24c-20-85.82-80.93-130.69-135.46-134.92c-30.73-2.39-70.79,1.97-74.98,30.38
	c-6.77,45.96,31.52,14.97,31.87,26.54c1.04,34.43-73.96,25.99-76.73-33.56c-2.01-43.31,28.77-94.3,101.77-94.49
	C6056.15,1322.39,6090.81,1545.41,6084.58,1591.07L6084.58,1591.07z M5894.23,1183.25c-16.99-29.44-13.71-58.63-37.34-85.98
	c-37.94-43.9-88.71-12.61-146.93-114.38c-67.43-117.85-31.63-280.74-60.88-417.52c-13.97-65.29-62.68-79.58-69.8-108.91
	c-7.4-30.42,17.55-45.14,22.09-43.28c8.86,3.62-5.63,28.98,4.4,43.8c12.97,19.17,57.01,14.14,95.11,69.57
	c61.17,89,42.01,133.41,59.79,235.96c5.15,29.65,17.63,58.95,29.99,87.98c9.28,21.79,18.5,43.43,24.09,64.08l0.02,0.05
	c4.45,16.47,4.28,37.84,4.13,57.96c-0.36,44.34,15.57,43.93,15.9,0.15c0.17-21.51,0.35-44.39-4.81-63.46l-0.01-0.05
	c-6.02-22.26-15.47-44.42-24.98-66.73c-11.91-27.97-23.94-56.21-28.67-83.48c-12.89-185.59,36.15-146.19,37.84-236.46
	c0.77-41.03-5.09-69.09,0-109.71c14.07-112.27,117.02-102.64,116.58-87.41c-0.24,8.91-39.65,11.2-39.02,32.96
	c2.64,91.35,34.53,110.81,53.52,166.13c10.65,31.03,12.12,61.58,21.15,90.83c5.47,17.73,10.89,35.32,12.22,55.41
	c1.01,15.08,1.13,30.55,1.25,46.07c0.15,17.97,0.29,36,1.68,53.11l0.01,0.19l0.02,0.16l0,0c1.19,14.49,4.52,28.2,7.85,41.88
	c4.07,16.76,8.12,33.48,7.61,49.96h0.02l-0.02,0.04c-0.72,23.61-9.43,46.02-18.19,68.6c-17.77,45.77-2.94,52.56,14.6,7.35
	c9.36-24.11,18.67-48.05,19.51-75.34l0,0c0.59-19.3-3.8-37.35-8.18-55.44c-3.15-12.96-6.31-25.95-7.36-38.71v-0.03l0,0l-0.02-0.17
	l-0.02-0.21c-1.34-16.41-1.47-33.99-1.61-51.51c-0.14-16.21-0.27-32.37-1.25-47.28c-1.5-22.49-7.28-41.22-13.11-60.12
	c-16.57-53.73-7.68-132.46,28.26-175.08c17.12-20.31,50.99-20.81,61.17-46.5c8.68-21.86-18.14-25.03-14.33-36.1
	c5.5-16,46.84-8.08,46.39,42.95c-0.44,49.03-44.69,94.36-45.08,143.39c-0.81,98.69,49.98,183.15,44.35,281.65
	c-16.2,283.39-131.11,191.71-176.2,287.05c-31.57,66.69,45.95,153.31,82.45,192.93c42.64,46.31,87.94,95.51,114.78,188.84
	c11.5,40.06,14.75,83.27,11.16,127.43c-6.67-3.01-13.34-6.06-20.05-9.09c-3.67-1.66-7.31-3.29-10.93-4.87
	c1.88-35.56-1.28-70.12-10.51-102.2c-24.3-84.55-66.59-130.48-106.42-173.72C5948.92,1285.21,5913.4,1246.63,5894.23,1183.25
	L5894.23,1183.25z M6231.9,2035.9c24.88,24.71,52.23,79.54,47.94,91.55c-3.86,10.81-96.17-14.08-126.87-55.46
	c-15.47-20.85-21.67-49.42-37.03-67.66c-22.54-26.76-45.79-45.2-73.47-61.53c21.44,5.83,42.74,11.07,64.04,18.85
	c18.08,6.6,32.78,17.57,48.63,29.05c16.99,12.31,32.86,22.68,52.47,28.81C6218.19,2022.8,6223.34,2027.41,6231.9,2035.9
	L6231.9,2035.9z M5961.55,543.87c-6.34-62.51-84.69-111.52-3.41-192.51c11.04-11,24.73-4.4,17.84,5.72
	c-1.97,2.88-4.99,18.82-4.82,22.42c1.49,31.43,12.16,39.07,9.93,70.43C5979.21,476.27,5966.18,491.88,5961.55,543.87L5961.55,543.87
	z M6392.67,1887.57c7.45-19.39-29.18-39.55-45.79-56.2c-19.61-19.68-21.84-35.49-43.66-37.34c-38.6-3.28-84.76,24.01-153.72-29.81
	c22.29,30.71,54.92,93.22,96.29,114.78C6292.17,1903.17,6385.35,1906.62,6392.67,1887.57L6392.67,1887.57z M6438.22,1795.04
	c1.89-17.7-1.49-41.17-13.31-47.53c-29.03-15.65-70.04,21.55-89.42,23.24c-20.24,1.77-29.78-2.81-50.05-1.49
	c-13.07,0.85-27.6,11.6-45.08,12.53c-77.9,4.13-112.54-69.94-174.21-101.02c-28.68-14.47-59.5-19.6-90.32-24.73
	c-68.35-11.39-69.17,6.88-2.24,18.04c29.69,4.95,59.38,9.9,86.13,23.38c76.33,38.47,91.7,114.72,152.24,174.33
	c31.48,30.99,76.8,40.13,105.97,73.95c22.74,26.36,42.98,111.55,31.76,114.91c-10.96,3.28-29.49-39.57-48.45-47.35
	c-28.61-11.73-62.41,0.82-90.27-7.89c-39.9-12.47-61.17-43.3-100.57-57.68c-67.35-24.58-107.54-19.83-173.34-71.03
	c-18.59-14.47-32.75-37.65-46.61-60.32c-27.51-45.02-40.26-34.11-13.05,10.41c14.72,24.07,29.77,48.68,50.69,64.96
	c66.83,52.02,120.95,54.2,178.65,122.71c13.53,16.06,18.46,53.89,28.25,74.1c14.58,30.11,33.69,33.62,34.08,75.85
	c0.6,68.72-100.14,76.66-100.14,29.56c0-6.29,4.28-11.4,9.55-11.4c5.29,0,9.57,5.11,9.57,11.4c0,1.7-0.3,3.3-0.87,4.75
	c14.9,1.98,32.36-1.64,23.23-37.3c-13.68-53.48-117.45-92.71-167.21-152.63l0.01-0.01l-9.15-11.74l-0.75-0.96l-1.71-2.17l-0.51-0.65
	l-0.34-0.44l-0.09-0.11l-1.31-1.63l-0.35-0.43l-0.1-0.13l-0.26-0.31l-0.35-0.43l-0.36-0.44l-0.35-0.43l-0.35-0.44l-0.36-0.43l0,0
	l-0.71-0.87l-0.36-0.43l-0.35-0.43l-0.36-0.43l-0.36-0.43l-0.34-0.43c-5.92-7.11-11.94-13.99-17.99-20.72l-3.15-3.55l-0.05,0.03
	c-40.97-45.14-82.04-83.94-90.81-141.54c-6.22-40.88,10.9-102.7-6.43-139.16c-12.54-26.36-49.86-45.2-73.87-48.82
	c-19.01-2.88-39.65-2.44-58.45,3.53c-21.16,6.71-40.07,20.64-51.41,45.19c-21.66,46.92-11.08,91.97,0.53,141.41
	c10.3,43.91,21.36,90.93,14.64,147.7l-0.02,0.08c-1.64,13.79-4.81,27.26-9.39,40.22c-1.4,3.97-2.91,7.88-4.56,11.74
	c-5.59-0.26-11.17-0.52-16.75-0.84c-6.25-0.36-12.49-0.77-18.73-1.23c4.17-7.52,7.68-15.28,10.48-23.22
	c3.62-10.24,6.11-20.81,7.38-31.52l0.01-0.09c5.85-49.41-4.36-92.85-13.89-133.43c-13.29-56.62-25.41-108.22,2.09-167.79
	c15.99-34.64,42.12-54.11,71.13-63.31c23.22-7.37,48.24-7.98,71.05-4.53c38.67,5.84,78.09,41.23,116.15,35.77
	c17.99-2.58,47.26-49.39,135.66-45.24c85.57,4.02,141.98,53.56,220.13,72.95c59.32,14.72,112.78,6.38,172.72,17.4
	c46.27,8.51,67.07,41.07,70.24,74.94c0.93,9.77-1.92,66.01-19.58,66.01c-5.59,0-10.11-5.63-10.11-12.58
	c0-6.95,4.52-12.59,10.11-12.59C6434.08,1791.86,6436.43,1793.06,6438.22,1795.04L6438.22,1795.04z M5900.04,1731.7
	c-58.1-28.37-52.67-45.53,6.23-16.76c26.12,12.74,52.23,25.5,76.23,43.39c20.18,15.04,37.54,33.8,54.88,52.52
	c19.48,21.05,38.94,42.09,61.65,56.77c145.84,83.01,136.75,98.05-7.85,15.83c-24.4-15.78-44.56-37.55-64.71-59.34
	c-16.85-18.21-33.73-36.44-52.62-50.53C5951.02,1756.59,5925.52,1744.13,5900.04,1731.7L5900.04,1731.7z M647.62,516.58
	c-2.61,13.2-5.21,26.42-5.83,39.37l-0.01,0.21c-0.62,13.12-0.74,28.35-0.86,44.11c-0.2,25.91-0.42,53.21-2.67,74.06
	c-2.52,23.3-8.15,44.28-13.73,65.09l-0.01,0.03h0.01c-6.37,23.75-12.67,47.29-13.76,73.38c-1.71,41.1,2.7,82.53,7.12,123.99
	c9.91,92.92-5.86,95.84-15.85,2.15c-4.48-42.09-8.97-84.14-7.19-126.99c1.18-28.39,7.78-53.02,14.45-77.87h0.01
	c5.33-19.89,10.71-39.95,13.09-61.99c2.21-20.42,2.42-46.88,2.61-72c0.13-16.24,0.25-31.93,0.86-44.89l0.01-0.21
	c0.69-14.49,3.45-28.48,6.21-42.44C641.38,465.44,657.17,468.16,647.62,516.58L647.62,516.58z M968.14,1589.77
	c1.49-9.98-10.83-20.41-11.5-34.79c-1.04-22.42,11.45-48.58,41.1-51.63c14.97-1.54,88.03,7.42,88.26,134.99
	c0.26,141.7-109.09,190.12-126.1,243.29c-20.92,65.39-0.89,126.77-9.36,132.32c-18,11.77-33.71-92.32-24-138.48
	c15.87-75.44,73.03-128.79,103.63-198.06c10.93-24.75,19.43-53.94,18.14-81.63c-2.2-47.37-30.55-73.03-47.42-73.38
	c-15.06-0.31-20.39,8.42-21.5,13.6c-4.89,22.84,17.2,23.25,14.91,47.58c-1.58,16.61-13.89,37.31-28.68,37.88
	c-12.18,0.47-27.04-4.3-26.2-17.65C940.26,1590.67,963.46,1621.1,968.14,1589.77L968.14,1589.77z M870.36,2007.95
	c-3.99,6.54-40.52-50.87-47.71-87.65c-11.02-56.33-15.91-83.51-16.55-132.64c-0.28-22.35-19.19-37.18-30.58-27.28
	c-13.65,11.87,5.36,42.27-3.52,37.48c-11.83-6.39-19.75-23.46-20.65-37.25c-2.38-36.72,24.03-58.19,57.64-55.76
	c27.12,1.96,53.49,19.57,57.85,84.37c2.21,32.73-15.93,76.65-15.22,111.04C852.33,1934.54,872.74,2004.04,870.36,2007.95
	L870.36,2007.95z M369.99,1622.28c-16.59,2.34-36.37-23.74-41.76-66.07c-1.58-12.38-2.37-24.93-2.31-38.32
	c0.38-73.79,14.24-151.94,15.08-225.71c0.75-65.64-14.48-151.94-74.21-150.17c-57.8,1.71-28.99,64.81-84.9,63.2
	c-23.48-0.67-35.19-28.03-34.11-51.44c1.31-28.35,35.4-34.99,35.86-26.65c0.24,4.34-19.93,12.13-20.06,27.32
	c-0.14,17.06,2.82,30.3,18.01,29.66c21.93-0.94,19.42-21.93,26.49-59.15c5.85-30.79,42.97-53.71,77.29-51.95
	c100.57,5.17,136.39,127.13,128.52,223.53c-6.02,73.63-41.14,141.96-50.35,215.16C358.95,1548.26,366.72,1607.32,369.99,1622.28
	L369.99,1622.28z M433.69,1591.07c6.88,7.81,21.3-22.22,30.64-62.24c20.02-85.82,80.94-130.69,135.46-134.92
	c30.73-2.39,70.79,1.97,74.99,30.38c6.77,45.96-31.53,14.97-31.88,26.54c-1.02,34.43,73.97,25.99,76.73-33.56
	c2.01-43.31-28.77-94.3-101.77-94.49C462.11,1322.39,427.45,1545.41,433.69,1591.07L433.69,1591.07z M624.03,1183.25
	c16.99-29.44,13.71-58.63,37.34-85.98c37.92-43.9,88.7-12.61,146.93-114.38c67.42-117.85,31.63-280.74,60.87-417.52
	c13.96-65.29,62.68-79.58,69.81-108.91c7.39-30.42-17.56-45.14-22.1-43.28c-8.86,3.62,5.63,28.98-4.39,43.8
	c-12.98,19.17-57.02,14.14-95.11,69.57c-61.17,89-42.01,133.41-59.8,235.96c-5.14,29.65-17.62,58.95-29.98,87.98
	c-9.28,21.79-18.5,43.43-24.1,64.08l-0.01,0.05c-4.45,16.47-4.29,37.84-4.12,57.96c0.34,44.34-15.57,43.93-15.91,0.15
	c-0.17-21.51-0.35-44.39,4.81-63.46l0.02-0.05c6.02-22.26,15.46-44.42,24.97-66.73c11.92-27.97,23.95-56.21,28.68-83.48
	c12.88-185.59-36.15-146.19-37.85-236.46c-0.77-41.03,5.09-69.09,0-109.71C690.02,300.57,587.08,310.2,587.5,325.43
	c0.25,8.91,39.65,11.2,39.02,32.96c-2.64,91.35-34.53,110.81-53.52,166.13c-10.65,31.03-12.12,61.58-21.15,90.83
	c-5.47,17.73-10.89,35.32-12.22,55.41c-1.01,15.08-1.13,30.55-1.25,46.07c-0.13,17.97-0.28,36-1.67,53.11l-0.01,0.19l-0.02,0.16
	h-0.01c-1.19,14.49-4.53,28.2-7.85,41.88c-4.07,16.76-8.14,33.48-7.63,49.96l0,0v0.04c0.73,23.61,9.43,46.02,18.19,68.6
	c17.76,45.77,2.95,52.56-14.6,7.35c-9.36-24.11-18.65-48.05-19.5-75.34l0,0c-0.59-19.3,3.79-37.35,8.19-55.44
	c3.15-12.96,6.31-25.95,7.35-38.71l0.01-0.03h-0.01l0.02-0.17l0.02-0.21c1.34-16.41,1.47-33.99,1.61-51.51
	c0.13-16.21,0.26-32.37,1.25-47.28c1.49-22.49,7.27-41.22,13.1-60.12c16.57-53.73,7.68-132.46-28.26-175.08
	c-17.13-20.31-50.99-20.81-61.17-46.5c-8.67-21.86,18.14-25.03,14.34-36.1c-5.5-16-46.84-8.08-46.4,42.95
	c0.43,49.03,44.68,94.36,45.08,143.39c0.8,98.69-49.98,183.15-44.35,281.65c16.2,283.39,131.11,191.71,176.21,287.05
	c31.56,66.69-45.96,153.31-82.46,192.93c-42.64,46.31-87.95,95.51-114.77,188.84c-11.51,40.06-14.75,83.27-11.17,127.43
	c6.68-3.01,13.34-6.06,20.06-9.09c3.66-1.66,7.31-3.29,10.93-4.87c-1.88-35.56,1.28-70.12,10.5-102.2
	c24.3-84.55,66.6-130.48,106.42-173.72C569.34,1285.21,604.86,1246.63,624.03,1183.25L624.03,1183.25z M286.36,2035.9
	c-24.89,24.71-52.23,79.54-47.94,91.55c3.87,10.81,96.17-14.08,126.86-55.46c15.48-20.85,21.68-49.42,37.05-67.66
	c22.54-26.76,45.78-45.2,73.45-61.53c-21.43,5.83-42.73,11.07-64.03,18.85c-18.08,6.6-32.78,17.57-48.63,29.05
	c-16.98,12.31-32.87,22.68-52.47,28.81C300.07,2022.8,294.92,2027.41,286.36,2035.9L286.36,2035.9z M556.72,543.87
	c6.32-62.51,84.68-111.52,3.4-192.51c-11.04-11-24.73-4.4-17.83,5.72c1.97,2.88,4.98,18.82,4.81,22.42
	c-1.49,31.43-12.16,39.07-9.93,70.43C539.05,476.27,552.08,491.88,556.72,543.87L556.72,543.87z M125.59,1887.57
	c-7.45-19.39,29.19-39.55,45.8-56.2c19.61-19.68,21.84-35.49,43.65-37.34c38.61-3.28,84.76,24.01,153.73-29.81
	c-22.29,30.71-54.93,93.22-96.3,114.78C226.09,1903.17,132.91,1906.62,125.59,1887.57L125.59,1887.57z M80.04,1795.04
	c1.79-1.98,4.14-3.18,6.71-3.18c5.57,0,10.1,5.64,10.1,12.59c0,6.95-4.53,12.58-10.1,12.58c-17.68,0-20.51-56.24-19.6-66.01
	c3.18-33.87,23.97-66.43,70.25-74.94c59.94-11.03,113.39-2.69,172.71-17.4c78.15-19.39,134.56-68.92,220.13-72.95
	c88.4-4.16,117.66,42.65,135.66,45.24c38.05,5.46,77.48-29.93,116.14-35.77c22.82-3.45,47.84-2.84,71.06,4.53
	c29.01,9.2,55.13,28.67,71.12,63.31c27.51,59.57,15.38,111.16,2.09,167.79c-9.53,40.58-19.73,84.02-13.88,133.43l0.01,0.09
	c1.27,10.71,3.76,21.28,7.38,31.52c2.8,7.94,6.31,15.71,10.48,23.22c-6.24,0.45-12.48,0.87-18.73,1.23
	c-5.58,0.32-11.17,0.58-16.74,0.84c-1.65-3.86-3.18-7.77-4.58-11.74c-4.57-12.96-7.74-26.43-9.38-40.22l-0.01-0.08
	c-6.71-56.77,4.32-103.79,14.64-147.7c11.6-49.44,22.18-94.49,0.53-141.41c-11.34-24.55-30.26-38.48-51.41-45.19
	c-18.81-5.96-39.44-6.4-58.46-3.53c-24.02,3.62-61.34,22.46-73.88,48.82c-17.33,36.46-0.21,98.28-6.43,139.16
	c-8.76,57.59-49.83,96.39-90.81,141.54l-0.04-0.03l-3.15,3.55c-6.05,6.73-12.09,13.61-18,20.72l-0.35,0.43l-0.35,0.43l-0.35,0.43
	l-0.36,0.43l-0.35,0.43l-0.71,0.87l0,0l-0.35,0.43l-0.35,0.44l-0.34,0.43l-0.36,0.44l-0.35,0.43l-0.24,0.31l-0.11,0.13l-0.34,0.43
	l-1.31,1.63l-0.09,0.11l-0.35,0.44l-0.52,0.65l-1.7,2.17l-0.74,0.96l-9.15,11.74l0.01,0.01c-49.75,59.93-153.53,99.16-167.21,152.63
	c-9.12,35.66,8.34,39.28,23.23,37.3c-0.56-1.45-0.86-3.05-0.86-4.75c0-6.29,4.28-11.4,9.56-11.4c5.29,0,9.57,5.11,9.57,11.4
	c0,47.11-100.76,39.17-100.14-29.56c0.38-42.23,19.49-45.73,34.07-75.85c9.78-20.21,14.72-58.04,28.26-74.1
	c57.69-68.51,111.82-70.7,178.64-122.71c20.93-16.28,35.96-40.89,50.68-64.96c27.22-44.52,14.48-55.43-13.04-10.41
	c-13.86,22.68-28.02,45.85-46.62,60.32c-65.79,51.19-105.98,46.45-173.33,71.03c-39.41,14.38-60.67,45.21-100.58,57.68
	c-27.85,8.7-61.66-3.85-90.26,7.89c-18.96,7.78-37.48,50.63-48.46,47.35c-11.22-3.36,9.04-88.55,31.77-114.91
	c29.16-33.82,74.49-42.96,105.97-73.95c60.54-59.6,75.9-135.85,152.24-174.33c26.74-13.48,56.44-18.43,86.13-23.38
	c66.92-11.16,66.1-29.43-2.25-18.04c-30.81,5.13-61.63,10.26-90.32,24.73c-61.66,31.07-96.3,105.15-174.2,101.02
	c-17.48-0.93-32.03-11.68-45.08-12.53c-20.27-1.32-29.81,3.25-50.05,1.49c-19.39-1.69-60.39-38.89-89.42-23.24
	C81.54,1753.87,78.14,1777.35,80.04,1795.04L80.04,1795.04z M618.22,1731.7c-25.49,12.44-50.99,24.89-73.79,41.89
	c-18.91,14.09-35.78,32.32-52.63,50.53c-20.16,21.78-40.3,43.56-64.7,59.34c-144.61,82.22-153.7,67.17-7.86-15.83
	c22.7-14.68,42.17-35.72,61.65-56.77c17.33-18.73,34.68-37.48,54.87-52.52c24.01-17.89,50.12-30.65,76.23-43.39
	C670.9,1686.17,676.33,1703.33,618.22,1731.7z"/>
</svg>
