<?xml version="1.0" encoding="utf-8"?>
<!-- Generator: Adobe Illustrator 27.8.0, SVG Export Plug-In . SVG Version: 6.00 Build 0)  -->
<svg version="1.1" id="Livello_1" xmlns="http://www.w3.org/2000/svg" xmlns:xlink="http://www.w3.org/1999/xlink" x="0px" y="0px"
	 viewBox="0 0 1920 1080" style="enable-background:new 0 0 1920 1080;" xml:space="preserve">
<style type="text/css">
	.st0{fill:#010101;}
	.st1{fill:#020202;}
	.st2{fill:#848484;}
	.st3{fill:#9C9C9C;}
</style>
<g>
	<g>
		<path d="M1850.23,936.56c-4.8,0.07-9.6,0.08-14.4,0.22c-1.75,0.05-2.59-0.45-2.36-2.3c0.1-0.81,0.02-1.65,0.02-2.47
			c0.97-290.85,1.94-581.69,2.92-872.54c0.01-4.12,0.34-8.25,0.19-12.36c-0.11-2.98,1.05-3.71,3.83-3.57
			c4.25,0.21,8.52,0.03,12.77,0.02C1852.22,341.23,1851.22,638.9,1850.23,936.56z"/>
		<path d="M1454.21,489.64c-0.49,146.96-1.01,293.92-1.35,440.88c-0.01,5-1.4,6.06-6.15,5.94c-15.51-0.37-31.03-0.29-46.54-0.22
			c-2.83,0.01-3.66-0.7-4.27-3.69c-1.93-9.46-1.08-18.95-1.05-28.42c0.89-284.05,1.85-568.09,2.78-852.14
			c0.04-11.84,1.11-9.85,9.93-9.82c14.58,0.05,29.15,0.19,43.73,0.08c3.22-0.02,4.52,0.8,4.25,4.17c-0.26,3.27,0.03,6.57,0.02,9.86
			c-0.48,144.45-0.96,288.9-1.44,433.35C1454.15,489.64,1454.18,489.64,1454.21,489.64z"/>
		<path d="M1719.3,490.67c-0.49,146.96-1,293.92-1.36,440.88c-0.01,4.7-1.1,5.93-5.86,5.81c-15.51-0.4-31.03-0.37-46.54-0.18
			c-3.65,0.04-4.52-1.11-4.35-4.45c0.21-4.22-0.08-8.46-0.06-12.69c0.95-286.87,1.91-573.74,2.87-860.61
			c0.01-4.39,0.23-8.77,0.23-13.16c0-2.21,0.47-3.32,3.12-3.29c16.77,0.18,33.54,0.25,50.31,0.16c3.18-0.02,3.06,1.67,3.06,3.83
			c-0.04,10.97-0.01,21.93-0.05,32.9C1720.21,216.8,1719.75,353.74,1719.3,490.67z"/>
		<path d="M715.36,487.19c-0.49,147.13-1,294.25-1.39,441.38c-0.01,4.13-0.82,5.55-5.3,5.44c-15.51-0.37-31.03-0.36-46.55-0.18
			c-3.59,0.04-4.68-1.07-4.47-4.41c0.14-2.33-0.16-4.69-0.16-7.04c0.96-292.53,1.94-585.06,2.84-877.59
			c0.01-3.86,0.69-5.32,5.09-5.22c15.82,0.39,31.66,0.32,47.49,0.22c3.21-0.02,4.23,0.75,4.22,4.14
			c-0.58,147.75-1.06,295.5-1.56,443.26C715.5,487.19,715.43,487.19,715.36,487.19z"/>
		<path d="M183.74,485.55c-0.49,146.8-0.98,293.61-1.47,440.41c-0.02,6.13-0.02,6.13-6.28,6.11c-14.89-0.05-29.78-0.19-44.67-0.07
			c-3.21,0.03-4.63-0.72-4.19-4.11c0.24-1.85,0.06-3.75,0.07-5.63c0.96-288.59,1.92-577.19,2.92-865.78
			c0.02-4.98-0.34-9.87-1.27-14.75c-0.52-2.75,0.54-3.88,3.51-3.85c16.61,0.16,33.23,0.2,49.84,0.17c2.2,0,3.2,0.62,3.03,2.86
			c-0.08,1.09-0.02,2.19-0.02,3.29C184.72,191.31,184.23,338.43,183.74,485.55z"/>
		<path d="M583.7,486.37c0.48-144.62,0.96-289.25,1.46-433.87c0.01-4.2-1.46-9.53,1.07-12.26c2.38-2.56,7.7-0.71,11.72-0.73
			c12.38-0.07,24.77,0.22,37.14-0.02c3.81-0.07,4.85,1.21,4.76,4.7c-0.11,4.69,0.19,9.4,0.17,14.1
			c-0.95,290.03-1.93,580.06-2.8,870.09c-0.01,4.21-0.99,5.46-5.35,5.36c-15.2-0.35-30.41-0.31-45.61-0.19
			c-3.13,0.03-4.04-0.93-3.93-3.91c0.16-4.06-0.1-8.14-0.09-12.22C582.74,773.74,583.22,630.06,583.7,486.37z"/>
		<path class="st0" d="M431.61,486.92c-0.49,146.8-1.01,293.59-1.34,440.39c-0.01,5-1.53,5.93-6.03,5.76
			c-9.39-0.35-18.81-0.34-28.2-0.1c-4.01,0.1-4.94-1.28-4.92-5.11c0.34-70.19,0.55-140.37,0.78-210.56
			c0.75-224.03,1.49-448.06,2.24-672.09c0.02-6.39,0.03-6.41,6.17-6.39c9.09,0.03,18.18,0.2,27.27,0.02c4-0.08,5.54,1.36,5.44,5.35
			c-0.17,7.2,0.01,14.41-0.01,21.62C432.55,206.18,432.08,346.55,431.61,486.92z"/>
		<path d="M563.17,486.85c-0.49,146.97-1.01,293.93-1.35,440.9c-0.01,4.91-1.4,5.93-6,5.73c-9.54-0.4-19.12-0.27-28.68-0.15
			c-2.69,0.04-3.69-0.8-3.45-3.44c0.16-1.71,0.05-3.44,0.05-5.17c0.98-293.31,1.97-586.61,2.83-879.92c0.01-4.43,0.94-5.9,5.61-5.68
			c9.54,0.44,19.12,0.28,28.68,0.16c2.65-0.03,3.58,0.74,3.51,3.38c-0.1,3.6,0.22,7.2,0.21,10.8
			C564.13,197.94,563.65,342.39,563.17,486.85z"/>
		<path d="M242,485.32c-0.49,146.98-0.98,293.96-1.47,440.93c-0.02,6.07-0.02,6.07-6.3,6.04c-9.25-0.03-18.5-0.16-27.74-0.03
			c-2.65,0.04-3.59-0.76-3.57-3.4c0.05-5.79-0.24-11.59-0.22-17.39c0.93-282.83,1.88-565.66,2.75-848.49
			c0.02-7.4,1.16-14.92-1.23-22.25c-0.56-1.72,0.81-2.56,2.46-2.55c11.76,0.02,23.51,0.08,35.27,0.09c2.59,0,2.07,1.88,2.05,3.3
			c-0.08,4.54-0.42,9.08-0.43,13.62c-0.5,143.37-0.97,286.75-1.45,430.12C242.08,485.32,242.04,485.32,242,485.32z"/>
		<path d="M828.22,487.13c-0.49,147.26-1,294.53-1.39,441.79c-0.01,4.09-0.74,5.67-5.28,5.46c-9.54-0.43-19.12-0.34-28.67-0.13
			c-3.22,0.07-4.19-1.03-3.87-3.98c0.13-1.24,0.04-2.5,0.04-3.76c0.98-293.59,1.97-587.17,2.84-880.76
			c0.01-4.32,0.78-5.98,5.55-5.74c9.38,0.46,18.8,0.35,28.2,0.13c3.43-0.08,4.38,1.11,4.1,4.26c-0.21,2.33-0.07,4.7-0.08,7.05
			C829.18,196.68,828.7,341.9,828.22,487.13z"/>
		<path d="M469.19,485.99c0.48-143.37,0.96-286.73,1.43-430.1c0.01-4.39-0.01-8.78-0.2-13.16c-0.11-2.69,0.57-3.82,3.62-3.75
			c10.18,0.24,20.37,0.23,30.56,0.13c2.57-0.03,3.7,0.66,3.64,3.35c-0.08,3.76,0.14,7.52,0.13,11.28
			c-0.95,291.43-1.91,582.86-2.76,874.3c-0.01,4.36-1.23,5.41-5.43,5.26c-9.71-0.35-19.43-0.26-29.15-0.13
			c-2.72,0.04-3.61-0.84-3.37-3.44c0.18-1.86,0.05-3.76,0.05-5.64C468.22,778.04,468.7,632.01,469.19,485.99z"/>
		<path d="M1303.55,488.76c-0.49,147.27-1,294.54-1.38,441.81c-0.01,4.26-1.08,5.54-5.37,5.38c-9.23-0.36-18.5-0.39-27.73-0.08
			c-3.85,0.13-4.81-1.23-4.67-4.7c0.13-3.28-0.28-6.57-0.26-9.86c0.95-289.21,1.91-578.42,2.88-867.64
			c0.04-11.97,0.04-11.97,12.04-11.93c7.21,0.02,14.43,0.3,21.62-0.03c3.92-0.18,4.53,1.31,4.51,4.77
			c-0.27,51.7-0.41,103.4-0.58,155.1c-0.32,95.72-0.64,191.45-0.96,287.17C1303.61,488.76,1303.58,488.76,1303.55,488.76z"/>
		<path d="M1320.88,487.83c0.48-143.81,0.98-287.63,1.36-431.44c0.01-4.4,1.89-8.42,1.62-12.78c-0.11-1.91,1.35-1.7,2.6-1.7
			c10.5,0.04,21,0.13,31.5,0.06c2.65-0.02,3.42,0.88,3.39,3.54c-4.11,295.2-2.49,590.44-4.25,885.65c-0.02,3.73-0.66,5.13-4.76,4.97
			c-9.39-0.37-18.8-0.26-28.2-0.14c-2.61,0.03-3.19-0.78-3.55-3.35c-1.95-13.68-1.04-27.4-1-41.1
			C1319.96,756.97,1320.43,622.4,1320.88,487.83z"/>
		<path class="st1" d="M1795.95,490.47c0.48-142.56,0.95-285.12,1.42-427.68c0.02-5.37-0.05-10.73-0.24-16.09
			c-0.08-2.35,0.4-3.49,3.12-3.29c3.7,0.27,7.44,0.25,11.14,0.05c2.63-0.14,3.39,0.89,3.18,3.33c-0.16,1.91-0.05,3.85-0.06,5.78
			c-0.95,293.52-1.92,587.03-2.72,880.55c-0.01,4.55-1.87,5.74-5.48,5.73c-13.84-0.02-11.86,1.26-11.82-10.78
			C1794.97,782.2,1795.46,636.33,1795.95,490.47z"/>
		<path class="st1" d="M91.05,484.9c0.49-147.75,0.99-295.5,1.42-443.25c0.01-2.81,0.61-4.07,3.62-3.9
			c3.43,0.2,6.88,0.16,10.32,0.05c2.69-0.09,3.66,1.27,3.64,3.7c-0.02,2.48-0.09,4.95-0.1,7.43c-0.22,64.11,0.05,128.22-0.73,192.32
			c-2.81,228.96-1.79,457.94-3.09,686.91c-0.02,4.08-1.23,5.12-5.17,5.04c-12.37-0.24-11.32,1.01-11.28-11.24
			c0.5-145.69,0.98-291.37,1.47-437.06C91.1,484.9,91.07,484.9,91.05,484.9z"/>
		<path d="M53.36,485.34c0.49-147.56,1-295.12,1.38-442.67c0.01-4.17,1.04-5.65,5.23-5.08c2.71,0.37,5.5,0.06,8.25,0.1
			c3.49,0.05,5.16,1.84,4,5.12c-1.14,3.24-0.96,6.45-0.97,9.69c-1,291.54-1.97,583.07-2.94,874.61c-0.02,5.54-0.02,5.53-5.73,5.52
			c-1.93,0-3.89-0.21-5.77,0.06c-4.94,0.71-4.93,0.79-4.92-4.26C52.37,780.73,52.87,633.04,53.36,485.34z"/>
		<path class="st0" d="M923.98,487.95c0.48-144.9,0.97-289.8,1.45-434.7c0-0.41-0.01-0.83,0.01-1.24c0.11-3.71-1.43-8.56,1.07-10.8
			c2.5-2.24,8.02-0.37,12.19-0.68c3.69-0.27,4.97,1.36,4.96,4.3c0,2.48,0.14,4.96,0.13,7.44c-0.96,293.1-1.93,586.21-2.76,879.31
			c-0.01,3.93-1.51,4.66-5.28,4.34c-2.17-0.19-4.38-0.05-6.58-0.06c-6.34-0.02-6.36-0.02-6.56-5.78c-0.09-2.48-0.1-4.96-0.09-7.44
			C923.02,777.75,923.5,632.85,923.98,487.95z"/>
		<path class="st1" d="M1151.37,488.26c-0.49,147.13-1,294.26-1.36,441.39c-0.01,4.64-1.01,6.44-5.82,5.77
			c-3.23-0.44-6.59-0.3-9.86-0.06c-3.55,0.26-4.67-1.54-4.74-4.62c-0.02-0.94,0.01-1.88,0.01-2.82
			c0.98-293.32,1.96-586.64,2.91-879.95c0.02-5.94,0.87-6.91,6.86-6.77c13.37,0.31,13.4,0.13,13.36,13.67
			c-0.47,144.46-0.96,288.93-1.44,433.39C1151.31,488.26,1151.34,488.26,1151.37,488.26z"/>
		<path class="st0" d="M979.11,488.47c-0.49,147.62-1,295.25-1.39,442.87c-0.01,3.7-0.84,5.26-4.65,4.64
			c-1.34-0.22-2.75-0.04-4.13-0.05c-7.23-0.02-7.24-0.02-7.46-7.08c-0.05-1.51-0.02-3.03-0.01-4.54
			c0.97-291.66,1.94-583.33,2.92-874.99c0.03-8.61,0.03-8.61,8.69-8.58c8.36,0.03,8.32,0.03,7.77,8.6c-0.2,3.16-0.28,6.33-0.29,9.49
			C980.06,202.04,979.59,345.26,979.11,488.47z"/>
		<path class="st0" d="M772.07,487.03c-0.49,147.14-1.01,294.27-1.35,441.41c-0.01,4.86-1.35,6.5-5.96,5.65
			c-0.45-0.08-0.94-0.01-1.41-0.02c-12.04-0.04-12.09-0.04-12.05-11.94c0.97-292.08,1.95-584.16,2.84-876.23
			c0.01-4.4,0.69-6.76,5.82-5.97c3.22,0.5,6.59,0.33,9.86,0.06c3.05-0.26,3.78,1.07,3.68,3.76c-0.12,3.29,0.02,6.58,0.01,9.87
			C773.04,198.08,772.55,342.56,772.07,487.03z"/>
		<path d="M297.96,484.88c0.48-142.56,0.96-285.13,1.4-427.69c0.02-5.16-0.24-10.33-0.49-15.49c-0.11-2.31,0.46-3.4,3.09-3.27
			c4.53,0.22,9.09,0.21,13.63,0.07c3.69-0.11,4.89,2,4.05,4.93c-0.63,2.2-0.64,4.3-0.65,6.45c-0.66,180.16-1.29,360.32-1.92,540.49
			c-0.39,112.17-0.78,224.34-1.01,336.51c-0.01,4.8-1.3,6.35-5.96,5.68c-4.43-0.64-10.45,1.94-12.97-1.1
			c-2.18-2.63-0.63-8.4-0.62-12.78C296.99,774.08,297.48,629.48,297.96,484.88z"/>
		<path class="st0" d="M355.05,486.12c0.49-147.12,0.98-294.23,1.47-441.35c0.02-5.9,0.22-6.1,5.99-6.09
			c2.82,0.01,5.64,0.01,8.46,0.03c5.63,0.03,6.91,1.23,5.28,6.65c-1.16,3.85-1.12,7.62-1.13,11.45
			c-1,289.84-1.96,579.69-2.93,869.53c0,0.78-0.11,1.58,0.01,2.35c0.51,3.27-0.74,4.41-4.08,4.12c-3.74-0.32-7.52-0.14-11.28-0.09
			c-2.38,0.03-3.45-0.96-3.31-3.38c0.12-2.03,0.04-4.07,0.05-6.11C354.08,777.53,354.57,631.83,355.05,486.12z"/>
		<path d="M1472.64,489.26c0.49-147.13,1-294.26,1.36-441.38c0.01-4.55,1.17-6.33,5.67-5.46c0.3,0.06,0.63-0.01,0.94,0.01
			c4,0.32,9.42-1.76,11.63,0.92c2.09,2.54,0.99,7.75,1.2,11.79c0.11,2.03,0.03,4.07,0.02,6.11c-0.73,219.52-1.48,439.03-2.19,658.55
			c-0.22,68.78-0.35,137.57-0.53,206.35c0,0.47-0.01,0.94,0,1.41c0.2,8.89,0.2,8.89-8.72,8.86c-10.88-0.04-10.88-0.04-10.85-10.95
			C1471.67,780.06,1472.15,634.66,1472.64,489.26z"/>
		<path d="M1757.05,490.79c-0.49,146.8-0.98,293.61-1.47,440.41c-0.02,6.18-0.02,6.18-6.17,6.16c-0.16,0-0.31,0-0.47,0
			c-12.56-0.04-12.58-0.04-12.54-12.9c0.97-291.73,1.94-583.45,2.92-875.18c0.02-5.98,0.04-5.98,6.07-5.96
			c2.66,0.01,5.38,0.36,7.98-0.05c4.5-0.7,5.08,1.44,5.06,5.24c-0.22,42.61-0.29,85.23-0.43,127.85
			c-0.34,104.82-0.7,209.63-1.05,314.44C1756.99,490.79,1757.02,490.79,1757.05,490.79z"/>
		<path class="st0" d="M1548.08,490.01c-0.49,147.13-1,294.26-1.39,441.39c-0.01,4.08-0.76,6.17-5.26,5.34
			c-1.21-0.22-2.5-0.04-3.76-0.05c-8.79-0.03-8.95-0.17-9.38-9.07c-0.1-2.03-0.08-4.07-0.07-6.11
			c0.96-288.3,1.93-576.61,2.79-864.91c0.01-4.27,1.7-8.16,1.69-12.34c0-1.11,0.51-1.74,1.7-1.66c0.31,0.02,0.63,0.02,0.94-0.01
			c14.17-0.97,14.18-0.97,14.13,13.08c-0.48,144.78-0.96,289.56-1.45,434.33C1548.05,490.01,1548.07,490.01,1548.08,490.01z"/>
		<path class="st1" d="M886.53,487.4c0.48-144,0.96-288,1.45-432c0.01-3.91,0.29-7.83,0.29-11.74c0-2.24,0.5-3.45,3.15-3.26
			c3.43,0.25,6.9,0.21,10.34,0.05c3.12-0.14,4.04,1.7,4.17,4.21c0.17,3.13,0.15,6.27,0.14,9.4c-0.97,291.76-1.95,583.53-2.82,875.29
			c-0.01,4.09-0.98,5.72-5.16,5.21c-4.14-0.51-10,1.79-12.06-0.97c-2.16-2.88-0.94-8.4-0.93-12.77
			C885.56,776.34,886.05,631.87,886.53,487.4z"/>
		<path class="st0" d="M1189.2,488.4c0.46-138.68,0.92-277.36,1.41-416.03c0.03-8.93,0.45-17.85,0.47-26.78
			c0.01-3.1,0.74-4.56,4.2-4.18c3.1,0.34,6.27,0.19,9.4,0.07c3.03-0.12,4.19,1.39,4.19,4.19c0.01,2.82,0.06,5.64,0.05,8.46
			c-0.97,292.09-1.95,584.17-2.82,876.26c-0.01,4.12-1.01,5.62-5.18,5.22c-4.02-0.39-9.36,1.26-11.82-0.77
			c-2.84-2.34-0.82-7.92-1.3-12.06c-0.23-2.01-0.04-4.07-0.03-6.11C1188.25,773.9,1188.73,631.15,1189.2,488.4z"/>
		<path d="M999.68,487.79c0.49-146.97,1-293.93,1.36-440.9c0.01-4.74,0.87-6.87,6-6.13c2.92,0.43,5.96,0.31,8.92,0.05
			c3.41-0.31,4.09,1.01,4.05,4.25c-0.32,31.8-0.54,63.61-0.65,95.41c-0.9,263.07-1.77,526.13-2.54,789.2
			c-0.01,4.27-1.08,5.86-5.41,5.28c-4.29-0.58-10.09,1.81-12.54-1.03c-2.11-2.45-0.64-8.06-0.63-12.28
			C998.72,777.02,999.2,632.41,999.68,487.79z"/>
		<path d="M1624.65,489.87c-0.49,147.12-1,294.23-1.37,441.35c-0.01,4.64-1.03,5.99-5.84,5.82c-12.61-0.44-12.63-0.18-12.58-13.45
			c0.89-267.44,1.78-534.89,2.68-802.33c0.08-24.28,0.27-48.57,0.17-72.85c-0.02-4.36,0.98-6.3,5.67-5.62
			c2.92,0.42,5.97,0.33,8.92,0.04c3.42-0.33,4.52,0.63,4.43,4.29c-1.45,59.37-0.85,118.75-1.15,178.12
			C1625.13,313.46,1624.95,401.66,1624.65,489.87z"/>
		<path d="M1038.24,488.39c0.49-147.13,1.01-294.26,1.36-441.39c0.01-4.77,0.95-6.34,6.02-6.16c12.79,0.45,12.9,0.18,12.74,12.82
			c-3.76,292.14-2.5,584.3-4.09,876.45c-0.02,4.18-1.13,5.51-5.2,4.97c-3.98-0.53-9.35,1.64-11.64-0.99
			c-1.97-2.25-0.63-7.45-0.62-11.35C1037.27,777.95,1037.76,633.17,1038.24,488.39z"/>
		<path class="st2" d="M-18.72,1096.1c0.07-1.79-1.19-4.03,1.63-4.91C-17.1,1093-16.03,1095.18-18.72,1096.1z"/>
		<path class="st3" d="M-35.72,1028.34c-2.92-1.27-1.43-3.78-1.64-5.81C-34.48,1023.81-35.83,1026.28-35.72,1028.34z"/>
	</g>
</g>
</svg>
