<?xml version="1.0" encoding="utf-8"?>
<!-- Generator: Adobe Illustrator 27.8.0, SVG Export Plug-In . SVG Version: 6.00 Build 0)  -->
<svg version="1.1" id="Livello_1" xmlns="http://www.w3.org/2000/svg" xmlns:xlink="http://www.w3.org/1999/xlink" x="0px" y="0px"
	 viewBox="0 0 1920 1080" style="enable-background:new 0 0 1920 1080;" xml:space="preserve">
<style type="text/css">
	.st0{fill:#DBCEBD;}
	.st1{fill:#D2AB10;}
	.st2{clip-path:url(#SVGID_00000011753739371565696990000000679609838678453925_);}
	.st3{fill:#257189;}
	.st4{fill:#D26697;}
	.st5{fill:#B52C33;}
</style>
<g>
	<polygon class="st0" points="-33.46,-56.59 1960.12,-49.6 1953.86,1136.13 -39.72,1129.14 	"/>
	<polygon class="st1" points="1613.5,-50.98 1607.25,1134.65 1954.02,1135.87 1960.28,-49.76 	"/>
	<g>
		<defs>
			<polygon id="SVGID_1_" points="-33.46,-56.58 1613.5,-50.8 1607.25,1134.65 -39.72,1129.15 			"/>
		</defs>
		<clipPath id="SVGID_00000131329367175852775050000001234315107035458953_">
			<use xlink:href="#SVGID_1_"  style="overflow:visible;"/>
		</clipPath>
		<g style="clip-path:url(#SVGID_00000131329367175852775050000001234315107035458953_);">
			<polygon class="st3" points="776.19,1810.38 -776.39,533.47 789.61,-732.51 2342.19,544.41 			"/>
			<polygon class="st4" points="777.86,1494.1 -388.51,534.83 787.94,-416.23 1954.31,543.05 			"/>
			<polygon class="st5" points="779.53,1177.82 -0.63,536.19 786.27,-99.95 1566.42,541.68 			"/>
			<polygon class="st1" points="1178.54,540.32 781.2,861.54 387.26,537.55 784.6,216.33 			"/>
		</g>
	</g>
	<polygon class="st1" points="1613.5,-50.98 1960.28,-49.76 1954.02,1135.87 1953.86,1135.87 1960.11,-49.59 1613.5,-50.8 	"/>
</g>
<g>
	<path class="st5" d="M2409.96,844.72l143.29,0.62l-0.16,37.64l-129.15-0.56l0.9-8.5l128.05,56.15l-0.17,40.02l-128.05,54.95
		l-0.92-8.51l128.77,0.55l-0.16,37.73l-143.29-0.62l0.26-61.23l123.26-50.77l-0.07,15.19l-122.82-51.54L2409.96,844.72z"/>
	<path class="st5" d="M2516.85,785.79c-0.07,16.82-3.26,31.65-9.55,44.52c-6.3,12.87-15.11,22.81-26.45,29.83
		c-11.33,7.02-24.39,10.5-39.16,10.43c-14.77-0.06-27.8-3.65-39.07-10.77c-11.27-7.12-20-17.14-26.19-30.06
		c-6.18-12.92-9.24-27.79-9.17-44.6c0.07-16.81,3.26-31.64,9.55-44.48c6.3-12.83,15.11-22.78,26.45-29.83
		c11.34-7.05,24.39-10.55,39.16-10.48c14.78,0.06,27.8,3.67,39.07,10.82c11.27,7.15,20,17.17,26.19,30.06
		C2513.87,754.13,2516.93,768.98,2516.85,785.79z M2481.41,785.64c0.04-9.17-1.5-17.15-4.62-23.95
		c-3.12-6.79-7.64-12.04-13.54-15.72c-5.91-3.69-12.9-5.55-20.99-5.58c-8.09-0.03-15.1,1.77-21.04,5.4
		c-5.94,3.63-10.5,8.84-13.68,15.61c-3.18,6.77-4.79,14.74-4.83,23.91c-0.04,9.24,1.5,17.25,4.62,24.04
		c3.12,6.8,7.64,12.02,13.54,15.68c5.91,3.65,12.91,5.5,20.99,5.53c8.09,0.03,15.1-1.75,21.04-5.35c5.94-3.61,10.5-8.79,13.68-15.56
		C2479.76,802.88,2481.37,794.88,2481.41,785.64z"/>
	<path class="st5" d="M2284.17,638.16c0.07-16.81,3.11-31.64,9.12-44.48c6.01-12.84,14.43-22.77,25.25-29.79
		c10.82-7.02,23.37-10.5,37.64-10.44c14.27,0.06,26.78,3.65,37.54,10.76c10.76,7.12,19.1,17.12,24.99,30.01
		c5.9,12.89,8.81,27.74,8.74,44.55l-0.31,71.55l-143.29-0.62L2284.17,638.16z M2410.61,670.8l-18.61,18.83l0.23-53.97
		c0.04-8.53-1.41-15.97-4.35-22.32c-2.93-6.35-7.13-11.24-12.59-14.67c-5.46-3.43-11.89-5.16-19.27-5.19
		c-7.39-0.03-13.83,1.64-19.32,5.03c-5.49,3.39-9.73,8.24-12.72,14.56c-2.99,6.33-4.5,13.76-4.54,22.29l-0.23,53.97l-18.45-18.99
		L2410.61,670.8z"/>
	<path class="st5" d="M2485.02,566.91l-18.12,15.97l0.47-109.76l32.1,0.14l-0.57,133.26l-143.29-0.62l0.57-132.3l32.1,0.14
		l-0.47,108.8l-17.99-16.13L2485.02,566.91z M2413.37,479.39l28.85,0.12l-0.45,104.79l-28.85-0.12L2413.37,479.39z"/>
	<path class="st5" d="M2562.28,395.61c0.02-4.14-0.62-7.72-1.91-10.75c-1.29-3.03-3.19-5.35-5.7-6.95c-2.51-1.6-5.48-2.41-8.92-2.43
		c-3.5-0.02-6.5,0.77-8.99,2.35c-2.49,1.58-4.39,3.87-5.71,6.85c-1.32,2.99-1.99,6.59-2,10.79l-0.25,57.79l-18.84-17.85l132.78,0.57
		l-0.17,39.64l-143.29-0.62l0.37-85.11c0.05-10.83,2-20.35,5.85-28.58c3.86-8.23,9.28-14.61,16.27-19.13
		c6.99-4.52,15.04-6.77,24.15-6.73c9.04,0.04,16.99,2.35,23.85,6.93c6.86,4.58,12.18,11.01,15.97,19.27
		c3.79,8.27,5.65,17.81,5.61,28.63l-0.25,57.7l-29.04-0.12L2562.28,395.61z M2575.71,426.52l0.19-44.51l67.28-51.11l-0.2,45.95
		L2575.71,426.52z"/>
	<path class="st5" d="M2328.13,272.34l2.43,12.14l-118.07-0.51l0.17-38.4l143.29,0.62l-0.21,49.86l-118.23,82.31l-2.43-12.14
		l120.36,0.52l-0.17,38.5l-143.29-0.62l0.22-51.3L2328.13,272.34z"/>
</g>
</svg>
